{"glyphs":{"0":{"ha":694,"x_min":36,"x_max":658,"o":"m 347 -14 q 178 37 247 -14 q 72 174 108 88 q 36 368 36 261 q 72 562 36 475 q 178 699 108 649 q 347 750 247 750 q 517 699 447 750 q 622 562 586 649 q 658 368 658 475 q 622 174 658 261 q 517 37 586 88 q 347 -14 447 -14 m 347 56 q 542 140 469 56 q 614 368 614 225 q 542 596 614 511 q 347 681 469 681 q 153 596 225 681 q 81 368 81 511 q 153 140 81 225 q 347 56 225 56 z "},"1":{"ha":694,"x_min":144,"x_max":550,"o":"m 144 0 l 144 35 l 311 58 l 311 678 l 144 701 l 144 736 l 550 736 l 550 701 l 383 678 l 383 58 l 550 35 l 550 0 l 144 0 z "},"2":{"ha":694,"x_min":78,"x_max":593,"o":"m 82 0 l 82 33 q 267 211 192 140 q 389 333 343 282 q 455 429 435 385 q 475 528 475 474 q 433 649 475 603 q 317 694 392 694 q 193 651 240 694 q 114 529 146 607 l 78 544 q 176 694 110 639 q 336 750 242 750 q 498 689 442 750 q 554 536 554 628 q 511 397 554 463 q 385 254 468 332 q 179 65 301 176 l 524 65 l 564 200 l 593 200 l 581 0 l 82 0 z "},"3":{"ha":694,"x_min":49,"x_max":604,"o":"m 310 -193 q 158 -162 225 -193 q 61 -87 92 -131 q 49 -56 49 -71 q 65 -26 49 -36 l 97 -7 l 111 -7 l 125 -31 q 199 -114 154 -79 q 318 -149 244 -149 q 435 -119 389 -149 q 503 -39 481 -89 q 525 68 525 11 q 449 239 525 179 q 225 299 372 299 l 218 335 l 221 335 q 408 390 336 335 q 479 536 479 446 q 440 651 479 608 q 324 694 401 694 q 200 651 247 694 q 121 529 153 607 l 85 544 q 183 694 117 639 q 343 750 250 750 q 501 692 444 750 q 558 547 558 635 q 515 424 558 476 q 393 340 471 372 q 556 240 507 308 q 604 83 604 172 q 565 -63 604 -1 q 460 -159 526 -125 q 310 -193 394 -193 z "},"4":{"ha":694,"x_min":21,"x_max":660,"o":"m 422 -181 l 422 113 l 21 113 l 21 131 l 472 736 l 494 736 l 494 164 l 660 164 l 660 113 l 494 113 l 494 -181 l 422 -181 m 108 164 l 422 164 l 422 586 l 108 164 z "},"5":{"ha":694,"x_min":90,"x_max":596,"o":"m 264 -194 q 164 -176 206 -194 q 103 -131 122 -158 q 90 -100 90 -114 q 97 -80 90 -87 q 117 -64 104 -72 l 139 -49 l 151 -49 l 171 -79 q 230 -125 192 -111 q 308 -139 268 -139 q 420 -108 372 -139 q 494 -23 468 -76 q 519 97 519 31 q 497 201 519 151 q 421 284 475 251 q 269 317 367 317 q 207 314 240 317 q 135 306 174 311 l 135 736 l 539 736 l 539 667 l 186 667 l 186 383 q 222 386 204 385 q 257 388 240 388 q 459 351 385 388 q 565 253 533 314 q 596 119 596 192 q 549 -38 596 33 q 428 -152 503 -110 q 264 -194 353 -194 z "},"6":{"ha":694,"x_min":69,"x_max":625,"o":"m 351 -14 q 207 29 271 -14 q 106 149 143 72 q 69 325 69 225 q 128 592 69 471 q 297 801 188 714 q 558 931 407 889 l 558 890 q 284 715 388 836 q 160 425 181 594 q 252 510 196 478 q 379 542 308 542 q 509 508 454 542 q 594 417 564 475 q 625 285 625 358 q 594 140 625 208 q 501 29 563 72 q 351 -14 440 -14 m 154 338 q 213 106 154 183 q 357 29 271 29 q 458 61 417 29 q 522 147 500 93 q 543 263 543 200 q 351 479 543 479 q 236 448 288 479 q 154 367 185 417 q 154 338 154 353 z "},"7":{"ha":694,"x_min":83,"x_max":622,"o":"m 164 -181 q 215 -51 193 -110 q 261 71 236 8 q 322 213 286 133 q 411 403 357 293 q 549 669 465 514 l 83 669 l 83 736 l 622 736 l 622 711 q 492 460 557 592 q 369 171 428 328 q 261 -181 310 14 l 164 -181 z "},"8":{"ha":694,"x_min":79,"x_max":614,"o":"m 351 -14 q 216 13 278 -14 q 117 88 154 40 q 79 197 79 136 q 94 292 79 247 q 153 381 110 336 q 282 475 197 425 q 179 549 218 514 q 124 622 140 583 q 107 711 107 660 q 140 821 107 771 q 229 901 174 871 q 353 931 285 931 q 473 903 419 931 q 558 828 526 876 q 589 719 589 781 q 541 592 589 649 q 411 490 493 536 q 565 369 517 429 q 614 219 614 310 q 574 92 614 144 q 473 13 533 40 q 351 -14 413 -14 m 372 513 l 372 513 q 477 597 435 551 q 519 704 519 642 q 494 797 519 758 q 429 856 469 836 q 343 876 389 876 q 228 835 275 876 q 181 729 181 794 q 196 656 181 689 q 253 590 211 624 q 372 513 294 556 m 149 219 q 178 119 149 158 q 253 60 207 79 q 354 40 300 40 q 487 84 432 40 q 542 201 542 128 q 515 306 542 264 q 438 382 488 349 q 319 454 388 415 q 190 351 232 401 q 149 219 149 301 z "},"9":{"ha":694,"x_min":69,"x_max":625,"o":"m 136 -194 l 136 -154 q 410 21 307 -100 q 535 311 514 142 q 442 226 499 258 q 315 194 386 194 q 185 228 240 194 q 100 319 131 261 q 69 451 69 378 q 101 596 69 528 q 193 707 132 664 q 343 750 254 750 q 488 707 424 750 q 588 588 551 664 q 625 411 625 511 q 566 144 625 265 q 397 -65 507 22 q 136 -194 288 -153 m 151 474 q 343 257 151 257 q 458 288 407 257 q 540 369 510 319 q 540 399 540 383 q 482 630 540 553 q 338 707 424 707 q 236 675 278 707 q 173 590 194 643 q 151 474 151 536 z "},"\u0000":{"ha":0,"x_min":0,"x_max":0,"o":""}," ":{"ha":347,"x_min":0,"x_max":0,"o":""}," ":{"ha":694,"x_min":0,"x_max":0,"o":""}," ":{"ha":347,"x_min":0,"x_max":0,"o":""}," ":{"ha":174,"x_min":0,"x_max":0,"o":""}," ":{"ha":35,"x_min":0,"x_max":0,"o":""},"​":{"ha":0,"x_min":0,"x_max":0,"o":""},"A":{"ha":985,"x_min":46,"x_max":939,"o":"m 46 0 l 46 35 l 119 51 l 474 924 l 503 924 l 856 53 l 939 35 l 939 0 l 643 0 l 643 35 l 761 53 l 644 347 l 293 347 l 181 53 l 304 35 l 304 0 l 46 0 m 313 396 l 625 396 l 467 797 l 313 396 z "},"B":{"ha":824,"x_min":90,"x_max":751,"o":"m 90 0 l 90 35 l 199 58 l 199 858 l 90 882 l 90 917 l 342 917 q 507 894 432 917 q 626 826 582 871 q 671 711 671 781 q 622 574 671 636 q 482 486 574 511 q 681 412 610 469 q 751 267 751 354 q 704 130 751 190 q 576 35 657 69 q 390 0 494 0 l 90 0 m 353 867 l 282 867 l 282 497 l 361 497 q 522 545 460 497 q 585 679 585 593 q 524 819 585 772 q 353 867 463 867 m 406 449 l 282 449 l 282 47 l 415 47 q 544 73 489 47 q 632 144 600 99 q 664 247 664 189 q 594 400 664 351 q 406 449 524 449 z "},"C":{"ha":992,"x_min":97,"x_max":864,"o":"m 546 -14 q 315 45 417 -14 q 156 205 214 104 q 97 433 97 306 q 134 629 97 539 q 236 788 171 719 q 387 893 301 856 q 569 931 472 931 q 726 910 667 931 q 843 863 786 889 l 850 647 l 821 647 l 765 807 q 663 867 711 847 q 558 888 615 888 q 358 833 444 888 q 223 688 272 779 q 174 489 174 597 q 225 249 174 351 q 365 88 276 146 q 565 31 454 31 q 675 46 629 31 q 761 86 721 61 l 836 261 l 864 261 l 851 54 q 769 18 811 33 q 674 -6 728 3 q 546 -14 621 -14 z "},"D":{"ha":993,"x_min":90,"x_max":896,"o":"m 90 0 l 90 35 l 201 58 l 201 858 l 90 882 l 90 917 l 414 917 q 675 863 567 917 q 840 714 783 808 q 896 500 896 619 q 835 234 896 346 q 665 61 775 122 q 404 0 556 0 l 90 0 m 424 868 l 285 868 l 285 49 l 431 49 q 628 101 544 49 q 759 244 713 153 q 806 457 806 336 q 761 674 806 581 q 631 817 717 767 q 424 868 546 868 z "},"E":{"ha":849,"x_min":90,"x_max":751,"o":"m 90 0 l 90 35 l 199 58 l 199 858 l 90 882 l 90 917 l 713 917 l 713 692 l 685 692 l 626 868 l 282 868 l 282 497 l 535 497 l 569 613 l 597 613 l 597 336 l 569 336 l 535 449 l 282 449 l 282 49 l 665 49 l 724 239 l 751 239 l 751 0 l 90 0 z "},"F":{"ha":813,"x_min":90,"x_max":715,"o":"m 90 0 l 90 35 l 201 58 l 201 858 l 93 882 l 93 917 l 715 917 l 715 692 l 688 692 l 629 868 l 285 868 l 285 497 l 538 497 l 572 613 l 600 613 l 600 336 l 572 336 l 538 449 l 285 449 l 285 58 l 411 35 l 411 0 l 90 0 z "},"G":{"ha":1038,"x_min":97,"x_max":968,"o":"m 560 -14 q 322 44 426 -14 q 157 203 217 103 q 97 433 97 304 q 135 631 97 540 q 238 788 172 721 q 390 893 304 856 q 575 931 476 931 q 699 922 647 931 q 790 897 750 913 q 871 863 831 882 l 878 647 l 849 647 l 793 807 q 683 869 735 850 q 567 888 631 888 q 358 832 447 888 q 222 685 269 776 q 174 489 174 594 q 228 249 174 350 q 374 94 283 149 q 574 40 465 40 q 674 47 625 40 q 776 75 724 53 l 776 340 l 656 368 l 656 403 l 968 403 l 968 368 l 860 344 l 860 89 q 721 14 803 42 q 560 -14 639 -14 z "},"H":{"ha":1089,"x_min":90,"x_max":999,"o":"m 90 0 l 90 35 l 199 58 l 199 858 l 90 882 l 90 917 l 401 917 l 401 882 l 282 858 l 282 497 l 807 497 l 807 858 l 688 882 l 688 917 l 999 917 l 999 882 l 890 858 l 890 58 l 999 35 l 999 0 l 688 0 l 688 35 l 807 58 l 807 449 l 282 449 l 282 58 l 401 35 l 401 0 l 90 0 z "},"I":{"ha":494,"x_min":97,"x_max":397,"o":"m 97 0 l 97 35 l 206 58 l 206 858 l 97 882 l 97 917 l 397 917 l 397 882 l 289 858 l 289 58 l 397 35 l 397 0 l 97 0 z "},"J":{"ha":500,"x_min":18,"x_max":403,"o":"m 64 -240 q 32 -232 46 -240 q 18 -201 18 -224 q 22 -184 18 -199 q 31 -137 25 -169 l 39 -137 q 77 -147 63 -144 q 110 -150 92 -150 q 161 -133 139 -150 q 196 -69 183 -117 q 208 71 208 -22 l 208 858 l 97 882 l 97 917 l 403 917 l 403 882 l 292 858 l 292 292 q 274 13 292 119 q 203 -150 256 -94 q 144 -210 165 -190 q 106 -235 122 -229 q 64 -240 89 -240 z "},"K":{"ha":976,"x_min":90,"x_max":928,"o":"m 90 0 l 90 35 l 201 58 l 201 858 l 90 882 l 90 917 l 396 917 l 396 882 l 285 858 l 285 476 l 688 856 l 581 882 l 581 917 l 856 917 l 856 882 l 774 865 l 364 494 l 835 51 l 928 35 l 928 0 l 769 0 l 285 463 l 285 58 l 396 35 l 396 0 l 90 0 z "},"L":{"ha":849,"x_min":90,"x_max":751,"o":"m 90 0 l 90 35 l 199 58 l 199 858 l 90 882 l 90 917 l 407 917 l 407 882 l 282 858 l 282 49 l 658 49 l 724 294 l 751 294 l 751 0 l 90 0 z "},"M":{"ha":1299,"x_min":83,"x_max":1215,"o":"m 83 0 l 83 35 l 193 58 l 222 853 l 103 882 l 103 917 l 318 917 l 656 126 l 1000 917 l 1211 917 l 1211 882 l 1094 854 l 1118 58 l 1215 35 l 1215 0 l 929 0 l 929 35 l 1032 57 l 1017 824 l 653 -7 l 624 -7 l 271 829 l 254 57 l 367 35 l 367 0 l 83 0 z "},"N":{"ha":1089,"x_min":90,"x_max":999,"o":"m 90 0 l 90 35 l 199 58 l 199 858 l 90 882 l 90 917 l 272 917 l 838 150 l 838 858 l 718 882 l 718 917 l 999 917 l 999 882 l 890 858 l 890 -7 l 860 -7 l 254 800 l 254 63 l 381 35 l 381 0 l 90 0 z "},"O":{"ha":1065,"x_min":97,"x_max":968,"o":"m 532 -14 q 309 47 407 -14 q 154 215 211 108 q 97 458 97 322 q 154 701 97 594 q 309 869 211 808 q 532 931 407 931 q 756 869 658 931 q 911 701 854 808 q 968 458 968 594 q 911 215 968 322 q 756 47 854 108 q 532 -14 658 -14 m 561 28 q 728 76 656 28 q 842 210 801 124 q 882 415 882 297 q 832 665 882 558 q 697 831 782 772 q 508 890 613 890 q 340 843 414 890 q 225 709 267 796 q 183 504 183 622 q 234 253 183 361 q 370 87 285 146 q 561 28 456 28 z "},"P":{"ha":803,"x_min":90,"x_max":731,"o":"m 90 0 l 90 35 l 201 58 l 201 858 l 90 882 l 90 917 l 368 917 q 631 857 532 917 q 731 668 731 797 q 683 533 731 592 q 549 439 635 474 q 350 404 464 404 l 285 404 l 285 58 l 410 35 l 410 0 l 90 0 m 285 868 l 285 453 l 389 453 q 517 478 461 453 q 606 551 574 504 q 638 657 638 597 q 567 818 638 768 q 379 868 497 868 l 285 868 z "},"Q":{"ha":1079,"x_min":97,"x_max":1079,"o":"m 918 -207 q 807 -194 863 -207 q 680 -139 751 -181 q 506 -12 608 -97 q 295 56 388 -7 q 150 224 203 119 q 97 458 97 328 q 154 701 97 594 q 309 869 211 808 q 532 931 407 931 q 756 869 658 931 q 911 701 854 808 q 968 458 968 594 q 923 239 968 338 q 797 76 878 140 q 613 -7 717 13 q 761 -105 703 -72 q 865 -149 819 -137 q 960 -160 910 -160 q 1079 -139 1022 -160 l 1079 -169 q 1009 -195 1051 -183 q 918 -207 967 -207 m 561 28 q 728 76 656 28 q 842 210 801 124 q 882 415 882 297 q 832 665 882 558 q 697 831 782 772 q 508 890 613 890 q 340 843 414 890 q 225 709 267 796 q 183 504 183 622 q 234 253 183 361 q 370 87 285 146 q 561 28 456 28 z "},"R":{"ha":838,"x_min":90,"x_max":844,"o":"m 90 0 l 90 35 l 201 58 l 201 858 l 90 882 l 90 917 l 365 917 q 595 856 511 917 q 679 690 679 796 q 626 549 679 607 q 485 463 572 490 l 753 53 l 844 35 l 844 0 l 683 0 l 406 435 l 285 435 l 285 60 l 389 35 l 389 0 l 90 0 m 375 868 l 285 868 l 285 483 l 383 483 q 528 537 471 483 q 586 672 586 590 q 529 815 586 763 q 375 868 472 868 z "},"S":{"ha":717,"x_min":83,"x_max":640,"o":"m 353 -14 q 215 3 272 -14 q 97 50 158 19 l 83 264 l 108 264 l 188 88 q 279 41 235 53 q 371 29 324 29 q 511 78 464 29 q 558 217 558 128 q 527 321 558 283 q 438 388 496 358 q 303 456 381 417 q 201 517 242 486 q 139 588 160 547 q 118 690 118 629 q 155 805 118 750 q 250 895 192 860 q 375 931 308 931 q 487 915 436 931 q 592 872 538 900 l 606 664 l 581 664 l 519 829 q 451 875 485 861 q 374 889 418 889 q 243 840 289 889 q 197 722 197 792 q 219 633 197 669 q 285 568 240 597 q 397 506 329 539 q 535 428 481 465 q 615 344 589 392 q 640 225 640 297 q 598 102 640 156 q 490 17 556 49 q 353 -14 425 -14 z "},"T":{"ha":922,"x_min":63,"x_max":860,"o":"m 281 0 l 281 35 l 419 58 l 419 868 l 149 868 l 90 664 l 63 664 l 63 917 l 860 917 l 860 664 l 832 664 l 774 868 l 503 868 l 503 58 l 642 35 l 642 0 l 281 0 z "},"U":{"ha":1082,"x_min":90,"x_max":992,"o":"m 542 -14 q 367 22 444 -14 q 246 133 290 57 q 201 331 201 208 l 201 858 l 90 882 l 90 917 l 396 917 l 396 882 l 285 858 l 285 350 q 319 167 285 233 q 417 72 353 100 q 567 44 481 44 q 699 73 639 44 q 793 162 758 101 q 828 315 828 222 l 828 861 l 689 882 l 689 917 l 992 917 l 992 882 l 882 860 l 882 331 q 838 133 882 208 q 716 22 793 57 q 542 -14 639 -14 z "},"V":{"ha":963,"x_min":49,"x_max":914,"o":"m 471 -7 l 133 860 l 49 882 l 49 917 l 344 917 l 344 882 l 228 863 l 228 858 l 503 133 l 513 133 l 778 858 l 778 863 l 656 882 l 656 917 l 914 917 l 914 882 l 842 867 l 500 -7 l 471 -7 z "},"W":{"ha":1325,"x_min":21,"x_max":1304,"o":"m 372 -7 l 121 861 l 21 882 l 21 917 l 336 917 l 336 882 l 213 861 l 413 158 l 417 158 l 667 924 l 696 924 l 963 157 l 967 157 l 1158 858 l 1035 882 l 1035 917 l 1304 917 l 1304 882 l 1215 860 l 963 -7 l 933 -7 l 667 733 l 661 733 l 401 -7 l 372 -7 z "},"X":{"ha":986,"x_min":49,"x_max":938,"o":"m 49 0 l 49 35 l 147 57 l 446 463 l 165 858 l 69 882 l 69 917 l 375 917 l 375 882 l 267 860 l 267 853 l 506 515 l 747 853 l 747 858 l 646 882 l 646 917 l 903 917 l 903 882 l 819 863 l 533 476 l 829 58 l 938 35 l 938 0 l 625 0 l 625 35 l 729 54 l 729 60 l 474 422 l 218 63 l 218 57 l 328 35 l 328 0 l 49 0 z "},"Y":{"ha":956,"x_min":49,"x_max":907,"o":"m 317 0 l 317 35 l 442 58 l 442 435 l 140 858 l 49 882 l 49 917 l 338 917 l 338 882 l 244 863 l 244 857 l 508 479 l 749 857 l 749 863 l 649 882 l 649 917 l 907 917 l 907 882 l 821 867 l 525 431 l 525 58 l 650 35 l 650 0 l 317 0 z "},"Z":{"ha":871,"x_min":125,"x_max":746,"o":"m 125 0 l 125 28 l 625 868 l 228 868 l 169 678 l 142 678 l 142 917 l 731 917 l 731 889 l 229 49 l 660 49 l 718 253 l 746 253 l 746 0 l 125 0 z "},"À":{"ha":985,"x_min":46,"x_max":939,"o":"m 46 0 l 46 35 l 119 51 l 474 924 l 503 924 l 856 53 l 939 35 l 939 0 l 643 0 l 643 35 l 761 53 l 644 347 l 293 347 l 181 53 l 304 35 l 304 0 l 46 0 m 313 396 l 625 396 l 467 797 l 313 396 m 479 986 l 350 1110 q 313 1156 322 1136 q 304 1197 304 1176 l 369 1197 l 499 986 l 479 986 z "},"Á":{"ha":985,"x_min":46,"x_max":939,"o":"m 46 0 l 46 35 l 119 51 l 474 924 l 503 924 l 856 53 l 939 35 l 939 0 l 643 0 l 643 35 l 761 53 l 644 347 l 293 347 l 181 53 l 304 35 l 304 0 l 46 0 m 313 396 l 625 396 l 467 797 l 313 396 m 479 986 l 610 1197 l 675 1197 q 666 1156 675 1176 q 629 1110 657 1136 l 499 986 l 479 986 z "},"Â":{"ha":985,"x_min":46,"x_max":939,"o":"m 46 0 l 46 35 l 119 51 l 474 924 l 503 924 l 856 53 l 939 35 l 939 0 l 643 0 l 643 35 l 761 53 l 644 347 l 293 347 l 181 53 l 304 35 l 304 0 l 46 0 m 313 396 l 625 396 l 467 797 l 313 396 m 300 986 l 474 1197 l 504 1197 l 678 986 l 658 986 l 489 1128 l 319 986 l 300 986 z "},"Ã":{"ha":985,"x_min":46,"x_max":939,"o":"m 46 0 l 46 35 l 119 51 l 474 924 l 503 924 l 856 53 l 939 35 l 939 0 l 643 0 l 643 35 l 761 53 l 644 347 l 293 347 l 181 53 l 304 35 l 304 0 l 46 0 m 313 396 l 625 396 l 467 797 l 313 396 m 294 1014 q 349 1141 322 1110 q 411 1172 376 1172 q 458 1156 436 1172 q 500 1119 481 1140 q 539 1083 519 1099 q 578 1067 558 1067 q 624 1092 604 1067 q 667 1172 644 1117 l 683 1172 q 628 1044 656 1075 q 567 1014 601 1014 q 519 1030 542 1014 q 478 1067 497 1046 q 439 1103 458 1088 q 400 1119 419 1119 q 353 1094 374 1119 q 311 1014 333 1069 l 294 1014 z "},"Ä":{"ha":985,"x_min":46,"x_max":939,"o":"m 46 0 l 46 35 l 119 51 l 474 924 l 503 924 l 856 53 l 939 35 l 939 0 l 643 0 l 643 35 l 761 53 l 644 347 l 293 347 l 181 53 l 304 35 l 304 0 l 46 0 m 313 396 l 625 396 l 467 797 l 313 396 m 358 1036 q 318 1053 335 1036 q 301 1093 301 1069 q 318 1133 301 1117 q 358 1150 335 1150 q 399 1133 382 1150 q 415 1093 415 1117 q 399 1053 415 1069 q 358 1036 382 1036 m 619 1036 q 579 1053 596 1036 q 563 1093 563 1069 q 579 1133 563 1117 q 619 1150 596 1150 q 660 1133 643 1150 q 676 1093 676 1117 q 660 1053 676 1069 q 619 1036 643 1036 z "},"Ā":{"ha":985,"x_min":46,"x_max":939,"o":"m 46 0 l 46 35 l 119 51 l 474 924 l 503 924 l 856 53 l 939 35 l 939 0 l 643 0 l 643 35 l 761 53 l 644 347 l 293 347 l 181 53 l 304 35 l 304 0 l 46 0 m 313 396 l 625 396 l 467 797 l 313 396 m 313 1068 l 313 1118 l 665 1118 l 665 1068 l 313 1068 z "},"Ă":{"ha":985,"x_min":46,"x_max":939,"o":"m 46 0 l 46 35 l 119 51 l 474 924 l 503 924 l 856 53 l 939 35 l 939 0 l 643 0 l 643 35 l 761 53 l 644 347 l 293 347 l 181 53 l 304 35 l 304 0 l 46 0 m 313 396 l 625 396 l 467 797 l 313 396 m 489 986 q 367 1039 407 986 q 300 1197 328 1092 l 318 1197 q 365 1101 339 1133 q 422 1058 392 1069 q 489 1046 453 1046 q 556 1058 525 1046 q 613 1101 586 1069 q 660 1197 639 1133 l 678 1197 q 610 1039 650 1092 q 489 986 571 986 z "},"Å":{"ha":985,"x_min":46,"x_max":939,"o":"m 46 0 l 46 35 l 119 51 l 474 924 l 503 924 l 856 53 l 939 35 l 939 0 l 643 0 l 643 35 l 761 53 l 644 347 l 293 347 l 181 53 l 304 35 l 304 0 l 46 0 m 313 396 l 625 396 l 467 797 l 313 396 m 489 986 q 406 1018 438 986 q 374 1097 374 1050 q 406 1176 374 1144 q 489 1208 438 1208 q 573 1176 542 1208 q 604 1097 604 1144 q 573 1018 604 1050 q 489 986 542 986 m 496 1011 q 533 1030 519 1011 q 547 1088 547 1049 q 530 1160 547 1136 q 482 1183 513 1183 q 444 1166 458 1183 q 431 1108 431 1149 q 496 1011 431 1011 z "},"Ǻ":{"ha":985,"x_min":46,"x_max":939,"o":"m 46 0 l 46 35 l 119 51 l 474 924 l 503 924 l 856 53 l 939 35 l 939 0 l 643 0 l 643 35 l 761 53 l 644 347 l 293 347 l 181 53 l 304 35 l 304 0 l 46 0 m 313 396 l 625 396 l 467 797 l 313 396 m 489 986 q 406 1018 438 986 q 374 1097 374 1050 q 406 1176 374 1144 q 489 1208 438 1208 q 573 1176 542 1208 q 604 1097 604 1144 q 573 1018 604 1050 q 489 986 542 986 m 496 1011 q 533 1030 519 1011 q 547 1088 547 1049 q 530 1160 547 1136 q 482 1183 513 1183 q 444 1166 458 1183 q 431 1108 431 1149 q 496 1011 431 1011 m 479 1257 l 610 1468 l 675 1468 q 666 1427 675 1447 q 629 1381 657 1407 l 499 1257 l 479 1257 z "},"Ạ":{"ha":985,"x_min":46,"x_max":939,"o":"m 46 0 l 46 35 l 119 51 l 474 924 l 503 924 l 856 53 l 939 35 l 939 0 l 643 0 l 643 35 l 761 53 l 644 347 l 293 347 l 181 53 l 304 35 l 304 0 l 46 0 m 313 396 l 625 396 l 467 797 l 313 396 z "},"Ą":{"ha":985,"x_min":46,"x_max":939,"o":"m 740 -207 q 764 -278 740 -256 q 829 -300 788 -300 q 872 -293 851 -300 q 913 -271 893 -286 l 917 -271 l 917 -289 q 875 -321 903 -308 q 811 -333 847 -333 q 724 -305 758 -333 q 689 -221 689 -276 q 722 -107 689 -161 q 814 0 756 -53 l 643 0 l 643 35 l 761 53 l 644 347 l 293 347 l 181 53 l 304 35 l 304 0 l 46 0 l 46 35 l 119 51 l 474 924 l 503 924 l 856 53 l 939 35 l 939 0 l 842 0 q 766 -106 792 -56 q 740 -207 740 -157 m 313 396 l 625 396 l 467 797 l 313 396 z "},"Ȁ":{"ha":985,"x_min":46,"x_max":939,"o":"m 46 0 l 46 35 l 119 51 l 474 924 l 503 924 l 856 53 l 939 35 l 939 0 l 643 0 l 643 35 l 761 53 l 644 347 l 293 347 l 181 53 l 304 35 l 304 0 l 46 0 m 313 396 l 625 396 l 467 797 l 313 396 m 401 986 l 301 1110 q 280 1156 282 1135 q 285 1197 278 1176 l 338 1197 l 421 986 l 401 986 m 557 986 l 457 1110 q 435 1156 438 1135 q 440 1197 433 1176 l 493 1197 l 576 986 l 557 986 z "},"Ȃ":{"ha":985,"x_min":46,"x_max":939,"o":"m 46 0 l 46 35 l 119 51 l 474 924 l 503 924 l 856 53 l 939 35 l 939 0 l 643 0 l 643 35 l 761 53 l 644 347 l 293 347 l 181 53 l 304 35 l 304 0 l 46 0 m 313 396 l 625 396 l 467 797 l 313 396 m 300 986 q 367 1144 328 1092 q 489 1197 407 1197 q 610 1144 571 1197 q 678 986 650 1092 l 660 986 q 613 1082 639 1050 q 556 1126 586 1114 q 489 1138 525 1138 q 422 1126 453 1138 q 365 1082 392 1114 q 318 986 339 1050 l 300 986 z "},"Ắ":{"ha":985,"x_min":46,"x_max":939,"o":"m 46 0 l 46 35 l 119 51 l 474 924 l 503 924 l 856 53 l 939 35 l 939 0 l 643 0 l 643 35 l 761 53 l 644 347 l 293 347 l 181 53 l 304 35 l 304 0 l 46 0 m 313 396 l 625 396 l 467 797 l 313 396 z "},"Ặ":{"ha":985,"x_min":46,"x_max":939,"o":"m 46 0 l 46 35 l 119 51 l 474 924 l 503 924 l 856 53 l 939 35 l 939 0 l 643 0 l 643 35 l 761 53 l 644 347 l 293 347 l 181 53 l 304 35 l 304 0 l 46 0 m 313 396 l 625 396 l 467 797 l 313 396 m 489 986 q 367 1039 407 986 q 300 1197 328 1092 l 318 1197 q 365 1101 339 1133 q 422 1058 392 1069 q 489 1046 453 1046 q 556 1058 525 1046 q 613 1101 586 1069 q 660 1197 639 1133 l 678 1197 q 610 1039 650 1092 q 489 986 571 986 z "},"Ằ":{"ha":985,"x_min":46,"x_max":939,"o":"m 46 0 l 46 35 l 119 51 l 474 924 l 503 924 l 856 53 l 939 35 l 939 0 l 643 0 l 643 35 l 761 53 l 644 347 l 293 347 l 181 53 l 304 35 l 304 0 l 46 0 m 313 396 l 625 396 l 467 797 l 313 396 z "},"Ẳ":{"ha":985,"x_min":46,"x_max":939,"o":"m 46 0 l 46 35 l 119 51 l 474 924 l 503 924 l 856 53 l 939 35 l 939 0 l 643 0 l 643 35 l 761 53 l 644 347 l 293 347 l 181 53 l 304 35 l 304 0 l 46 0 m 313 396 l 625 396 l 467 797 l 313 396 z "},"Ẵ":{"ha":985,"x_min":46,"x_max":939,"o":"m 46 0 l 46 35 l 119 51 l 474 924 l 503 924 l 856 53 l 939 35 l 939 0 l 643 0 l 643 35 l 761 53 l 644 347 l 293 347 l 181 53 l 304 35 l 304 0 l 46 0 m 313 396 l 625 396 l 467 797 l 313 396 z "},"Ấ":{"ha":985,"x_min":46,"x_max":939,"o":"m 46 0 l 46 35 l 119 51 l 474 924 l 503 924 l 856 53 l 939 35 l 939 0 l 643 0 l 643 35 l 761 53 l 644 347 l 293 347 l 181 53 l 304 35 l 304 0 l 46 0 m 313 396 l 625 396 l 467 797 l 313 396 m 646 1118 l 722 1317 l 788 1317 q 778 1281 788 1297 q 747 1238 768 1264 l 657 1118 l 646 1118 m 300 986 l 474 1197 l 504 1197 l 678 986 l 658 986 l 489 1128 l 319 986 l 300 986 z "},"Ậ":{"ha":985,"x_min":46,"x_max":939,"o":"m 46 0 l 46 35 l 119 51 l 474 924 l 503 924 l 856 53 l 939 35 l 939 0 l 643 0 l 643 35 l 761 53 l 644 347 l 293 347 l 181 53 l 304 35 l 304 0 l 46 0 m 313 396 l 625 396 l 467 797 l 313 396 m 300 986 l 474 1197 l 504 1197 l 678 986 l 658 986 l 489 1128 l 319 986 l 300 986 z "},"Ầ":{"ha":985,"x_min":46,"x_max":939,"o":"m 46 0 l 46 35 l 119 51 l 474 924 l 503 924 l 856 53 l 939 35 l 939 0 l 643 0 l 643 35 l 761 53 l 644 347 l 293 347 l 181 53 l 304 35 l 304 0 l 46 0 m 313 396 l 625 396 l 467 797 l 313 396 m 321 1118 l 231 1238 q 200 1281 210 1264 q 190 1317 190 1297 l 256 1317 l 332 1118 l 321 1118 m 300 986 l 474 1197 l 504 1197 l 678 986 l 658 986 l 489 1128 l 319 986 l 300 986 z "},"Ẩ":{"ha":985,"x_min":46,"x_max":939,"o":"m 46 0 l 46 35 l 119 51 l 474 924 l 503 924 l 856 53 l 939 35 l 939 0 l 643 0 l 643 35 l 761 53 l 644 347 l 293 347 l 181 53 l 304 35 l 304 0 l 46 0 m 313 396 l 625 396 l 467 797 l 313 396 z "},"Ẫ":{"ha":985,"x_min":46,"x_max":939,"o":"m 46 0 l 46 35 l 119 51 l 474 924 l 503 924 l 856 53 l 939 35 l 939 0 l 643 0 l 643 35 l 761 53 l 644 347 l 293 347 l 181 53 l 304 35 l 304 0 l 46 0 m 313 396 l 625 396 l 467 797 l 313 396 z "},"Ả":{"ha":985,"x_min":46,"x_max":939,"o":"m 46 0 l 46 35 l 119 51 l 474 924 l 503 924 l 856 53 l 939 35 l 939 0 l 643 0 l 643 35 l 761 53 l 644 347 l 293 347 l 181 53 l 304 35 l 304 0 l 46 0 m 313 396 l 625 396 l 467 797 l 313 396 m 424 985 l 424 986 q 513 1022 481 1001 q 544 1076 544 1043 q 517 1134 544 1111 q 418 1167 489 1157 l 426 1215 q 556 1172 519 1207 q 592 1099 592 1136 q 551 1019 592 1046 q 433 975 511 993 l 424 985 z "},"Æ":{"ha":1276,"x_min":46,"x_max":1179,"o":"m 614 917 l 1140 917 l 1140 692 l 1113 692 l 1054 868 l 710 868 l 710 497 l 963 497 l 997 613 l 1025 613 l 1025 336 l 997 336 l 963 449 l 710 449 l 710 49 l 1093 49 l 1151 239 l 1179 239 l 1179 0 l 518 0 l 518 35 l 626 58 l 626 347 l 347 347 l 182 51 l 304 35 l 304 0 l 46 0 l 46 35 l 122 53 l 614 917 m 375 396 l 626 396 l 626 844 l 375 396 z "},"Ǽ":{"ha":1276,"x_min":46,"x_max":1179,"o":"m 614 917 l 1140 917 l 1140 692 l 1113 692 l 1054 868 l 710 868 l 710 497 l 963 497 l 997 613 l 1025 613 l 1025 336 l 997 336 l 963 449 l 710 449 l 710 49 l 1093 49 l 1151 239 l 1179 239 l 1179 0 l 518 0 l 518 35 l 626 58 l 626 347 l 347 347 l 182 51 l 304 35 l 304 0 l 46 0 l 46 35 l 122 53 l 614 917 m 375 396 l 626 396 l 626 844 l 375 396 m 665 986 l 796 1197 l 861 1197 q 852 1156 861 1176 q 815 1110 843 1136 l 685 986 l 665 986 z "},"Ć":{"ha":992,"x_min":97,"x_max":864,"o":"m 546 -14 q 315 45 417 -14 q 156 205 214 104 q 97 433 97 306 q 134 629 97 539 q 236 788 171 719 q 387 893 301 856 q 569 931 472 931 q 726 910 667 931 q 843 863 786 889 l 850 647 l 821 647 l 765 807 q 663 867 711 847 q 558 888 615 888 q 358 833 444 888 q 223 688 272 779 q 174 489 174 597 q 225 249 174 351 q 365 88 276 146 q 565 31 454 31 q 675 46 629 31 q 761 86 721 61 l 836 261 l 864 261 l 851 54 q 769 18 811 33 q 674 -6 728 3 q 546 -14 621 -14 m 551 986 l 682 1197 l 747 1197 q 738 1156 747 1176 q 701 1110 729 1136 l 571 986 l 551 986 z "},"Ĉ":{"ha":992,"x_min":97,"x_max":864,"o":"m 546 -14 q 315 45 417 -14 q 156 205 214 104 q 97 433 97 306 q 134 629 97 539 q 236 788 171 719 q 387 893 301 856 q 569 931 472 931 q 726 910 667 931 q 843 863 786 889 l 850 647 l 821 647 l 765 807 q 663 867 711 847 q 558 888 615 888 q 358 833 444 888 q 223 688 272 779 q 174 489 174 597 q 225 249 174 351 q 365 88 276 146 q 565 31 454 31 q 675 46 629 31 q 761 86 721 61 l 836 261 l 864 261 l 851 54 q 769 18 811 33 q 674 -6 728 3 q 546 -14 621 -14 m 372 986 l 546 1197 l 576 1197 l 750 986 l 731 986 l 561 1128 l 392 986 l 372 986 z "},"Č":{"ha":992,"x_min":97,"x_max":864,"o":"m 546 -14 q 315 45 417 -14 q 156 205 214 104 q 97 433 97 306 q 134 629 97 539 q 236 788 171 719 q 387 893 301 856 q 569 931 472 931 q 726 910 667 931 q 843 863 786 889 l 850 647 l 821 647 l 765 807 q 663 867 711 847 q 558 888 615 888 q 358 833 444 888 q 223 688 272 779 q 174 489 174 597 q 225 249 174 351 q 365 88 276 146 q 565 31 454 31 q 675 46 629 31 q 761 86 721 61 l 836 261 l 864 261 l 851 54 q 769 18 811 33 q 674 -6 728 3 q 546 -14 621 -14 m 546 986 l 372 1197 l 392 1197 l 561 1056 l 731 1197 l 750 1197 l 576 986 l 546 986 z "},"Ċ":{"ha":992,"x_min":97,"x_max":864,"o":"m 546 -14 q 315 45 417 -14 q 156 205 214 104 q 97 433 97 306 q 134 629 97 539 q 236 788 171 719 q 387 893 301 856 q 569 931 472 931 q 726 910 667 931 q 843 863 786 889 l 850 647 l 821 647 l 765 807 q 663 867 711 847 q 558 888 615 888 q 358 833 444 888 q 223 688 272 779 q 174 489 174 597 q 225 249 174 351 q 365 88 276 146 q 565 31 454 31 q 675 46 629 31 q 761 86 721 61 l 836 261 l 864 261 l 851 54 q 769 18 811 33 q 674 -6 728 3 q 546 -14 621 -14 m 561 1044 q 524 1060 539 1044 q 508 1097 508 1075 q 524 1135 508 1119 q 561 1150 539 1150 q 599 1135 583 1150 q 614 1097 614 1119 q 599 1060 614 1075 q 561 1044 583 1044 z "},"Ç":{"ha":992,"x_min":97,"x_max":864,"o":"m 539 -307 q 625 -237 625 -307 q 581 -168 625 -193 q 460 -122 536 -143 l 528 -14 q 306 50 403 -10 q 153 210 208 110 q 97 433 97 310 q 134 629 97 539 q 236 788 171 719 q 387 893 301 856 q 569 931 472 931 q 726 910 667 931 q 843 863 786 889 l 850 647 l 821 647 l 765 807 q 663 867 711 847 q 558 888 615 888 q 358 833 444 888 q 223 688 272 779 q 174 489 174 597 q 225 249 174 351 q 365 88 276 146 q 565 31 454 31 q 696 53 643 31 q 796 108 749 76 l 761 86 l 836 261 l 864 261 l 851 54 q 772 19 813 35 q 679 -5 731 4 q 557 -14 628 -14 l 510 -89 q 621 -138 574 -107 q 668 -224 668 -169 q 635 -303 668 -272 q 543 -333 601 -333 q 490 -324 515 -333 q 449 -303 464 -315 l 449 -285 l 453 -285 q 539 -307 493 -307 z "},"Ḉ":{"ha":992,"x_min":97,"x_max":864,"o":"m 551 986 l 682 1197 l 747 1197 q 738 1156 747 1176 q 701 1110 729 1136 l 571 986 l 551 986 m 543 -333 q 490 -324 515 -333 q 449 -303 464 -315 l 449 -285 l 453 -285 q 539 -307 493 -307 q 625 -237 625 -307 q 581 -168 625 -193 q 460 -122 536 -143 l 528 -14 q 306 50 403 -10 q 153 210 208 110 q 97 433 97 310 q 134 629 97 539 q 236 788 171 719 q 387 893 301 856 q 569 931 472 931 q 726 910 667 931 q 843 863 786 889 l 850 647 l 821 647 l 765 807 q 663 867 711 847 q 558 888 615 888 q 358 833 444 888 q 223 688 272 779 q 174 489 174 597 q 225 249 174 351 q 365 88 276 146 q 565 31 454 31 q 675 46 629 31 q 761 86 721 61 l 836 261 l 864 261 l 851 54 q 772 19 813 35 q 679 -5 731 4 q 557 -14 628 -14 l 510 -89 q 621 -138 574 -107 q 668 -224 668 -169 q 635 -303 668 -272 q 543 -333 601 -333 z "},"Ď":{"ha":993,"x_min":90,"x_max":896,"o":"m 90 0 l 90 35 l 201 58 l 201 858 l 90 882 l 90 917 l 414 917 q 675 863 567 917 q 840 714 783 808 q 896 500 896 619 q 835 234 896 346 q 665 61 775 122 q 404 0 556 0 l 90 0 m 424 868 l 285 868 l 285 49 l 431 49 q 628 101 544 49 q 759 244 713 153 q 806 457 806 336 q 761 674 806 581 q 631 817 717 767 q 424 868 546 868 m 475 986 l 301 1197 l 321 1197 l 490 1056 l 660 1197 l 679 1197 l 506 986 l 475 986 z "},"Đ":{"ha":993,"x_min":90,"x_max":896,"o":"m 90 0 l 90 35 l 201 58 l 201 450 l 90 450 l 90 499 l 201 499 l 201 858 l 90 882 l 90 917 l 414 917 q 675 863 567 917 q 840 714 783 808 q 896 500 896 619 q 835 234 896 346 q 665 61 775 122 q 404 0 556 0 l 90 0 m 517 450 l 285 450 l 285 49 l 431 49 q 628 101 544 49 q 759 244 713 153 q 806 457 806 336 q 761 674 806 581 q 631 817 717 767 q 424 868 546 868 l 285 868 l 285 499 l 517 499 l 517 450 z "},"Ḍ":{"ha":993,"x_min":90,"x_max":896,"o":"m 90 0 l 90 35 l 201 58 l 201 858 l 90 882 l 90 917 l 414 917 q 675 863 567 917 q 840 714 783 808 q 896 500 896 619 q 835 234 896 346 q 665 61 775 122 q 404 0 556 0 l 90 0 m 424 868 l 285 868 l 285 49 l 431 49 q 628 101 544 49 q 759 244 713 153 q 806 457 806 336 q 761 674 806 581 q 631 817 717 767 q 424 868 546 868 z "},"Ḏ":{"ha":993,"x_min":90,"x_max":896,"o":"m 90 0 l 90 35 l 201 58 l 201 858 l 90 882 l 90 917 l 414 917 q 675 863 567 917 q 840 714 783 808 q 896 500 896 619 q 835 234 896 346 q 665 61 775 122 q 404 0 556 0 l 90 0 m 424 868 l 285 868 l 285 49 l 431 49 q 628 101 544 49 q 759 244 713 153 q 806 457 806 336 q 761 674 806 581 q 631 817 717 767 q 424 868 546 868 z "},"È":{"ha":849,"x_min":90,"x_max":751,"o":"m 90 0 l 90 35 l 199 58 l 199 858 l 90 882 l 90 917 l 713 917 l 713 692 l 685 692 l 626 868 l 282 868 l 282 497 l 535 497 l 569 613 l 597 613 l 597 336 l 569 336 l 535 449 l 282 449 l 282 49 l 665 49 l 724 239 l 751 239 l 751 0 l 90 0 m 446 986 l 317 1110 q 280 1156 289 1136 q 271 1197 271 1176 l 336 1197 l 465 986 l 446 986 z "},"É":{"ha":849,"x_min":90,"x_max":751,"o":"m 90 0 l 90 35 l 199 58 l 199 858 l 90 882 l 90 917 l 713 917 l 713 692 l 685 692 l 626 868 l 282 868 l 282 497 l 535 497 l 569 613 l 597 613 l 597 336 l 569 336 l 535 449 l 282 449 l 282 49 l 665 49 l 724 239 l 751 239 l 751 0 l 90 0 m 446 986 l 576 1197 l 642 1197 q 633 1156 642 1176 q 596 1110 624 1136 l 465 986 l 446 986 z "},"Ê":{"ha":849,"x_min":90,"x_max":751,"o":"m 90 0 l 90 35 l 199 58 l 199 858 l 90 882 l 90 917 l 713 917 l 713 692 l 685 692 l 626 868 l 282 868 l 282 497 l 535 497 l 569 613 l 597 613 l 597 336 l 569 336 l 535 449 l 282 449 l 282 49 l 665 49 l 724 239 l 751 239 l 751 0 l 90 0 m 267 986 l 440 1197 l 471 1197 l 644 986 l 625 986 l 456 1128 l 286 986 l 267 986 z "},"Ě":{"ha":849,"x_min":90,"x_max":751,"o":"m 90 0 l 90 35 l 199 58 l 199 858 l 90 882 l 90 917 l 713 917 l 713 692 l 685 692 l 626 868 l 282 868 l 282 497 l 535 497 l 569 613 l 597 613 l 597 336 l 569 336 l 535 449 l 282 449 l 282 49 l 665 49 l 724 239 l 751 239 l 751 0 l 90 0 m 440 986 l 267 1197 l 286 1197 l 456 1056 l 625 1197 l 644 1197 l 471 986 l 440 986 z "},"Ẽ":{"ha":849,"x_min":90,"x_max":751,"o":"m 90 0 l 90 35 l 199 58 l 199 858 l 90 882 l 90 917 l 713 917 l 713 692 l 685 692 l 626 868 l 282 868 l 282 497 l 535 497 l 569 613 l 597 613 l 597 336 l 569 336 l 535 449 l 282 449 l 282 49 l 665 49 l 724 239 l 751 239 l 751 0 l 90 0 m 261 1014 q 316 1141 289 1110 q 378 1172 343 1172 q 425 1156 403 1172 q 467 1119 447 1140 q 506 1083 486 1099 q 544 1067 525 1067 q 591 1092 571 1067 q 633 1172 611 1117 l 650 1172 q 595 1044 622 1075 q 533 1014 568 1014 q 486 1030 508 1014 q 444 1067 464 1046 q 406 1103 425 1088 q 367 1119 386 1119 q 320 1094 340 1119 q 278 1014 300 1069 l 261 1014 z "},"Ë":{"ha":849,"x_min":90,"x_max":751,"o":"m 90 0 l 90 35 l 199 58 l 199 858 l 90 882 l 90 917 l 713 917 l 713 692 l 685 692 l 626 868 l 282 868 l 282 497 l 535 497 l 569 613 l 597 613 l 597 336 l 569 336 l 535 449 l 282 449 l 282 49 l 665 49 l 724 239 l 751 239 l 751 0 l 90 0 m 325 1036 q 285 1053 301 1036 q 268 1093 268 1069 q 285 1133 268 1117 q 325 1150 301 1150 q 365 1133 349 1150 q 382 1093 382 1117 q 365 1053 382 1069 q 325 1036 349 1036 m 586 1036 q 546 1053 563 1036 q 529 1093 529 1069 q 546 1133 529 1117 q 586 1150 563 1150 q 626 1133 610 1150 q 643 1093 643 1117 q 626 1053 643 1069 q 586 1036 610 1036 z "},"Ē":{"ha":849,"x_min":90,"x_max":751,"o":"m 90 0 l 90 35 l 199 58 l 199 858 l 90 882 l 90 917 l 713 917 l 713 692 l 685 692 l 626 868 l 282 868 l 282 497 l 535 497 l 569 613 l 597 613 l 597 336 l 569 336 l 535 449 l 282 449 l 282 49 l 665 49 l 724 239 l 751 239 l 751 0 l 90 0 m 279 1068 l 279 1118 l 632 1118 l 632 1068 l 279 1068 z "},"Ĕ":{"ha":849,"x_min":90,"x_max":751,"o":"m 90 0 l 90 35 l 199 58 l 199 858 l 90 882 l 90 917 l 713 917 l 713 692 l 685 692 l 626 868 l 282 868 l 282 497 l 535 497 l 569 613 l 597 613 l 597 336 l 569 336 l 535 449 l 282 449 l 282 49 l 665 49 l 724 239 l 751 239 l 751 0 l 90 0 m 456 986 q 334 1039 374 986 q 267 1197 294 1092 l 285 1197 q 332 1101 306 1133 q 389 1058 358 1069 q 456 1046 419 1046 q 522 1058 492 1046 q 579 1101 553 1069 q 626 1197 606 1133 l 644 1197 q 577 1039 617 1092 q 456 986 538 986 z "},"Ė":{"ha":849,"x_min":90,"x_max":751,"o":"m 90 0 l 90 35 l 199 58 l 199 858 l 90 882 l 90 917 l 713 917 l 713 692 l 685 692 l 626 868 l 282 868 l 282 497 l 535 497 l 569 613 l 597 613 l 597 336 l 569 336 l 535 449 l 282 449 l 282 49 l 665 49 l 724 239 l 751 239 l 751 0 l 90 0 m 456 1044 q 418 1060 433 1044 q 403 1097 403 1075 q 418 1135 403 1119 q 456 1150 433 1150 q 493 1135 478 1150 q 508 1097 508 1119 q 493 1060 508 1075 q 456 1044 478 1044 z "},"Ę":{"ha":849,"x_min":90,"x_max":751,"o":"m 90 0 l 90 35 l 199 58 l 199 858 l 90 882 l 90 917 l 713 917 l 713 692 l 685 692 l 626 868 l 282 868 l 282 497 l 535 497 l 569 613 l 597 613 l 597 336 l 569 336 l 535 449 l 282 449 l 282 49 l 665 49 l 724 239 l 751 239 l 751 0 l 675 0 q 599 -106 625 -56 q 574 -207 574 -157 q 597 -278 574 -256 q 663 -300 621 -300 q 706 -293 685 -300 q 746 -271 726 -286 l 750 -271 l 750 -289 q 708 -321 736 -308 q 644 -333 681 -333 q 557 -305 592 -333 q 522 -221 522 -276 q 556 -107 522 -161 q 647 0 589 -53 l 90 0 z "},"Ẹ":{"ha":849,"x_min":90,"x_max":751,"o":"m 90 0 l 90 35 l 199 58 l 199 858 l 90 882 l 90 917 l 713 917 l 713 692 l 685 692 l 626 868 l 282 868 l 282 497 l 535 497 l 569 613 l 597 613 l 597 336 l 569 336 l 535 449 l 282 449 l 282 49 l 665 49 l 724 239 l 751 239 l 751 0 l 90 0 z "},"Ȅ":{"ha":849,"x_min":90,"x_max":751,"o":"m 90 0 l 90 35 l 199 58 l 199 858 l 90 882 l 90 917 l 713 917 l 713 692 l 685 692 l 626 868 l 282 868 l 282 497 l 535 497 l 569 613 l 597 613 l 597 336 l 569 336 l 535 449 l 282 449 l 282 49 l 665 49 l 724 239 l 751 239 l 751 0 l 90 0 m 368 986 l 268 1110 q 247 1156 249 1135 q 251 1197 244 1176 l 304 1197 l 388 986 l 368 986 m 524 986 l 424 1110 q 402 1156 404 1135 q 407 1197 400 1176 l 460 1197 l 543 986 l 524 986 z "},"Ȇ":{"ha":849,"x_min":90,"x_max":751,"o":"m 90 0 l 90 35 l 199 58 l 199 858 l 90 882 l 90 917 l 713 917 l 713 692 l 685 692 l 626 868 l 282 868 l 282 497 l 535 497 l 569 613 l 597 613 l 597 336 l 569 336 l 535 449 l 282 449 l 282 49 l 665 49 l 724 239 l 751 239 l 751 0 l 90 0 m 267 986 q 334 1144 294 1092 q 456 1197 374 1197 q 577 1144 538 1197 q 644 986 617 1092 l 626 986 q 579 1082 606 1050 q 522 1126 553 1114 q 456 1138 492 1138 q 389 1126 419 1138 q 332 1082 358 1114 q 285 986 306 1050 l 267 986 z "},"Ế":{"ha":849,"x_min":90,"x_max":754,"o":"m 90 0 l 90 35 l 199 58 l 199 858 l 90 882 l 90 917 l 713 917 l 713 692 l 685 692 l 626 868 l 282 868 l 282 497 l 535 497 l 569 613 l 597 613 l 597 336 l 569 336 l 535 449 l 282 449 l 282 49 l 665 49 l 724 239 l 751 239 l 751 0 l 90 0 m 613 1118 l 689 1317 l 754 1317 q 744 1281 754 1297 q 714 1238 735 1264 l 624 1118 l 613 1118 m 267 986 l 440 1197 l 471 1197 l 644 986 l 625 986 l 456 1128 l 286 986 l 267 986 z "},"Ệ":{"ha":849,"x_min":90,"x_max":751,"o":"m 90 0 l 90 35 l 199 58 l 199 858 l 90 882 l 90 917 l 713 917 l 713 692 l 685 692 l 626 868 l 282 868 l 282 497 l 535 497 l 569 613 l 597 613 l 597 336 l 569 336 l 535 449 l 282 449 l 282 49 l 665 49 l 724 239 l 751 239 l 751 0 l 90 0 m 267 986 l 440 1197 l 471 1197 l 644 986 l 625 986 l 456 1128 l 286 986 l 267 986 z "},"Ề":{"ha":849,"x_min":90,"x_max":751,"o":"m 90 0 l 90 35 l 199 58 l 199 858 l 90 882 l 90 917 l 713 917 l 713 692 l 685 692 l 626 868 l 282 868 l 282 497 l 535 497 l 569 613 l 597 613 l 597 336 l 569 336 l 535 449 l 282 449 l 282 49 l 665 49 l 724 239 l 751 239 l 751 0 l 90 0 m 288 1118 l 197 1238 q 167 1281 176 1264 q 157 1317 157 1297 l 222 1317 l 299 1118 l 288 1118 m 267 986 l 440 1197 l 471 1197 l 644 986 l 625 986 l 456 1128 l 286 986 l 267 986 z "},"Ể":{"ha":849,"x_min":90,"x_max":751,"o":"m 90 0 l 90 35 l 199 58 l 199 858 l 90 882 l 90 917 l 713 917 l 713 692 l 685 692 l 626 868 l 282 868 l 282 497 l 535 497 l 569 613 l 597 613 l 597 336 l 569 336 l 535 449 l 282 449 l 282 49 l 665 49 l 724 239 l 751 239 l 751 0 l 90 0 z "},"Ễ":{"ha":849,"x_min":90,"x_max":751,"o":"m 90 0 l 90 35 l 199 58 l 199 858 l 90 882 l 90 917 l 713 917 l 713 692 l 685 692 l 626 868 l 282 868 l 282 497 l 535 497 l 569 613 l 597 613 l 597 336 l 569 336 l 535 449 l 282 449 l 282 49 l 665 49 l 724 239 l 751 239 l 751 0 l 90 0 z "},"Ẻ":{"ha":849,"x_min":90,"x_max":751,"o":"m 90 0 l 90 35 l 199 58 l 199 858 l 90 882 l 90 917 l 713 917 l 713 692 l 685 692 l 626 868 l 282 868 l 282 497 l 535 497 l 569 613 l 597 613 l 597 336 l 569 336 l 535 449 l 282 449 l 282 49 l 665 49 l 724 239 l 751 239 l 751 0 l 90 0 m 390 985 l 390 986 q 479 1022 447 1001 q 511 1076 511 1043 q 483 1134 511 1111 q 385 1167 456 1157 l 393 1215 q 522 1172 486 1207 q 558 1099 558 1136 q 518 1019 558 1046 q 400 975 478 993 l 390 985 z "},"Ḕ":{"ha":849,"x_min":90,"x_max":751,"o":"m 90 0 l 90 35 l 199 58 l 199 858 l 90 882 l 90 917 l 713 917 l 713 692 l 685 692 l 626 868 l 282 868 l 282 497 l 535 497 l 569 613 l 597 613 l 597 336 l 569 336 l 535 449 l 282 449 l 282 49 l 665 49 l 724 239 l 751 239 l 751 0 l 90 0 z "},"Ḗ":{"ha":849,"x_min":90,"x_max":751,"o":"m 90 0 l 90 35 l 199 58 l 199 858 l 90 882 l 90 917 l 713 917 l 713 692 l 685 692 l 626 868 l 282 868 l 282 497 l 535 497 l 569 613 l 597 613 l 597 336 l 569 336 l 535 449 l 282 449 l 282 49 l 665 49 l 724 239 l 751 239 l 751 0 l 90 0 z "},"Ḝ":{"ha":849,"x_min":90,"x_max":751,"o":"m 456 986 q 334 1039 374 986 q 267 1197 294 1092 l 285 1197 q 332 1101 306 1133 q 389 1058 358 1069 q 456 1046 419 1046 q 522 1058 492 1046 q 579 1101 553 1069 q 626 1197 606 1133 l 644 1197 q 577 1039 617 1092 q 456 986 538 986 m 90 0 l 90 35 l 199 58 l 199 858 l 90 882 l 90 917 l 713 917 l 713 692 l 685 692 l 626 868 l 282 868 l 282 497 l 535 497 l 569 613 l 597 613 l 597 336 l 569 336 l 535 449 l 282 449 l 282 49 l 665 49 l 724 239 l 751 239 l 751 0 l 474 0 l 418 -89 q 529 -138 482 -107 q 576 -224 576 -169 q 543 -303 576 -272 q 451 -333 510 -333 q 398 -324 424 -333 q 357 -303 372 -315 l 357 -285 l 361 -285 q 447 -307 401 -307 q 533 -237 533 -307 q 489 -168 533 -193 q 368 -122 444 -143 l 444 0 l 90 0 z "},"Ĝ":{"ha":1038,"x_min":97,"x_max":968,"o":"m 560 -14 q 322 44 426 -14 q 157 203 217 103 q 97 433 97 304 q 135 631 97 540 q 238 788 172 721 q 390 893 304 856 q 575 931 476 931 q 699 922 647 931 q 790 897 750 913 q 871 863 831 882 l 878 647 l 849 647 l 793 807 q 683 869 735 850 q 567 888 631 888 q 358 832 447 888 q 222 685 269 776 q 174 489 174 594 q 228 249 174 350 q 374 94 283 149 q 574 40 465 40 q 674 47 625 40 q 776 75 724 53 l 776 340 l 656 368 l 656 403 l 968 403 l 968 368 l 860 344 l 860 89 q 721 14 803 42 q 560 -14 639 -14 m 388 986 l 561 1197 l 592 1197 l 765 986 l 746 986 l 576 1128 l 407 986 l 388 986 z "},"Ğ":{"ha":1038,"x_min":97,"x_max":968,"o":"m 560 -14 q 322 44 426 -14 q 157 203 217 103 q 97 433 97 304 q 135 631 97 540 q 238 788 172 721 q 390 893 304 856 q 575 931 476 931 q 699 922 647 931 q 790 897 750 913 q 871 863 831 882 l 878 647 l 849 647 l 793 807 q 683 869 735 850 q 567 888 631 888 q 358 832 447 888 q 222 685 269 776 q 174 489 174 594 q 228 249 174 350 q 374 94 283 149 q 574 40 465 40 q 674 47 625 40 q 776 75 724 53 l 776 340 l 656 368 l 656 403 l 968 403 l 968 368 l 860 344 l 860 89 q 721 14 803 42 q 560 -14 639 -14 m 576 986 q 455 1039 494 986 q 388 1197 415 1092 l 406 1197 q 453 1101 426 1133 q 510 1058 479 1069 q 576 1046 540 1046 q 643 1058 613 1046 q 700 1101 674 1069 q 747 1197 726 1133 l 765 1197 q 698 1039 738 1092 q 576 986 658 986 z "},"Ġ":{"ha":1038,"x_min":97,"x_max":968,"o":"m 560 -14 q 322 44 426 -14 q 157 203 217 103 q 97 433 97 304 q 135 631 97 540 q 238 788 172 721 q 390 893 304 856 q 575 931 476 931 q 699 922 647 931 q 790 897 750 913 q 871 863 831 882 l 878 647 l 849 647 l 793 807 q 683 869 735 850 q 567 888 631 888 q 358 832 447 888 q 222 685 269 776 q 174 489 174 594 q 228 249 174 350 q 374 94 283 149 q 574 40 465 40 q 674 47 625 40 q 776 75 724 53 l 776 340 l 656 368 l 656 403 l 968 403 l 968 368 l 860 344 l 860 89 q 721 14 803 42 q 560 -14 639 -14 m 576 1044 q 539 1060 554 1044 q 524 1097 524 1075 q 539 1135 524 1119 q 576 1150 554 1150 q 614 1135 599 1150 q 629 1097 629 1119 q 614 1060 629 1075 q 576 1044 599 1044 z "},"Ģ":{"ha":1038,"x_min":97,"x_max":968,"o":"m 560 -14 q 322 44 426 -14 q 157 203 217 103 q 97 433 97 304 q 135 631 97 540 q 238 788 172 721 q 390 893 304 856 q 575 931 476 931 q 699 922 647 931 q 790 897 750 913 q 871 863 831 882 l 878 647 l 849 647 l 793 807 q 683 869 735 850 q 567 888 631 888 q 358 832 447 888 q 222 685 269 776 q 174 489 174 594 q 228 249 174 350 q 374 94 283 149 q 574 40 465 40 q 674 47 625 40 q 776 75 724 53 l 776 340 l 656 368 l 656 403 l 968 403 l 968 368 l 860 344 l 860 89 q 721 14 803 42 q 560 -14 639 -14 m 624 986 q 513 1014 551 986 q 474 1090 474 1042 q 515 1164 474 1138 q 619 1190 556 1190 q 643 1190 629 1190 q 667 1186 657 1189 l 667 1169 q 644 1173 657 1172 q 622 1174 631 1174 q 547 1154 571 1174 q 522 1103 522 1135 q 554 1047 522 1064 q 668 1029 586 1029 l 668 1007 q 660 992 668 997 q 624 986 653 986 z "},"Ǧ":{"ha":1038,"x_min":97,"x_max":968,"o":"m 560 -14 q 322 44 426 -14 q 157 203 217 103 q 97 433 97 304 q 135 631 97 540 q 238 788 172 721 q 390 893 304 856 q 575 931 476 931 q 699 922 647 931 q 790 897 750 913 q 871 863 831 882 l 878 647 l 849 647 l 793 807 q 683 869 735 850 q 567 888 631 888 q 358 832 447 888 q 222 685 269 776 q 174 489 174 594 q 228 249 174 350 q 374 94 283 149 q 574 40 465 40 q 674 47 625 40 q 776 75 724 53 l 776 340 l 656 368 l 656 403 l 968 403 l 968 368 l 860 344 l 860 89 q 721 14 803 42 q 560 -14 639 -14 m 561 986 l 388 1197 l 407 1197 l 576 1056 l 746 1197 l 765 1197 l 592 986 l 561 986 z "},"Ḡ":{"ha":1038,"x_min":97,"x_max":968,"o":"m 560 -14 q 322 44 426 -14 q 157 203 217 103 q 97 433 97 304 q 135 631 97 540 q 238 788 172 721 q 390 893 304 856 q 575 931 476 931 q 699 922 647 931 q 790 897 750 913 q 871 863 831 882 l 878 647 l 849 647 l 793 807 q 683 869 735 850 q 567 888 631 888 q 358 832 447 888 q 222 685 269 776 q 174 489 174 594 q 228 249 174 350 q 374 94 283 149 q 574 40 465 40 q 674 47 625 40 q 776 75 724 53 l 776 340 l 656 368 l 656 403 l 968 403 l 968 368 l 860 344 l 860 89 q 721 14 803 42 q 560 -14 639 -14 m 400 1068 l 400 1118 l 753 1118 l 753 1068 l 400 1068 z "},"Ĥ":{"ha":1089,"x_min":90,"x_max":999,"o":"m 90 0 l 90 35 l 199 58 l 199 858 l 90 882 l 90 917 l 401 917 l 401 882 l 282 858 l 282 497 l 807 497 l 807 858 l 688 882 l 688 917 l 999 917 l 999 882 l 890 858 l 890 58 l 999 35 l 999 0 l 688 0 l 688 35 l 807 58 l 807 449 l 282 449 l 282 58 l 401 35 l 401 0 l 90 0 m 356 986 l 529 1197 l 560 1197 l 733 986 l 714 986 l 544 1128 l 375 986 l 356 986 z "},"Ħ":{"ha":1089,"x_min":90,"x_max":999,"o":"m 90 0 l 90 35 l 199 58 l 199 663 l 90 663 l 90 711 l 199 711 l 199 858 l 90 882 l 90 917 l 401 917 l 401 882 l 282 858 l 282 711 l 807 711 l 807 858 l 688 882 l 688 917 l 999 917 l 999 882 l 890 858 l 890 711 l 999 711 l 999 663 l 890 663 l 890 58 l 999 35 l 999 0 l 688 0 l 688 35 l 807 58 l 807 449 l 282 449 l 282 58 l 401 35 l 401 0 l 90 0 m 282 497 l 807 497 l 807 663 l 282 663 l 282 497 z "},"Ḥ":{"ha":1089,"x_min":90,"x_max":999,"o":"m 90 0 l 90 35 l 199 58 l 199 858 l 90 882 l 90 917 l 401 917 l 401 882 l 282 858 l 282 497 l 807 497 l 807 858 l 688 882 l 688 917 l 999 917 l 999 882 l 890 858 l 890 58 l 999 35 l 999 0 l 688 0 l 688 35 l 807 58 l 807 449 l 282 449 l 282 58 l 401 35 l 401 0 l 90 0 z "},"Ḫ":{"ha":1089,"x_min":90,"x_max":999,"o":"m 90 0 l 90 35 l 199 58 l 199 858 l 90 882 l 90 917 l 401 917 l 401 882 l 282 858 l 282 497 l 807 497 l 807 858 l 688 882 l 688 917 l 999 917 l 999 882 l 890 858 l 890 58 l 999 35 l 999 0 l 688 0 l 688 35 l 807 58 l 807 449 l 282 449 l 282 58 l 401 35 l 401 0 l 90 0 z "},"Ì":{"ha":494,"x_min":63,"x_max":397,"o":"m 97 0 l 97 35 l 206 58 l 206 858 l 97 882 l 97 917 l 397 917 l 397 882 l 289 858 l 289 58 l 397 35 l 397 0 l 97 0 m 238 986 l 108 1110 q 72 1156 81 1136 q 63 1197 63 1176 l 128 1197 l 257 986 l 238 986 z "},"Í":{"ha":494,"x_min":97,"x_max":433,"o":"m 97 0 l 97 35 l 206 58 l 206 858 l 97 882 l 97 917 l 397 917 l 397 882 l 289 858 l 289 58 l 397 35 l 397 0 l 97 0 m 238 986 l 368 1197 l 433 1197 q 424 1156 433 1176 q 388 1110 415 1136 l 257 986 l 238 986 z "},"Î":{"ha":494,"x_min":58,"x_max":436,"o":"m 97 0 l 97 35 l 206 58 l 206 858 l 97 882 l 97 917 l 397 917 l 397 882 l 289 858 l 289 58 l 397 35 l 397 0 l 97 0 m 58 986 l 232 1197 l 263 1197 l 436 986 l 417 986 l 247 1128 l 78 986 l 58 986 z "},"Ĩ":{"ha":494,"x_min":53,"x_max":442,"o":"m 97 0 l 97 35 l 206 58 l 206 858 l 97 882 l 97 917 l 397 917 l 397 882 l 289 858 l 289 58 l 397 35 l 397 0 l 97 0 m 53 1014 q 108 1141 81 1110 q 169 1172 135 1172 q 217 1156 194 1172 q 258 1119 239 1140 q 297 1083 278 1099 q 336 1067 317 1067 q 383 1092 363 1067 q 425 1172 403 1117 l 442 1172 q 387 1044 414 1075 q 325 1014 360 1014 q 278 1030 300 1014 q 236 1067 256 1046 q 197 1103 217 1088 q 158 1119 178 1119 q 112 1094 132 1119 q 69 1014 92 1069 l 53 1014 z "},"Ï":{"ha":494,"x_min":60,"x_max":435,"o":"m 97 0 l 97 35 l 206 58 l 206 858 l 97 882 l 97 917 l 397 917 l 397 882 l 289 858 l 289 58 l 397 35 l 397 0 l 97 0 m 117 1036 q 76 1053 93 1036 q 60 1093 60 1069 q 76 1133 60 1117 q 117 1150 93 1150 q 157 1133 140 1150 q 174 1093 174 1117 q 157 1053 174 1069 q 117 1036 140 1036 m 378 1036 q 338 1053 354 1036 q 321 1093 321 1069 q 338 1133 321 1117 q 378 1150 354 1150 q 418 1133 401 1150 q 435 1093 435 1117 q 418 1053 435 1069 q 378 1036 401 1036 z "},"Ī":{"ha":494,"x_min":71,"x_max":424,"o":"m 97 0 l 97 35 l 206 58 l 206 858 l 97 882 l 97 917 l 397 917 l 397 882 l 289 858 l 289 58 l 397 35 l 397 0 l 97 0 m 71 1068 l 71 1118 l 424 1118 l 424 1068 l 71 1068 z "},"Ĭ":{"ha":494,"x_min":58,"x_max":436,"o":"m 97 0 l 97 35 l 206 58 l 206 858 l 97 882 l 97 917 l 397 917 l 397 882 l 289 858 l 289 58 l 397 35 l 397 0 l 97 0 m 247 986 q 126 1039 165 986 q 58 1197 86 1092 l 76 1197 q 124 1101 97 1133 q 181 1058 150 1069 q 247 1046 211 1046 q 314 1058 283 1046 q 371 1101 344 1069 q 418 1197 397 1133 l 436 1197 q 369 1039 408 1092 q 247 986 329 986 z "},"İ":{"ha":494,"x_min":97,"x_max":397,"o":"m 97 0 l 97 35 l 206 58 l 206 858 l 97 882 l 97 917 l 397 917 l 397 882 l 289 858 l 289 58 l 397 35 l 397 0 l 97 0 m 247 1044 q 210 1060 225 1044 q 194 1097 194 1075 q 210 1135 194 1119 q 247 1150 225 1150 q 285 1135 269 1150 q 300 1097 300 1119 q 285 1060 300 1075 q 247 1044 269 1044 z "},"Į":{"ha":494,"x_min":97,"x_max":397,"o":"m 97 0 l 97 35 l 206 58 l 206 858 l 97 882 l 97 917 l 397 917 l 397 882 l 289 858 l 289 58 l 397 35 l 397 0 l 261 0 q 185 -106 211 -56 q 160 -207 160 -157 q 183 -278 160 -256 q 249 -300 207 -300 q 292 -293 271 -300 q 332 -271 313 -286 l 336 -271 l 336 -289 q 294 -321 322 -308 q 231 -333 267 -333 q 143 -305 178 -333 q 108 -221 108 -276 q 142 -107 108 -161 q 233 0 175 -53 l 97 0 z "},"Ị":{"ha":494,"x_min":97,"x_max":397,"o":"m 97 0 l 97 35 l 206 58 l 206 858 l 97 882 l 97 917 l 397 917 l 397 882 l 289 858 l 289 58 l 397 35 l 397 0 l 97 0 z "},"Ȉ":{"ha":494,"x_min":36,"x_max":397,"o":"m 97 0 l 97 35 l 206 58 l 206 858 l 97 882 l 97 917 l 397 917 l 397 882 l 289 858 l 289 58 l 397 35 l 397 0 l 97 0 m 160 986 l 60 1110 q 38 1156 40 1135 q 43 1197 36 1176 l 96 1197 l 179 986 l 160 986 m 315 986 l 215 1110 q 194 1156 196 1135 q 199 1197 192 1176 l 251 1197 l 335 986 l 315 986 z "},"Ȋ":{"ha":494,"x_min":58,"x_max":436,"o":"m 97 0 l 97 35 l 206 58 l 206 858 l 97 882 l 97 917 l 397 917 l 397 882 l 289 858 l 289 58 l 397 35 l 397 0 l 97 0 m 58 986 q 126 1144 86 1092 q 247 1197 165 1197 q 369 1144 329 1197 q 436 986 408 1092 l 418 986 q 371 1082 397 1050 q 314 1126 344 1114 q 247 1138 283 1138 q 181 1126 211 1138 q 124 1082 150 1114 q 76 986 97 1050 l 58 986 z "},"Ỉ":{"ha":494,"x_min":97,"x_max":397,"o":"m 97 0 l 97 35 l 206 58 l 206 858 l 97 882 l 97 917 l 397 917 l 397 882 l 289 858 l 289 58 l 397 35 l 397 0 l 97 0 m 182 985 l 182 986 q 271 1022 239 1001 q 303 1076 303 1043 q 275 1134 303 1111 q 176 1167 247 1157 l 185 1215 q 314 1172 278 1207 q 350 1099 350 1136 q 310 1019 350 1046 q 192 975 269 993 l 182 985 z "},"Ḯ":{"ha":494,"x_min":60,"x_max":435,"o":"m 97 0 l 97 35 l 206 58 l 206 858 l 97 882 l 97 917 l 397 917 l 397 882 l 289 858 l 289 58 l 397 35 l 397 0 l 97 0 z "},"Ĳ":{"ha":994,"x_min":97,"x_max":897,"o":"m 97 0 l 97 35 l 206 58 l 206 858 l 97 882 l 97 917 l 397 917 l 397 882 l 289 858 l 289 58 l 397 35 l 397 0 l 97 0 m 558 -240 q 526 -232 540 -240 q 513 -201 513 -224 q 516 -184 513 -199 q 525 -137 519 -169 l 533 -137 q 572 -147 557 -144 q 604 -150 586 -150 q 656 -133 633 -150 q 690 -69 678 -117 q 703 71 703 -22 l 703 858 l 592 882 l 592 917 l 897 917 l 897 882 l 786 858 l 786 292 q 768 13 786 119 q 697 -150 750 -94 q 638 -210 660 -190 q 600 -235 617 -229 q 558 -240 583 -240 z "},"Ĵ":{"ha":500,"x_min":18,"x_max":439,"o":"m 64 -240 q 32 -232 46 -240 q 18 -201 18 -224 q 22 -184 18 -199 q 31 -137 25 -169 l 39 -137 q 77 -147 63 -144 q 110 -150 92 -150 q 161 -133 139 -150 q 196 -69 183 -117 q 208 71 208 -22 l 208 858 l 97 882 l 97 917 l 403 917 l 403 882 l 292 858 l 292 292 q 274 13 292 119 q 203 -150 256 -94 q 144 -210 165 -190 q 106 -235 122 -229 q 64 -240 89 -240 m 61 986 l 235 1197 l 265 1197 l 439 986 l 419 986 l 250 1128 l 81 986 l 61 986 z "},"Ķ":{"ha":976,"x_min":90,"x_max":928,"o":"m 90 0 l 90 35 l 201 58 l 201 858 l 90 882 l 90 917 l 396 917 l 396 882 l 285 858 l 285 476 l 688 856 l 581 882 l 581 917 l 856 917 l 856 882 l 774 865 l 364 494 l 835 51 l 928 35 l 928 0 l 769 0 l 285 463 l 285 58 l 396 35 l 396 0 l 90 0 m 446 -332 q 422 -331 436 -332 q 399 -328 408 -331 l 399 -311 q 422 -315 408 -314 q 443 -315 435 -315 q 519 -296 494 -315 q 543 -244 543 -276 q 511 -188 543 -206 q 397 -171 479 -171 l 397 -149 q 405 -133 397 -139 q 442 -128 413 -128 q 553 -156 514 -128 q 592 -232 592 -183 q 551 -306 592 -279 q 446 -332 510 -332 z "},"Ĺ":{"ha":849,"x_min":90,"x_max":751,"o":"m 90 0 l 90 35 l 199 58 l 199 858 l 90 882 l 90 917 l 407 917 l 407 882 l 282 858 l 282 49 l 658 49 l 724 294 l 751 294 l 751 0 l 90 0 m 232 986 l 363 1197 l 428 1197 q 419 1156 428 1176 q 382 1110 410 1136 l 251 986 l 232 986 z "},"Ľ":{"ha":849,"x_min":90,"x_max":751,"o":"m 90 0 l 90 35 l 199 58 l 199 858 l 90 882 l 90 917 l 407 917 l 407 882 l 282 858 l 282 49 l 658 49 l 724 294 l 751 294 l 751 0 l 90 0 m 567 657 l 610 917 l 674 917 q 658 826 682 882 l 586 657 l 567 657 z "},"Ļ":{"ha":849,"x_min":90,"x_max":751,"o":"m 90 0 l 90 35 l 199 58 l 199 858 l 90 882 l 90 917 l 407 917 l 407 882 l 282 858 l 282 49 l 658 49 l 724 294 l 751 294 l 751 0 l 90 0 m 397 -332 q 374 -331 388 -332 q 350 -328 360 -331 l 350 -311 q 373 -315 360 -314 q 394 -315 386 -315 q 470 -296 446 -315 q 494 -244 494 -276 q 463 -188 494 -206 q 349 -171 431 -171 l 349 -149 q 356 -133 349 -139 q 393 -128 364 -128 q 504 -156 465 -128 q 543 -232 543 -183 q 502 -306 543 -279 q 397 -332 461 -332 z "},"Ł":{"ha":849,"x_min":90,"x_max":751,"o":"m 90 0 l 90 35 l 199 58 l 199 389 l 90 315 l 90 376 l 199 451 l 199 858 l 90 882 l 90 917 l 407 917 l 407 882 l 282 858 l 282 497 l 492 639 l 492 578 l 282 435 l 282 49 l 658 49 l 724 294 l 751 294 l 751 0 l 90 0 z "},"Ŀ":{"ha":849,"x_min":90,"x_max":751,"o":"m 90 0 l 90 35 l 199 58 l 199 858 l 90 882 l 90 917 l 407 917 l 407 882 l 282 858 l 282 49 l 658 49 l 724 294 l 751 294 l 751 0 l 90 0 m 665 419 q 628 435 643 419 q 613 472 613 450 q 628 510 613 494 q 665 525 643 525 q 703 510 688 525 q 718 472 718 494 q 703 435 718 450 q 665 419 688 419 z "},"Ḷ":{"ha":849,"x_min":90,"x_max":751,"o":"m 90 0 l 90 35 l 199 58 l 199 858 l 90 882 l 90 917 l 407 917 l 407 882 l 282 858 l 282 49 l 658 49 l 724 294 l 751 294 l 751 0 l 90 0 z "},"Ḻ":{"ha":849,"x_min":90,"x_max":751,"o":"m 90 0 l 90 35 l 199 58 l 199 858 l 90 882 l 90 917 l 407 917 l 407 882 l 282 858 l 282 49 l 658 49 l 724 294 l 751 294 l 751 0 l 90 0 z "},"Ṃ":{"ha":1299,"x_min":83,"x_max":1215,"o":"m 83 0 l 83 35 l 193 58 l 222 853 l 103 882 l 103 917 l 318 917 l 656 126 l 1000 917 l 1211 917 l 1211 882 l 1094 854 l 1118 58 l 1215 35 l 1215 0 l 929 0 l 929 35 l 1032 57 l 1017 824 l 653 -7 l 624 -7 l 271 829 l 254 57 l 367 35 l 367 0 l 83 0 z "},"Ń":{"ha":1089,"x_min":90,"x_max":999,"o":"m 90 0 l 90 35 l 199 58 l 199 858 l 90 882 l 90 917 l 272 917 l 838 150 l 838 858 l 718 882 l 718 917 l 999 917 l 999 882 l 890 858 l 890 -7 l 860 -7 l 254 800 l 254 63 l 381 35 l 381 0 l 90 0 m 535 986 l 665 1197 l 731 1197 q 722 1156 731 1176 q 685 1110 713 1136 l 554 986 l 535 986 z "},"Ň":{"ha":1089,"x_min":90,"x_max":999,"o":"m 90 0 l 90 35 l 199 58 l 199 858 l 90 882 l 90 917 l 272 917 l 838 150 l 838 858 l 718 882 l 718 917 l 999 917 l 999 882 l 890 858 l 890 -7 l 860 -7 l 254 800 l 254 63 l 381 35 l 381 0 l 90 0 m 529 986 l 356 1197 l 375 1197 l 544 1056 l 714 1197 l 733 1197 l 560 986 l 529 986 z "},"Ñ":{"ha":1089,"x_min":90,"x_max":999,"o":"m 90 0 l 90 35 l 199 58 l 199 858 l 90 882 l 90 917 l 272 917 l 838 150 l 838 858 l 718 882 l 718 917 l 999 917 l 999 882 l 890 858 l 890 -7 l 860 -7 l 254 800 l 254 63 l 381 35 l 381 0 l 90 0 m 350 1014 q 405 1141 378 1110 q 467 1172 432 1172 q 514 1156 492 1172 q 556 1119 536 1140 q 594 1083 575 1099 q 633 1067 614 1067 q 680 1092 660 1067 q 722 1172 700 1117 l 739 1172 q 684 1044 711 1075 q 622 1014 657 1014 q 575 1030 597 1014 q 533 1067 553 1046 q 494 1103 514 1088 q 456 1119 475 1119 q 409 1094 429 1119 q 367 1014 389 1069 l 350 1014 z "},"Ņ":{"ha":1089,"x_min":90,"x_max":999,"o":"m 90 0 l 90 35 l 199 58 l 199 858 l 90 882 l 90 917 l 272 917 l 838 150 l 838 858 l 718 882 l 718 917 l 999 917 l 999 882 l 890 858 l 890 -7 l 860 -7 l 254 800 l 254 63 l 381 35 l 381 0 l 90 0 m 501 -332 q 478 -331 492 -332 q 454 -328 464 -331 l 454 -311 q 477 -315 464 -314 q 499 -315 490 -315 q 574 -296 550 -315 q 599 -244 599 -276 q 567 -188 599 -206 q 453 -171 535 -171 l 453 -149 q 460 -133 453 -139 q 497 -128 468 -128 q 608 -156 569 -128 q 647 -232 647 -183 q 606 -306 647 -279 q 501 -332 565 -332 z "},"Ṅ":{"ha":1089,"x_min":90,"x_max":999,"o":"m 90 0 l 90 35 l 199 58 l 199 858 l 90 882 l 90 917 l 272 917 l 838 150 l 838 858 l 718 882 l 718 917 l 999 917 l 999 882 l 890 858 l 890 -7 l 860 -7 l 254 800 l 254 63 l 381 35 l 381 0 l 90 0 m 544 1044 q 507 1060 522 1044 q 492 1097 492 1075 q 507 1135 492 1119 q 544 1150 522 1150 q 582 1135 567 1150 q 597 1097 597 1119 q 582 1060 597 1075 q 544 1044 567 1044 z "},"Ṇ":{"ha":1089,"x_min":90,"x_max":999,"o":"m 90 0 l 90 35 l 199 58 l 199 858 l 90 882 l 90 917 l 272 917 l 838 150 l 838 858 l 718 882 l 718 917 l 999 917 l 999 882 l 890 858 l 890 -7 l 860 -7 l 254 800 l 254 63 l 381 35 l 381 0 l 90 0 z "},"Ṉ":{"ha":1089,"x_min":90,"x_max":999,"o":"m 90 0 l 90 35 l 199 58 l 199 858 l 90 882 l 90 917 l 272 917 l 838 150 l 838 858 l 718 882 l 718 917 l 999 917 l 999 882 l 890 858 l 890 -7 l 860 -7 l 254 800 l 254 63 l 381 35 l 381 0 l 90 0 z "},"Ò":{"ha":1065,"x_min":97,"x_max":968,"o":"m 532 -14 q 309 47 407 -14 q 154 215 211 108 q 97 458 97 322 q 154 701 97 594 q 309 869 211 808 q 532 931 407 931 q 756 869 658 931 q 911 701 854 808 q 968 458 968 594 q 911 215 968 322 q 756 47 854 108 q 532 -14 658 -14 m 561 28 q 728 76 656 28 q 842 210 801 124 q 882 415 882 297 q 832 665 882 558 q 697 831 782 772 q 508 890 613 890 q 340 843 414 890 q 225 709 267 796 q 183 504 183 622 q 234 253 183 361 q 370 87 285 146 q 561 28 456 28 m 524 986 l 394 1110 q 358 1156 367 1136 q 349 1197 349 1176 l 414 1197 l 543 986 l 524 986 z "},"Ó":{"ha":1065,"x_min":97,"x_max":968,"o":"m 532 -14 q 309 47 407 -14 q 154 215 211 108 q 97 458 97 322 q 154 701 97 594 q 309 869 211 808 q 532 931 407 931 q 756 869 658 931 q 911 701 854 808 q 968 458 968 594 q 911 215 968 322 q 756 47 854 108 q 532 -14 658 -14 m 561 28 q 728 76 656 28 q 842 210 801 124 q 882 415 882 297 q 832 665 882 558 q 697 831 782 772 q 508 890 613 890 q 340 843 414 890 q 225 709 267 796 q 183 504 183 622 q 234 253 183 361 q 370 87 285 146 q 561 28 456 28 m 524 986 l 654 1197 l 719 1197 q 710 1156 719 1176 q 674 1110 701 1136 l 543 986 l 524 986 z "},"Ô":{"ha":1065,"x_min":97,"x_max":968,"o":"m 532 -14 q 309 47 407 -14 q 154 215 211 108 q 97 458 97 322 q 154 701 97 594 q 309 869 211 808 q 532 931 407 931 q 756 869 658 931 q 911 701 854 808 q 968 458 968 594 q 911 215 968 322 q 756 47 854 108 q 532 -14 658 -14 m 561 28 q 728 76 656 28 q 842 210 801 124 q 882 415 882 297 q 832 665 882 558 q 697 831 782 772 q 508 890 613 890 q 340 843 414 890 q 225 709 267 796 q 183 504 183 622 q 234 253 183 361 q 370 87 285 146 q 561 28 456 28 m 344 986 l 518 1197 l 549 1197 l 722 986 l 703 986 l 533 1128 l 364 986 l 344 986 z "},"Õ":{"ha":1065,"x_min":97,"x_max":968,"o":"m 532 -14 q 309 47 407 -14 q 154 215 211 108 q 97 458 97 322 q 154 701 97 594 q 309 869 211 808 q 532 931 407 931 q 756 869 658 931 q 911 701 854 808 q 968 458 968 594 q 911 215 968 322 q 756 47 854 108 q 532 -14 658 -14 m 561 28 q 728 76 656 28 q 842 210 801 124 q 882 415 882 297 q 832 665 882 558 q 697 831 782 772 q 508 890 613 890 q 340 843 414 890 q 225 709 267 796 q 183 504 183 622 q 234 253 183 361 q 370 87 285 146 q 561 28 456 28 m 339 1014 q 394 1141 367 1110 q 456 1172 421 1172 q 503 1156 481 1172 q 544 1119 525 1140 q 583 1083 564 1099 q 622 1067 603 1067 q 669 1092 649 1067 q 711 1172 689 1117 l 728 1172 q 673 1044 700 1075 q 611 1014 646 1014 q 564 1030 586 1014 q 522 1067 542 1046 q 483 1103 503 1088 q 444 1119 464 1119 q 398 1094 418 1119 q 356 1014 378 1069 l 339 1014 z "},"Ö":{"ha":1065,"x_min":97,"x_max":968,"o":"m 532 -14 q 309 47 407 -14 q 154 215 211 108 q 97 458 97 322 q 154 701 97 594 q 309 869 211 808 q 532 931 407 931 q 756 869 658 931 q 911 701 854 808 q 968 458 968 594 q 911 215 968 322 q 756 47 854 108 q 532 -14 658 -14 m 561 28 q 728 76 656 28 q 842 210 801 124 q 882 415 882 297 q 832 665 882 558 q 697 831 782 772 q 508 890 613 890 q 340 843 414 890 q 225 709 267 796 q 183 504 183 622 q 234 253 183 361 q 370 87 285 146 q 561 28 456 28 m 403 1036 q 363 1053 379 1036 q 346 1093 346 1069 q 363 1133 346 1117 q 403 1150 379 1150 q 443 1133 426 1150 q 460 1093 460 1117 q 443 1053 460 1069 q 403 1036 426 1036 m 664 1036 q 624 1053 640 1036 q 607 1093 607 1069 q 624 1133 607 1117 q 664 1150 640 1150 q 704 1133 688 1150 q 721 1093 721 1117 q 704 1053 721 1069 q 664 1036 688 1036 z "},"Ō":{"ha":1065,"x_min":97,"x_max":968,"o":"m 532 -14 q 309 47 407 -14 q 154 215 211 108 q 97 458 97 322 q 154 701 97 594 q 309 869 211 808 q 532 931 407 931 q 756 869 658 931 q 911 701 854 808 q 968 458 968 594 q 911 215 968 322 q 756 47 854 108 q 532 -14 658 -14 m 561 28 q 728 76 656 28 q 842 210 801 124 q 882 415 882 297 q 832 665 882 558 q 697 831 782 772 q 508 890 613 890 q 340 843 414 890 q 225 709 267 796 q 183 504 183 622 q 234 253 183 361 q 370 87 285 146 q 561 28 456 28 m 357 1068 l 357 1118 l 710 1118 l 710 1068 l 357 1068 z "},"Ŏ":{"ha":1065,"x_min":97,"x_max":968,"o":"m 532 -14 q 309 47 407 -14 q 154 215 211 108 q 97 458 97 322 q 154 701 97 594 q 309 869 211 808 q 532 931 407 931 q 756 869 658 931 q 911 701 854 808 q 968 458 968 594 q 911 215 968 322 q 756 47 854 108 q 532 -14 658 -14 m 561 28 q 728 76 656 28 q 842 210 801 124 q 882 415 882 297 q 832 665 882 558 q 697 831 782 772 q 508 890 613 890 q 340 843 414 890 q 225 709 267 796 q 183 504 183 622 q 234 253 183 361 q 370 87 285 146 q 561 28 456 28 m 533 986 q 412 1039 451 986 q 344 1197 372 1092 l 363 1197 q 410 1101 383 1133 q 467 1058 436 1069 q 533 1046 497 1046 q 600 1058 569 1046 q 657 1101 631 1069 q 704 1197 683 1133 l 722 1197 q 655 1039 694 1092 q 533 986 615 986 z "},"Ő":{"ha":1065,"x_min":97,"x_max":968,"o":"m 532 -14 q 309 47 407 -14 q 154 215 211 108 q 97 458 97 322 q 154 701 97 594 q 309 869 211 808 q 532 931 407 931 q 756 869 658 931 q 911 701 854 808 q 968 458 968 594 q 911 215 968 322 q 756 47 854 108 q 532 -14 658 -14 m 561 28 q 728 76 656 28 q 842 210 801 124 q 882 415 882 297 q 832 665 882 558 q 697 831 782 772 q 508 890 613 890 q 340 843 414 890 q 225 709 267 796 q 183 504 183 622 q 234 253 183 361 q 370 87 285 146 q 561 28 456 28 m 446 986 l 521 1197 l 574 1197 q 578 1156 581 1176 q 557 1110 576 1135 l 465 986 l 446 986 m 601 986 l 676 1197 l 729 1197 q 734 1156 736 1176 q 713 1110 732 1135 l 621 986 l 601 986 z "},"Ọ":{"ha":1065,"x_min":97,"x_max":968,"o":"m 532 -14 q 309 47 407 -14 q 154 215 211 108 q 97 458 97 322 q 154 701 97 594 q 309 869 211 808 q 532 931 407 931 q 756 869 658 931 q 911 701 854 808 q 968 458 968 594 q 911 215 968 322 q 756 47 854 108 q 532 -14 658 -14 m 561 28 q 728 76 656 28 q 842 210 801 124 q 882 415 882 297 q 832 665 882 558 q 697 831 782 772 q 508 890 613 890 q 340 843 414 890 q 225 709 267 796 q 183 504 183 622 q 234 253 183 361 q 370 87 285 146 q 561 28 456 28 z "},"Ǫ":{"ha":1065,"x_min":97,"x_max":968,"o":"m 532 -14 q 309 47 407 -14 q 154 215 211 108 q 97 458 97 322 q 154 701 97 594 q 309 869 211 808 q 532 931 407 931 q 756 869 658 931 q 911 701 854 808 q 968 458 968 594 q 919 230 968 332 q 782 65 869 128 q 582 -11 694 1 q 513 -111 536 -62 q 490 -207 490 -160 q 514 -278 490 -256 q 579 -300 538 -300 q 622 -293 601 -300 q 663 -271 643 -286 l 667 -271 l 667 -289 q 625 -321 653 -308 q 561 -333 597 -333 q 474 -305 508 -333 q 439 -221 439 -276 q 468 -114 439 -165 q 549 -14 497 -62 q 532 -14 540 -14 m 561 28 q 728 76 656 28 q 842 210 801 124 q 882 415 882 297 q 832 665 882 558 q 697 831 782 772 q 508 890 613 890 q 340 843 414 890 q 225 709 267 796 q 183 504 183 622 q 234 253 183 361 q 370 87 285 146 q 561 28 456 28 z "},"Ȍ":{"ha":1065,"x_min":97,"x_max":968,"o":"m 532 -14 q 309 47 407 -14 q 154 215 211 108 q 97 458 97 322 q 154 701 97 594 q 309 869 211 808 q 532 931 407 931 q 756 869 658 931 q 911 701 854 808 q 968 458 968 594 q 911 215 968 322 q 756 47 854 108 q 532 -14 658 -14 m 561 28 q 728 76 656 28 q 842 210 801 124 q 882 415 882 297 q 832 665 882 558 q 697 831 782 772 q 508 890 613 890 q 340 843 414 890 q 225 709 267 796 q 183 504 183 622 q 234 253 183 361 q 370 87 285 146 q 561 28 456 28 m 446 986 l 346 1110 q 324 1156 326 1135 q 329 1197 322 1176 l 382 1197 l 465 986 l 446 986 m 601 986 l 501 1110 q 480 1156 482 1135 q 485 1197 478 1176 l 538 1197 l 621 986 l 601 986 z "},"Ȏ":{"ha":1065,"x_min":97,"x_max":968,"o":"m 532 -14 q 309 47 407 -14 q 154 215 211 108 q 97 458 97 322 q 154 701 97 594 q 309 869 211 808 q 532 931 407 931 q 756 869 658 931 q 911 701 854 808 q 968 458 968 594 q 911 215 968 322 q 756 47 854 108 q 532 -14 658 -14 m 561 28 q 728 76 656 28 q 842 210 801 124 q 882 415 882 297 q 832 665 882 558 q 697 831 782 772 q 508 890 613 890 q 340 843 414 890 q 225 709 267 796 q 183 504 183 622 q 234 253 183 361 q 370 87 285 146 q 561 28 456 28 m 344 986 q 412 1144 372 1092 q 533 1197 451 1197 q 655 1144 615 1197 q 722 986 694 1092 l 704 986 q 657 1082 683 1050 q 600 1126 631 1114 q 533 1138 569 1138 q 467 1126 497 1138 q 410 1082 436 1114 q 363 986 383 1050 l 344 986 z "},"Ȫ":{"ha":1065,"x_min":97,"x_max":968,"o":"m 532 -14 q 309 47 407 -14 q 154 215 211 108 q 97 458 97 322 q 154 701 97 594 q 309 869 211 808 q 532 931 407 931 q 756 869 658 931 q 911 701 854 808 q 968 458 968 594 q 911 215 968 322 q 756 47 854 108 q 532 -14 658 -14 m 561 28 q 728 76 656 28 q 842 210 801 124 q 882 415 882 297 q 832 665 882 558 q 697 831 782 772 q 508 890 613 890 q 340 843 414 890 q 225 709 267 796 q 183 504 183 622 q 234 253 183 361 q 370 87 285 146 q 561 28 456 28 z "},"Ȭ":{"ha":1065,"x_min":97,"x_max":968,"o":"m 532 -14 q 309 47 407 -14 q 154 215 211 108 q 97 458 97 322 q 154 701 97 594 q 309 869 211 808 q 532 931 407 931 q 756 869 658 931 q 911 701 854 808 q 968 458 968 594 q 911 215 968 322 q 756 47 854 108 q 532 -14 658 -14 m 561 28 q 728 76 656 28 q 842 210 801 124 q 882 415 882 297 q 832 665 882 558 q 697 831 782 772 q 508 890 613 890 q 340 843 414 890 q 225 709 267 796 q 183 504 183 622 q 234 253 183 361 q 370 87 285 146 q 561 28 456 28 z "},"Ȱ":{"ha":1065,"x_min":97,"x_max":968,"o":"m 532 -14 q 309 47 407 -14 q 154 215 211 108 q 97 458 97 322 q 154 701 97 594 q 309 869 211 808 q 532 931 407 931 q 756 869 658 931 q 911 701 854 808 q 968 458 968 594 q 911 215 968 322 q 756 47 854 108 q 532 -14 658 -14 m 561 28 q 728 76 656 28 q 842 210 801 124 q 882 415 882 297 q 832 665 882 558 q 697 831 782 772 q 508 890 613 890 q 340 843 414 890 q 225 709 267 796 q 183 504 183 622 q 234 253 183 361 q 370 87 285 146 q 561 28 456 28 z "},"Ố":{"ha":1065,"x_min":97,"x_max":968,"o":"m 532 -14 q 309 47 407 -14 q 154 215 211 108 q 97 458 97 322 q 154 701 97 594 q 309 869 211 808 q 532 931 407 931 q 756 869 658 931 q 911 701 854 808 q 968 458 968 594 q 911 215 968 322 q 756 47 854 108 q 532 -14 658 -14 m 561 28 q 728 76 656 28 q 842 210 801 124 q 882 415 882 297 q 832 665 882 558 q 697 831 782 772 q 508 890 613 890 q 340 843 414 890 q 225 709 267 796 q 183 504 183 622 q 234 253 183 361 q 370 87 285 146 q 561 28 456 28 m 690 1118 l 767 1317 l 832 1317 q 822 1281 832 1297 q 792 1238 813 1264 l 701 1118 l 690 1118 m 344 986 l 518 1197 l 549 1197 l 722 986 l 703 986 l 533 1128 l 364 986 l 344 986 z "},"Ộ":{"ha":1065,"x_min":97,"x_max":968,"o":"m 532 -14 q 309 47 407 -14 q 154 215 211 108 q 97 458 97 322 q 154 701 97 594 q 309 869 211 808 q 532 931 407 931 q 756 869 658 931 q 911 701 854 808 q 968 458 968 594 q 911 215 968 322 q 756 47 854 108 q 532 -14 658 -14 m 561 28 q 728 76 656 28 q 842 210 801 124 q 882 415 882 297 q 832 665 882 558 q 697 831 782 772 q 508 890 613 890 q 340 843 414 890 q 225 709 267 796 q 183 504 183 622 q 234 253 183 361 q 370 87 285 146 q 561 28 456 28 m 344 986 l 518 1197 l 549 1197 l 722 986 l 703 986 l 533 1128 l 364 986 l 344 986 z "},"Ồ":{"ha":1065,"x_min":97,"x_max":968,"o":"m 532 -14 q 309 47 407 -14 q 154 215 211 108 q 97 458 97 322 q 154 701 97 594 q 309 869 211 808 q 532 931 407 931 q 756 869 658 931 q 911 701 854 808 q 968 458 968 594 q 911 215 968 322 q 756 47 854 108 q 532 -14 658 -14 m 561 28 q 728 76 656 28 q 842 210 801 124 q 882 415 882 297 q 832 665 882 558 q 697 831 782 772 q 508 890 613 890 q 340 843 414 890 q 225 709 267 796 q 183 504 183 622 q 234 253 183 361 q 370 87 285 146 q 561 28 456 28 m 365 1118 l 275 1238 q 244 1281 254 1264 q 235 1317 235 1297 l 300 1317 l 376 1118 l 365 1118 m 344 986 l 518 1197 l 549 1197 l 722 986 l 703 986 l 533 1128 l 364 986 l 344 986 z "},"Ổ":{"ha":1065,"x_min":97,"x_max":968,"o":"m 532 -14 q 309 47 407 -14 q 154 215 211 108 q 97 458 97 322 q 154 701 97 594 q 309 869 211 808 q 532 931 407 931 q 756 869 658 931 q 911 701 854 808 q 968 458 968 594 q 911 215 968 322 q 756 47 854 108 q 532 -14 658 -14 m 561 28 q 728 76 656 28 q 842 210 801 124 q 882 415 882 297 q 832 665 882 558 q 697 831 782 772 q 508 890 613 890 q 340 843 414 890 q 225 709 267 796 q 183 504 183 622 q 234 253 183 361 q 370 87 285 146 q 561 28 456 28 z "},"Ỗ":{"ha":1065,"x_min":97,"x_max":968,"o":"m 532 -14 q 309 47 407 -14 q 154 215 211 108 q 97 458 97 322 q 154 701 97 594 q 309 869 211 808 q 532 931 407 931 q 756 869 658 931 q 911 701 854 808 q 968 458 968 594 q 911 215 968 322 q 756 47 854 108 q 532 -14 658 -14 m 561 28 q 728 76 656 28 q 842 210 801 124 q 882 415 882 297 q 832 665 882 558 q 697 831 782 772 q 508 890 613 890 q 340 843 414 890 q 225 709 267 796 q 183 504 183 622 q 234 253 183 361 q 370 87 285 146 q 561 28 456 28 z "},"Ỏ":{"ha":1065,"x_min":97,"x_max":968,"o":"m 532 -14 q 309 47 407 -14 q 154 215 211 108 q 97 458 97 322 q 154 701 97 594 q 309 869 211 808 q 532 931 407 931 q 756 869 658 931 q 911 701 854 808 q 968 458 968 594 q 911 215 968 322 q 756 47 854 108 q 532 -14 658 -14 m 561 28 q 728 76 656 28 q 842 210 801 124 q 882 415 882 297 q 832 665 882 558 q 697 831 782 772 q 508 890 613 890 q 340 843 414 890 q 225 709 267 796 q 183 504 183 622 q 234 253 183 361 q 370 87 285 146 q 561 28 456 28 m 468 985 l 468 986 q 557 1022 525 1001 q 589 1076 589 1043 q 561 1134 589 1111 q 463 1167 533 1157 l 471 1215 q 600 1172 564 1207 q 636 1099 636 1136 q 596 1019 636 1046 q 478 975 556 993 l 468 985 z "},"Ṍ":{"ha":1065,"x_min":97,"x_max":968,"o":"m 532 -14 q 309 47 407 -14 q 154 215 211 108 q 97 458 97 322 q 154 701 97 594 q 309 869 211 808 q 532 931 407 931 q 756 869 658 931 q 911 701 854 808 q 968 458 968 594 q 911 215 968 322 q 756 47 854 108 q 532 -14 658 -14 m 561 28 q 728 76 656 28 q 842 210 801 124 q 882 415 882 297 q 832 665 882 558 q 697 831 782 772 q 508 890 613 890 q 340 843 414 890 q 225 709 267 796 q 183 504 183 622 q 234 253 183 361 q 370 87 285 146 q 561 28 456 28 z "},"Ṏ":{"ha":1065,"x_min":97,"x_max":968,"o":"m 532 -14 q 309 47 407 -14 q 154 215 211 108 q 97 458 97 322 q 154 701 97 594 q 309 869 211 808 q 532 931 407 931 q 756 869 658 931 q 911 701 854 808 q 968 458 968 594 q 911 215 968 322 q 756 47 854 108 q 532 -14 658 -14 m 561 28 q 728 76 656 28 q 842 210 801 124 q 882 415 882 297 q 832 665 882 558 q 697 831 782 772 q 508 890 613 890 q 340 843 414 890 q 225 709 267 796 q 183 504 183 622 q 234 253 183 361 q 370 87 285 146 q 561 28 456 28 z "},"Ṑ":{"ha":1065,"x_min":97,"x_max":968,"o":"m 532 -14 q 309 47 407 -14 q 154 215 211 108 q 97 458 97 322 q 154 701 97 594 q 309 869 211 808 q 532 931 407 931 q 756 869 658 931 q 911 701 854 808 q 968 458 968 594 q 911 215 968 322 q 756 47 854 108 q 532 -14 658 -14 m 561 28 q 728 76 656 28 q 842 210 801 124 q 882 415 882 297 q 832 665 882 558 q 697 831 782 772 q 508 890 613 890 q 340 843 414 890 q 225 709 267 796 q 183 504 183 622 q 234 253 183 361 q 370 87 285 146 q 561 28 456 28 z "},"Ṓ":{"ha":1065,"x_min":97,"x_max":968,"o":"m 532 -14 q 309 47 407 -14 q 154 215 211 108 q 97 458 97 322 q 154 701 97 594 q 309 869 211 808 q 532 931 407 931 q 756 869 658 931 q 911 701 854 808 q 968 458 968 594 q 911 215 968 322 q 756 47 854 108 q 532 -14 658 -14 m 561 28 q 728 76 656 28 q 842 210 801 124 q 882 415 882 297 q 832 665 882 558 q 697 831 782 772 q 508 890 613 890 q 340 843 414 890 q 225 709 267 796 q 183 504 183 622 q 234 253 183 361 q 370 87 285 146 q 561 28 456 28 z "},"Ø":{"ha":1065,"x_min":97,"x_max":968,"o":"m 97 -14 l 215 126 q 128 274 160 189 q 97 458 97 358 q 154 701 97 594 q 309 869 211 808 q 532 931 407 931 q 685 904 614 931 q 811 829 756 878 l 897 931 l 968 931 l 850 790 q 937 643 906 728 q 968 458 968 558 q 911 215 968 322 q 756 47 854 108 q 532 -14 658 -14 q 381 13 451 -14 q 254 88 310 39 l 168 -14 l 97 -14 m 183 504 q 206 330 183 410 q 269 190 229 250 l 764 772 q 649 860 714 829 q 508 890 583 890 q 340 843 414 890 q 225 709 267 796 q 183 504 183 622 m 561 28 q 728 76 656 28 q 842 210 801 124 q 882 415 882 297 q 860 589 882 510 q 797 728 838 668 l 303 146 q 420 58 354 89 q 561 28 486 28 z "},"Ǿ":{"ha":1065,"x_min":97,"x_max":968,"o":"m 97 -14 l 215 126 q 128 274 160 189 q 97 458 97 358 q 154 701 97 594 q 309 869 211 808 q 532 931 407 931 q 685 904 614 931 q 811 829 756 878 l 897 931 l 968 931 l 850 790 q 937 643 906 728 q 968 458 968 558 q 911 215 968 322 q 756 47 854 108 q 532 -14 658 -14 q 381 13 451 -14 q 254 88 310 39 l 168 -14 l 97 -14 m 183 504 q 206 330 183 410 q 269 190 229 250 l 764 772 q 649 860 714 829 q 508 890 583 890 q 340 843 414 890 q 225 709 267 796 q 183 504 183 622 m 561 28 q 728 76 656 28 q 842 210 801 124 q 882 415 882 297 q 860 589 882 510 q 797 728 838 668 l 303 146 q 420 58 354 89 q 561 28 486 28 m 524 986 l 654 1197 l 719 1197 q 710 1156 719 1176 q 674 1110 701 1136 l 543 986 l 524 986 z "},"Ơ":{"ha":1065,"x_min":97,"x_max":968,"o":"m 532 -14 q 309 47 407 -14 q 154 215 211 108 q 97 458 97 322 q 154 701 97 594 q 309 869 211 808 q 532 931 407 931 q 719 889 633 931 q 761 885 740 885 q 827 908 808 885 q 846 972 846 931 l 846 1040 l 850 1044 l 875 1044 q 905 1037 897 1044 q 913 1001 913 1029 q 878 898 913 939 q 785 850 844 857 q 919 686 869 788 q 968 458 968 585 q 911 215 968 322 q 756 47 854 108 q 532 -14 658 -14 m 561 28 q 728 76 656 28 q 842 210 801 124 q 882 415 882 297 q 832 665 882 558 q 697 831 782 772 q 508 890 613 890 q 340 843 414 890 q 225 709 267 796 q 183 504 183 622 q 234 253 183 361 q 370 87 285 146 q 561 28 456 28 z "},"Ớ":{"ha":1065,"x_min":97,"x_max":968,"o":"m 532 -14 q 309 47 407 -14 q 154 215 211 108 q 97 458 97 322 q 154 701 97 594 q 309 869 211 808 q 532 931 407 931 q 719 889 633 931 q 761 885 740 885 q 827 908 808 885 q 846 972 846 931 l 846 1040 l 850 1044 l 875 1044 q 905 1037 897 1044 q 913 1001 913 1029 q 878 898 913 939 q 785 850 844 857 q 919 686 869 788 q 968 458 968 585 q 911 215 968 322 q 756 47 854 108 q 532 -14 658 -14 m 561 28 q 728 76 656 28 q 842 210 801 124 q 882 415 882 297 q 832 665 882 558 q 697 831 782 772 q 508 890 613 890 q 340 843 414 890 q 225 709 267 796 q 183 504 183 622 q 234 253 183 361 q 370 87 285 146 q 561 28 456 28 m 524 986 l 654 1197 l 719 1197 q 710 1156 719 1176 q 674 1110 701 1136 l 543 986 l 524 986 z "},"Ợ":{"ha":1065,"x_min":97,"x_max":968,"o":"m 532 -14 q 309 47 407 -14 q 154 215 211 108 q 97 458 97 322 q 154 701 97 594 q 309 869 211 808 q 532 931 407 931 q 719 889 633 931 q 761 885 740 885 q 827 908 808 885 q 846 972 846 931 l 846 1040 l 850 1044 l 875 1044 q 905 1037 897 1044 q 913 1001 913 1029 q 878 898 913 939 q 785 850 844 857 q 919 686 869 788 q 968 458 968 585 q 911 215 968 322 q 756 47 854 108 q 532 -14 658 -14 m 561 28 q 728 76 656 28 q 842 210 801 124 q 882 415 882 297 q 832 665 882 558 q 697 831 782 772 q 508 890 613 890 q 340 843 414 890 q 225 709 267 796 q 183 504 183 622 q 234 253 183 361 q 370 87 285 146 q 561 28 456 28 z "},"Ờ":{"ha":1065,"x_min":97,"x_max":968,"o":"m 532 -14 q 309 47 407 -14 q 154 215 211 108 q 97 458 97 322 q 154 701 97 594 q 309 869 211 808 q 532 931 407 931 q 719 889 633 931 q 761 885 740 885 q 827 908 808 885 q 846 972 846 931 l 846 1040 l 850 1044 l 875 1044 q 905 1037 897 1044 q 913 1001 913 1029 q 878 898 913 939 q 785 850 844 857 q 919 686 869 788 q 968 458 968 585 q 911 215 968 322 q 756 47 854 108 q 532 -14 658 -14 m 561 28 q 728 76 656 28 q 842 210 801 124 q 882 415 882 297 q 832 665 882 558 q 697 831 782 772 q 508 890 613 890 q 340 843 414 890 q 225 709 267 796 q 183 504 183 622 q 234 253 183 361 q 370 87 285 146 q 561 28 456 28 m 524 986 l 394 1110 q 358 1156 367 1136 q 349 1197 349 1176 l 414 1197 l 543 986 l 524 986 z "},"Ở":{"ha":1065,"x_min":97,"x_max":968,"o":"m 532 -14 q 309 47 407 -14 q 154 215 211 108 q 97 458 97 322 q 154 701 97 594 q 309 869 211 808 q 532 931 407 931 q 719 889 633 931 q 761 885 740 885 q 827 908 808 885 q 846 972 846 931 l 846 1040 l 850 1044 l 875 1044 q 905 1037 897 1044 q 913 1001 913 1029 q 878 898 913 939 q 785 850 844 857 q 919 686 869 788 q 968 458 968 585 q 911 215 968 322 q 756 47 854 108 q 532 -14 658 -14 m 561 28 q 728 76 656 28 q 842 210 801 124 q 882 415 882 297 q 832 665 882 558 q 697 831 782 772 q 508 890 613 890 q 340 843 414 890 q 225 709 267 796 q 183 504 183 622 q 234 253 183 361 q 370 87 285 146 q 561 28 456 28 m 468 985 l 468 986 q 557 1022 525 1001 q 589 1076 589 1043 q 561 1134 589 1111 q 463 1167 533 1157 l 471 1215 q 600 1172 564 1207 q 636 1099 636 1136 q 596 1019 636 1046 q 478 975 556 993 l 468 985 z "},"Ỡ":{"ha":1065,"x_min":97,"x_max":968,"o":"m 532 -14 q 309 47 407 -14 q 154 215 211 108 q 97 458 97 322 q 154 701 97 594 q 309 869 211 808 q 532 931 407 931 q 719 889 633 931 q 761 885 740 885 q 827 908 808 885 q 846 972 846 931 l 846 1040 l 850 1044 l 875 1044 q 905 1037 897 1044 q 913 1001 913 1029 q 878 898 913 939 q 785 850 844 857 q 919 686 869 788 q 968 458 968 585 q 911 215 968 322 q 756 47 854 108 q 532 -14 658 -14 m 561 28 q 728 76 656 28 q 842 210 801 124 q 882 415 882 297 q 832 665 882 558 q 697 831 782 772 q 508 890 613 890 q 340 843 414 890 q 225 709 267 796 q 183 504 183 622 q 234 253 183 361 q 370 87 285 146 q 561 28 456 28 m 339 1014 q 394 1141 367 1110 q 456 1172 421 1172 q 503 1156 481 1172 q 544 1119 525 1140 q 583 1083 564 1099 q 622 1067 603 1067 q 669 1092 649 1067 q 711 1172 689 1117 l 728 1172 q 673 1044 700 1075 q 611 1014 646 1014 q 564 1030 586 1014 q 522 1067 542 1046 q 483 1103 503 1088 q 444 1119 464 1119 q 398 1094 418 1119 q 356 1014 378 1069 l 339 1014 z "},"Œ":{"ha":1332,"x_min":97,"x_max":1235,"o":"m 579 0 q 317 53 425 0 q 153 203 210 106 q 97 435 97 301 q 156 692 97 583 q 326 858 215 800 q 589 917 436 917 l 1196 917 l 1196 692 l 1168 692 l 1110 868 l 765 868 l 765 497 l 1018 497 l 1053 613 l 1081 613 l 1081 336 l 1053 336 l 1018 449 l 765 449 l 765 49 l 1149 49 l 1207 239 l 1235 239 l 1235 0 l 579 0 m 575 49 l 682 49 l 682 868 l 563 868 q 365 817 450 868 q 234 674 281 767 q 188 457 188 582 q 288 151 188 254 q 575 49 389 49 z "},"Ŕ":{"ha":838,"x_min":90,"x_max":844,"o":"m 90 0 l 90 35 l 201 58 l 201 858 l 90 882 l 90 917 l 365 917 q 595 856 511 917 q 679 690 679 796 q 626 549 679 607 q 485 463 572 490 l 753 53 l 844 35 l 844 0 l 683 0 l 406 435 l 285 435 l 285 60 l 389 35 l 389 0 l 90 0 m 375 868 l 285 868 l 285 483 l 383 483 q 528 537 471 483 q 586 672 586 590 q 529 815 586 763 q 375 868 472 868 m 403 986 l 533 1197 l 599 1197 q 590 1156 599 1176 q 553 1110 581 1136 l 422 986 l 403 986 z "},"Ř":{"ha":838,"x_min":90,"x_max":844,"o":"m 90 0 l 90 35 l 201 58 l 201 858 l 90 882 l 90 917 l 365 917 q 595 856 511 917 q 679 690 679 796 q 626 549 679 607 q 485 463 572 490 l 753 53 l 844 35 l 844 0 l 683 0 l 406 435 l 285 435 l 285 60 l 389 35 l 389 0 l 90 0 m 375 868 l 285 868 l 285 483 l 383 483 q 528 537 471 483 q 586 672 586 590 q 529 815 586 763 q 375 868 472 868 m 397 986 l 224 1197 l 243 1197 l 413 1056 l 582 1197 l 601 1197 l 428 986 l 397 986 z "},"Ŗ":{"ha":838,"x_min":90,"x_max":844,"o":"m 90 0 l 90 35 l 201 58 l 201 858 l 90 882 l 90 917 l 365 917 q 595 856 511 917 q 679 690 679 796 q 626 549 679 607 q 485 463 572 490 l 753 53 l 844 35 l 844 0 l 683 0 l 406 435 l 285 435 l 285 60 l 389 35 l 389 0 l 90 0 m 375 868 l 285 868 l 285 483 l 383 483 q 528 537 471 483 q 586 672 586 590 q 529 815 586 763 q 375 868 472 868 m 439 -332 q 415 -331 429 -332 q 392 -328 401 -331 l 392 -311 q 415 -315 401 -314 q 436 -315 428 -315 q 512 -296 488 -315 q 536 -244 536 -276 q 504 -188 536 -206 q 390 -171 472 -171 l 390 -149 q 398 -133 390 -139 q 435 -128 406 -128 q 546 -156 507 -128 q 585 -232 585 -183 q 544 -306 585 -279 q 439 -332 503 -332 z "},"Ȑ":{"ha":838,"x_min":90,"x_max":844,"o":"m 90 0 l 90 35 l 201 58 l 201 858 l 90 882 l 90 917 l 365 917 q 595 856 511 917 q 679 690 679 796 q 626 549 679 607 q 485 463 572 490 l 753 53 l 844 35 l 844 0 l 683 0 l 406 435 l 285 435 l 285 60 l 389 35 l 389 0 l 90 0 m 375 868 l 285 868 l 285 483 l 383 483 q 528 537 471 483 q 586 672 586 590 q 529 815 586 763 q 375 868 472 868 m 325 986 l 225 1110 q 203 1156 206 1135 q 208 1197 201 1176 l 261 1197 l 344 986 l 325 986 m 481 986 l 381 1110 q 359 1156 361 1135 q 364 1197 357 1176 l 417 1197 l 500 986 l 481 986 z "},"Ȓ":{"ha":838,"x_min":90,"x_max":844,"o":"m 90 0 l 90 35 l 201 58 l 201 858 l 90 882 l 90 917 l 365 917 q 595 856 511 917 q 679 690 679 796 q 626 549 679 607 q 485 463 572 490 l 753 53 l 844 35 l 844 0 l 683 0 l 406 435 l 285 435 l 285 60 l 389 35 l 389 0 l 90 0 m 375 868 l 285 868 l 285 483 l 383 483 q 528 537 471 483 q 586 672 586 590 q 529 815 586 763 q 375 868 472 868 m 224 986 q 291 1144 251 1092 q 413 1197 331 1197 q 534 1144 494 1197 q 601 986 574 1092 l 583 986 q 536 1082 563 1050 q 479 1126 510 1114 q 413 1138 449 1138 q 346 1126 376 1138 q 289 1082 315 1114 q 242 986 263 1050 l 224 986 z "},"Ṛ":{"ha":838,"x_min":90,"x_max":844,"o":"m 90 0 l 90 35 l 201 58 l 201 858 l 90 882 l 90 917 l 365 917 q 595 856 511 917 q 679 690 679 796 q 626 549 679 607 q 485 463 572 490 l 753 53 l 844 35 l 844 0 l 683 0 l 406 435 l 285 435 l 285 60 l 389 35 l 389 0 l 90 0 m 375 868 l 285 868 l 285 483 l 383 483 q 528 537 471 483 q 586 672 586 590 q 529 815 586 763 q 375 868 472 868 z "},"Ṟ":{"ha":838,"x_min":90,"x_max":844,"o":"m 90 0 l 90 35 l 201 58 l 201 858 l 90 882 l 90 917 l 365 917 q 595 856 511 917 q 679 690 679 796 q 626 549 679 607 q 485 463 572 490 l 753 53 l 844 35 l 844 0 l 683 0 l 406 435 l 285 435 l 285 60 l 389 35 l 389 0 l 90 0 m 375 868 l 285 868 l 285 483 l 383 483 q 528 537 471 483 q 586 672 586 590 q 529 815 586 763 q 375 868 472 868 z "},"ẞ":{"ha":1433,"x_min":83,"x_max":1357,"o":"m 353 -14 q 215 3 272 -14 q 97 50 158 19 l 83 264 l 108 264 l 188 88 q 279 41 235 53 q 371 29 324 29 q 511 78 464 29 q 558 217 558 128 q 527 321 558 283 q 438 388 496 358 q 303 456 381 417 q 201 517 242 486 q 139 588 160 547 q 118 690 118 629 q 155 805 118 750 q 250 895 192 860 q 375 931 308 931 q 487 915 436 931 q 592 872 538 900 l 606 664 l 581 664 l 519 829 q 451 875 485 861 q 374 889 418 889 q 243 840 289 889 q 197 722 197 792 q 219 633 197 669 q 285 568 240 597 q 397 506 329 539 q 535 428 481 465 q 615 344 589 392 q 640 225 640 297 q 598 102 640 156 q 490 17 556 49 q 353 -14 425 -14 m 1069 -14 q 932 3 989 -14 q 814 50 875 19 l 800 264 l 825 264 l 904 88 q 996 41 951 53 q 1088 29 1040 29 q 1228 78 1181 29 q 1275 217 1275 128 q 1244 321 1275 283 q 1155 388 1213 358 q 1019 456 1097 417 q 917 517 958 486 q 856 588 876 547 q 835 690 835 629 q 872 805 835 750 q 967 895 908 860 q 1092 931 1025 931 q 1203 915 1153 931 q 1308 872 1254 900 l 1322 664 l 1297 664 l 1236 829 q 1168 875 1201 861 q 1090 889 1135 889 q 960 840 1006 889 q 914 722 914 792 q 935 633 914 669 q 1001 568 957 597 q 1114 506 1046 539 q 1251 428 1197 465 q 1331 344 1306 392 q 1357 225 1357 297 q 1315 102 1357 156 q 1207 17 1272 49 q 1069 -14 1142 -14 z "},"Ś":{"ha":717,"x_min":83,"x_max":640,"o":"m 353 -14 q 215 3 272 -14 q 97 50 158 19 l 83 264 l 108 264 l 188 88 q 279 41 235 53 q 371 29 324 29 q 511 78 464 29 q 558 217 558 128 q 527 321 558 283 q 438 388 496 358 q 303 456 381 417 q 201 517 242 486 q 139 588 160 547 q 118 690 118 629 q 155 805 118 750 q 250 895 192 860 q 375 931 308 931 q 487 915 436 931 q 592 872 538 900 l 606 664 l 581 664 l 519 829 q 451 875 485 861 q 374 889 418 889 q 243 840 289 889 q 197 722 197 792 q 219 633 197 669 q 285 568 240 597 q 397 506 329 539 q 535 428 481 465 q 615 344 589 392 q 640 225 640 297 q 598 102 640 156 q 490 17 556 49 q 353 -14 425 -14 m 365 986 l 496 1197 l 561 1197 q 552 1156 561 1176 q 515 1110 543 1136 l 385 986 l 365 986 z "},"Ŝ":{"ha":717,"x_min":83,"x_max":640,"o":"m 353 -14 q 215 3 272 -14 q 97 50 158 19 l 83 264 l 108 264 l 188 88 q 279 41 235 53 q 371 29 324 29 q 511 78 464 29 q 558 217 558 128 q 527 321 558 283 q 438 388 496 358 q 303 456 381 417 q 201 517 242 486 q 139 588 160 547 q 118 690 118 629 q 155 805 118 750 q 250 895 192 860 q 375 931 308 931 q 487 915 436 931 q 592 872 538 900 l 606 664 l 581 664 l 519 829 q 451 875 485 861 q 374 889 418 889 q 243 840 289 889 q 197 722 197 792 q 219 633 197 669 q 285 568 240 597 q 397 506 329 539 q 535 428 481 465 q 615 344 589 392 q 640 225 640 297 q 598 102 640 156 q 490 17 556 49 q 353 -14 425 -14 m 186 986 l 360 1197 l 390 1197 l 564 986 l 544 986 l 375 1128 l 206 986 l 186 986 z "},"Š":{"ha":717,"x_min":83,"x_max":640,"o":"m 353 -14 q 215 3 272 -14 q 97 50 158 19 l 83 264 l 108 264 l 188 88 q 279 41 235 53 q 371 29 324 29 q 511 78 464 29 q 558 217 558 128 q 527 321 558 283 q 438 388 496 358 q 303 456 381 417 q 201 517 242 486 q 139 588 160 547 q 118 690 118 629 q 155 805 118 750 q 250 895 192 860 q 375 931 308 931 q 487 915 436 931 q 592 872 538 900 l 606 664 l 581 664 l 519 829 q 451 875 485 861 q 374 889 418 889 q 243 840 289 889 q 197 722 197 792 q 219 633 197 669 q 285 568 240 597 q 397 506 329 539 q 535 428 481 465 q 615 344 589 392 q 640 225 640 297 q 598 102 640 156 q 490 17 556 49 q 353 -14 425 -14 m 360 986 l 186 1197 l 206 1197 l 375 1056 l 544 1197 l 564 1197 l 390 986 l 360 986 z "},"Ş":{"ha":717,"x_min":83,"x_max":640,"o":"m 358 -333 q 304 -324 331 -333 q 264 -303 278 -315 l 264 -285 l 268 -285 q 354 -307 308 -307 q 440 -237 440 -307 q 397 -168 440 -193 q 275 -122 353 -143 l 343 -14 q 211 3 265 -12 q 97 50 157 19 l 83 264 l 108 264 l 188 88 q 279 41 235 53 q 371 29 324 29 q 511 78 464 29 q 558 217 558 128 q 527 321 558 283 q 438 388 496 358 q 303 456 381 417 q 201 517 242 486 q 139 588 160 547 q 118 690 118 629 q 155 805 118 750 q 250 895 192 860 q 375 931 308 931 q 487 915 436 931 q 592 872 538 900 l 606 664 l 581 664 l 519 829 q 451 875 485 861 q 374 889 418 889 q 243 840 289 889 q 197 722 197 792 q 219 633 197 669 q 285 568 240 597 q 397 506 329 539 q 535 428 481 465 q 615 344 589 392 q 640 225 640 297 q 601 107 640 160 q 501 23 563 54 q 372 -14 440 -8 l 325 -89 q 436 -138 389 -107 q 483 -224 483 -169 q 450 -303 483 -272 q 358 -333 417 -333 z "},"Ș":{"ha":717,"x_min":83,"x_max":640,"o":"m 353 -14 q 215 3 272 -14 q 97 50 158 19 l 83 264 l 108 264 l 188 88 q 279 41 235 53 q 371 29 324 29 q 511 78 464 29 q 558 217 558 128 q 527 321 558 283 q 438 388 496 358 q 303 456 381 417 q 201 517 242 486 q 139 588 160 547 q 118 690 118 629 q 155 805 118 750 q 250 895 192 860 q 375 931 308 931 q 487 915 436 931 q 592 872 538 900 l 606 664 l 581 664 l 519 829 q 451 875 485 861 q 374 889 418 889 q 243 840 289 889 q 197 722 197 792 q 219 633 197 669 q 285 568 240 597 q 397 506 329 539 q 535 428 481 465 q 615 344 589 392 q 640 225 640 297 q 598 102 640 156 q 490 17 556 49 q 353 -14 425 -14 z "},"Ṡ":{"ha":717,"x_min":83,"x_max":640,"o":"m 353 -14 q 215 3 272 -14 q 97 50 158 19 l 83 264 l 108 264 l 188 88 q 279 41 235 53 q 371 29 324 29 q 511 78 464 29 q 558 217 558 128 q 527 321 558 283 q 438 388 496 358 q 303 456 381 417 q 201 517 242 486 q 139 588 160 547 q 118 690 118 629 q 155 805 118 750 q 250 895 192 860 q 375 931 308 931 q 487 915 436 931 q 592 872 538 900 l 606 664 l 581 664 l 519 829 q 451 875 485 861 q 374 889 418 889 q 243 840 289 889 q 197 722 197 792 q 219 633 197 669 q 285 568 240 597 q 397 506 329 539 q 535 428 481 465 q 615 344 589 392 q 640 225 640 297 q 598 102 640 156 q 490 17 556 49 q 353 -14 425 -14 m 375 1044 q 338 1060 353 1044 q 322 1097 322 1075 q 338 1135 322 1119 q 375 1150 353 1150 q 413 1135 397 1150 q 428 1097 428 1119 q 413 1060 428 1075 q 375 1044 397 1044 z "},"Ṣ":{"ha":717,"x_min":83,"x_max":640,"o":"m 353 -14 q 215 3 272 -14 q 97 50 158 19 l 83 264 l 108 264 l 188 88 q 279 41 235 53 q 371 29 324 29 q 511 78 464 29 q 558 217 558 128 q 527 321 558 283 q 438 388 496 358 q 303 456 381 417 q 201 517 242 486 q 139 588 160 547 q 118 690 118 629 q 155 805 118 750 q 250 895 192 860 q 375 931 308 931 q 487 915 436 931 q 592 872 538 900 l 606 664 l 581 664 l 519 829 q 451 875 485 861 q 374 889 418 889 q 243 840 289 889 q 197 722 197 792 q 219 633 197 669 q 285 568 240 597 q 397 506 329 539 q 535 428 481 465 q 615 344 589 392 q 640 225 640 297 q 598 102 640 156 q 490 17 556 49 q 353 -14 425 -14 z "},"Ṥ":{"ha":717,"x_min":83,"x_max":640,"o":"m 353 -14 q 215 3 272 -14 q 97 50 158 19 l 83 264 l 108 264 l 188 88 q 279 41 235 53 q 371 29 324 29 q 511 78 464 29 q 558 217 558 128 q 527 321 558 283 q 438 388 496 358 q 303 456 381 417 q 201 517 242 486 q 139 588 160 547 q 118 690 118 629 q 155 805 118 750 q 250 895 192 860 q 375 931 308 931 q 487 915 436 931 q 592 872 538 900 l 606 664 l 581 664 l 519 829 q 451 875 485 861 q 374 889 418 889 q 243 840 289 889 q 197 722 197 792 q 219 633 197 669 q 285 568 240 597 q 397 506 329 539 q 535 428 481 465 q 615 344 589 392 q 640 225 640 297 q 598 102 640 156 q 490 17 556 49 q 353 -14 425 -14 z "},"Ṧ":{"ha":717,"x_min":83,"x_max":640,"o":"m 353 -14 q 215 3 272 -14 q 97 50 158 19 l 83 264 l 108 264 l 188 88 q 279 41 235 53 q 371 29 324 29 q 511 78 464 29 q 558 217 558 128 q 527 321 558 283 q 438 388 496 358 q 303 456 381 417 q 201 517 242 486 q 139 588 160 547 q 118 690 118 629 q 155 805 118 750 q 250 895 192 860 q 375 931 308 931 q 487 915 436 931 q 592 872 538 900 l 606 664 l 581 664 l 519 829 q 451 875 485 861 q 374 889 418 889 q 243 840 289 889 q 197 722 197 792 q 219 633 197 669 q 285 568 240 597 q 397 506 329 539 q 535 428 481 465 q 615 344 589 392 q 640 225 640 297 q 598 102 640 156 q 490 17 556 49 q 353 -14 425 -14 z "},"Ṩ":{"ha":717,"x_min":83,"x_max":640,"o":"m 353 -14 q 215 3 272 -14 q 97 50 158 19 l 83 264 l 108 264 l 188 88 q 279 41 235 53 q 371 29 324 29 q 511 78 464 29 q 558 217 558 128 q 527 321 558 283 q 438 388 496 358 q 303 456 381 417 q 201 517 242 486 q 139 588 160 547 q 118 690 118 629 q 155 805 118 750 q 250 895 192 860 q 375 931 308 931 q 487 915 436 931 q 592 872 538 900 l 606 664 l 581 664 l 519 829 q 451 875 485 861 q 374 889 418 889 q 243 840 289 889 q 197 722 197 792 q 219 633 197 669 q 285 568 240 597 q 397 506 329 539 q 535 428 481 465 q 615 344 589 392 q 640 225 640 297 q 598 102 640 156 q 490 17 556 49 q 353 -14 425 -14 m 375 1044 q 338 1060 353 1044 q 322 1097 322 1075 q 338 1135 322 1119 q 375 1150 353 1150 q 413 1135 397 1150 q 428 1097 428 1119 q 413 1060 428 1075 q 375 1044 397 1044 z "},"Ť":{"ha":922,"x_min":63,"x_max":860,"o":"m 281 0 l 281 35 l 419 58 l 419 868 l 149 868 l 90 664 l 63 664 l 63 917 l 860 917 l 860 664 l 832 664 l 774 868 l 503 868 l 503 58 l 642 35 l 642 0 l 281 0 m 446 986 l 272 1197 l 292 1197 l 461 1056 l 631 1197 l 650 1197 l 476 986 l 446 986 z "},"Ț":{"ha":922,"x_min":63,"x_max":860,"o":"m 281 0 l 281 35 l 419 58 l 419 868 l 149 868 l 90 664 l 63 664 l 63 917 l 860 917 l 860 664 l 832 664 l 774 868 l 503 868 l 503 58 l 642 35 l 642 0 l 281 0 z "},"Ŧ":{"ha":922,"x_min":63,"x_max":860,"o":"m 281 0 l 281 35 l 419 58 l 419 450 l 233 450 l 233 499 l 419 499 l 419 868 l 149 868 l 90 664 l 63 664 l 63 917 l 860 917 l 860 664 l 832 664 l 774 868 l 503 868 l 503 499 l 689 499 l 689 450 l 503 450 l 503 58 l 642 35 l 642 0 l 281 0 z "},"Ţ":{"ha":922,"x_min":63,"x_max":860,"o":"m 281 0 l 281 35 l 419 58 l 419 868 l 149 868 l 90 664 l 63 664 l 63 917 l 860 917 l 860 664 l 832 664 l 774 868 l 503 868 l 503 58 l 642 35 l 642 0 l 458 0 l 403 -89 q 514 -138 467 -107 q 561 -224 561 -169 q 528 -303 561 -272 q 436 -333 494 -333 q 382 -324 408 -333 q 342 -303 356 -315 l 342 -285 l 346 -285 q 432 -307 386 -307 q 518 -237 518 -307 q 474 -168 518 -193 q 353 -122 431 -143 l 429 0 l 281 0 z "},"Ṭ":{"ha":922,"x_min":63,"x_max":860,"o":"m 281 0 l 281 35 l 419 58 l 419 868 l 149 868 l 90 664 l 63 664 l 63 917 l 860 917 l 860 664 l 832 664 l 774 868 l 503 868 l 503 58 l 642 35 l 642 0 l 281 0 z "},"Ṯ":{"ha":922,"x_min":63,"x_max":860,"o":"m 281 0 l 281 35 l 419 58 l 419 868 l 149 868 l 90 664 l 63 664 l 63 917 l 860 917 l 860 664 l 832 664 l 774 868 l 503 868 l 503 58 l 642 35 l 642 0 l 281 0 z "},"Ù":{"ha":1082,"x_min":90,"x_max":992,"o":"m 542 -14 q 367 22 444 -14 q 246 133 290 57 q 201 331 201 208 l 201 858 l 90 882 l 90 917 l 396 917 l 396 882 l 285 858 l 285 350 q 319 167 285 233 q 417 72 353 100 q 567 44 481 44 q 699 73 639 44 q 793 162 758 101 q 828 315 828 222 l 828 861 l 689 882 l 689 917 l 992 917 l 992 882 l 882 860 l 882 331 q 838 133 882 208 q 716 22 793 57 q 542 -14 639 -14 m 547 986 l 418 1110 q 381 1156 390 1136 q 372 1197 372 1176 l 438 1197 l 567 986 l 547 986 z "},"Ú":{"ha":1082,"x_min":90,"x_max":992,"o":"m 542 -14 q 367 22 444 -14 q 246 133 290 57 q 201 331 201 208 l 201 858 l 90 882 l 90 917 l 396 917 l 396 882 l 285 858 l 285 350 q 319 167 285 233 q 417 72 353 100 q 567 44 481 44 q 699 73 639 44 q 793 162 758 101 q 828 315 828 222 l 828 861 l 689 882 l 689 917 l 992 917 l 992 882 l 882 860 l 882 331 q 838 133 882 208 q 716 22 793 57 q 542 -14 639 -14 m 547 986 l 678 1197 l 743 1197 q 734 1156 743 1176 q 697 1110 725 1136 l 567 986 l 547 986 z "},"Û":{"ha":1082,"x_min":90,"x_max":992,"o":"m 542 -14 q 367 22 444 -14 q 246 133 290 57 q 201 331 201 208 l 201 858 l 90 882 l 90 917 l 396 917 l 396 882 l 285 858 l 285 350 q 319 167 285 233 q 417 72 353 100 q 567 44 481 44 q 699 73 639 44 q 793 162 758 101 q 828 315 828 222 l 828 861 l 689 882 l 689 917 l 992 917 l 992 882 l 882 860 l 882 331 q 838 133 882 208 q 716 22 793 57 q 542 -14 639 -14 m 368 986 l 542 1197 l 572 1197 l 746 986 l 726 986 l 557 1128 l 388 986 l 368 986 z "},"Ũ":{"ha":1082,"x_min":90,"x_max":992,"o":"m 542 -14 q 367 22 444 -14 q 246 133 290 57 q 201 331 201 208 l 201 858 l 90 882 l 90 917 l 396 917 l 396 882 l 285 858 l 285 350 q 319 167 285 233 q 417 72 353 100 q 567 44 481 44 q 699 73 639 44 q 793 162 758 101 q 828 315 828 222 l 828 861 l 689 882 l 689 917 l 992 917 l 992 882 l 882 860 l 882 331 q 838 133 882 208 q 716 22 793 57 q 542 -14 639 -14 m 363 1014 q 417 1141 390 1110 q 479 1172 444 1172 q 526 1156 504 1172 q 568 1119 549 1140 q 607 1083 588 1099 q 646 1067 626 1067 q 692 1092 672 1067 q 735 1172 713 1117 l 751 1172 q 697 1044 724 1075 q 635 1014 669 1014 q 588 1030 610 1014 q 546 1067 565 1046 q 507 1103 526 1088 q 468 1119 488 1119 q 422 1094 442 1119 q 379 1014 401 1069 l 363 1014 z "},"Ü":{"ha":1082,"x_min":90,"x_max":992,"o":"m 542 -14 q 367 22 444 -14 q 246 133 290 57 q 201 331 201 208 l 201 858 l 90 882 l 90 917 l 396 917 l 396 882 l 285 858 l 285 350 q 319 167 285 233 q 417 72 353 100 q 567 44 481 44 q 699 73 639 44 q 793 162 758 101 q 828 315 828 222 l 828 861 l 689 882 l 689 917 l 992 917 l 992 882 l 882 860 l 882 331 q 838 133 882 208 q 716 22 793 57 q 542 -14 639 -14 m 426 1036 q 386 1053 403 1036 q 369 1093 369 1069 q 386 1133 369 1117 q 426 1150 403 1150 q 467 1133 450 1150 q 483 1093 483 1117 q 467 1053 483 1069 q 426 1036 450 1036 m 688 1036 q 647 1053 664 1036 q 631 1093 631 1069 q 647 1133 631 1117 q 688 1150 664 1150 q 728 1133 711 1150 q 744 1093 744 1117 q 728 1053 744 1069 q 688 1036 711 1036 z "},"Ū":{"ha":1082,"x_min":90,"x_max":992,"o":"m 542 -14 q 367 22 444 -14 q 246 133 290 57 q 201 331 201 208 l 201 858 l 90 882 l 90 917 l 396 917 l 396 882 l 285 858 l 285 350 q 319 167 285 233 q 417 72 353 100 q 567 44 481 44 q 699 73 639 44 q 793 162 758 101 q 828 315 828 222 l 828 861 l 689 882 l 689 917 l 992 917 l 992 882 l 882 860 l 882 331 q 838 133 882 208 q 716 22 793 57 q 542 -14 639 -14 m 381 1068 l 381 1118 l 733 1118 l 733 1068 l 381 1068 z "},"Ŭ":{"ha":1082,"x_min":90,"x_max":992,"o":"m 542 -14 q 367 22 444 -14 q 246 133 290 57 q 201 331 201 208 l 201 858 l 90 882 l 90 917 l 396 917 l 396 882 l 285 858 l 285 350 q 319 167 285 233 q 417 72 353 100 q 567 44 481 44 q 699 73 639 44 q 793 162 758 101 q 828 315 828 222 l 828 861 l 689 882 l 689 917 l 992 917 l 992 882 l 882 860 l 882 331 q 838 133 882 208 q 716 22 793 57 q 542 -14 639 -14 m 557 986 q 435 1039 475 986 q 368 1197 396 1092 l 386 1197 q 433 1101 407 1133 q 490 1058 460 1069 q 557 1046 521 1046 q 624 1058 593 1046 q 681 1101 654 1069 q 728 1197 707 1133 l 746 1197 q 678 1039 718 1092 q 557 986 639 986 z "},"Ů":{"ha":1082,"x_min":90,"x_max":992,"o":"m 542 -14 q 367 22 444 -14 q 246 133 290 57 q 201 331 201 208 l 201 858 l 90 882 l 90 917 l 396 917 l 396 882 l 285 858 l 285 350 q 319 167 285 233 q 417 72 353 100 q 567 44 481 44 q 699 73 639 44 q 793 162 758 101 q 828 315 828 222 l 828 861 l 689 882 l 689 917 l 992 917 l 992 882 l 882 860 l 882 331 q 838 133 882 208 q 716 22 793 57 q 542 -14 639 -14 m 557 986 q 474 1018 506 986 q 442 1097 442 1050 q 474 1176 442 1144 q 557 1208 506 1208 q 641 1176 610 1208 q 672 1097 672 1144 q 641 1018 672 1050 q 557 986 610 986 m 564 1011 q 601 1030 588 1011 q 615 1088 615 1049 q 598 1160 615 1136 q 550 1183 581 1183 q 513 1166 526 1183 q 499 1108 499 1149 q 564 1011 499 1011 z "},"Ű":{"ha":1082,"x_min":90,"x_max":992,"o":"m 542 -14 q 367 22 444 -14 q 246 133 290 57 q 201 331 201 208 l 201 858 l 90 882 l 90 917 l 396 917 l 396 882 l 285 858 l 285 350 q 319 167 285 233 q 417 72 353 100 q 567 44 481 44 q 699 73 639 44 q 793 162 758 101 q 828 315 828 222 l 828 861 l 689 882 l 689 917 l 992 917 l 992 882 l 882 860 l 882 331 q 838 133 882 208 q 716 22 793 57 q 542 -14 639 -14 m 469 986 l 544 1197 l 597 1197 q 602 1156 604 1176 q 581 1110 600 1135 l 489 986 l 469 986 m 625 986 l 700 1197 l 753 1197 q 758 1156 760 1176 q 736 1110 756 1135 l 644 986 l 625 986 z "},"Ų":{"ha":1082,"x_min":90,"x_max":992,"o":"m 542 -14 q 367 22 444 -14 q 246 133 290 57 q 201 331 201 208 l 201 858 l 90 882 l 90 917 l 396 917 l 396 882 l 285 858 l 285 350 q 319 167 285 233 q 417 72 353 100 q 567 44 481 44 q 699 73 639 44 q 793 162 758 101 q 828 315 828 222 l 828 861 l 689 882 l 689 917 l 992 917 l 992 882 l 882 860 l 882 331 q 844 147 882 219 q 741 35 807 74 q 589 -11 675 -4 q 522 -112 544 -64 q 499 -207 499 -160 q 522 -278 499 -256 q 588 -300 546 -300 q 631 -293 610 -300 q 671 -271 651 -286 l 675 -271 l 675 -289 q 633 -321 661 -308 q 569 -333 606 -333 q 482 -305 517 -333 q 447 -221 447 -276 q 476 -114 447 -165 q 557 -14 506 -62 q 542 -14 550 -14 z "},"Ụ":{"ha":1082,"x_min":90,"x_max":992,"o":"m 542 -14 q 367 22 444 -14 q 246 133 290 57 q 201 331 201 208 l 201 858 l 90 882 l 90 917 l 396 917 l 396 882 l 285 858 l 285 350 q 319 167 285 233 q 417 72 353 100 q 567 44 481 44 q 699 73 639 44 q 793 162 758 101 q 828 315 828 222 l 828 861 l 689 882 l 689 917 l 992 917 l 992 882 l 882 860 l 882 331 q 838 133 882 208 q 716 22 793 57 q 542 -14 639 -14 z "},"Ȕ":{"ha":1082,"x_min":90,"x_max":992,"o":"m 542 -14 q 367 22 444 -14 q 246 133 290 57 q 201 331 201 208 l 201 858 l 90 882 l 90 917 l 396 917 l 396 882 l 285 858 l 285 350 q 319 167 285 233 q 417 72 353 100 q 567 44 481 44 q 699 73 639 44 q 793 162 758 101 q 828 315 828 222 l 828 861 l 689 882 l 689 917 l 992 917 l 992 882 l 882 860 l 882 331 q 838 133 882 208 q 716 22 793 57 q 542 -14 639 -14 m 469 986 l 369 1110 q 348 1156 350 1135 q 353 1197 346 1176 l 406 1197 l 489 986 l 469 986 m 625 986 l 525 1110 q 503 1156 506 1135 q 508 1197 501 1176 l 561 1197 l 644 986 l 625 986 z "},"Ȗ":{"ha":1082,"x_min":90,"x_max":992,"o":"m 542 -14 q 367 22 444 -14 q 246 133 290 57 q 201 331 201 208 l 201 858 l 90 882 l 90 917 l 396 917 l 396 882 l 285 858 l 285 350 q 319 167 285 233 q 417 72 353 100 q 567 44 481 44 q 699 73 639 44 q 793 162 758 101 q 828 315 828 222 l 828 861 l 689 882 l 689 917 l 992 917 l 992 882 l 882 860 l 882 331 q 838 133 882 208 q 716 22 793 57 q 542 -14 639 -14 m 368 986 q 435 1144 396 1092 q 557 1197 475 1197 q 678 1144 639 1197 q 746 986 718 1092 l 728 986 q 681 1082 707 1050 q 624 1126 654 1114 q 557 1138 593 1138 q 490 1126 521 1138 q 433 1082 460 1114 q 386 986 407 1050 l 368 986 z "},"Ủ":{"ha":1082,"x_min":90,"x_max":992,"o":"m 542 -14 q 367 22 444 -14 q 246 133 290 57 q 201 331 201 208 l 201 858 l 90 882 l 90 917 l 396 917 l 396 882 l 285 858 l 285 350 q 319 167 285 233 q 417 72 353 100 q 567 44 481 44 q 699 73 639 44 q 793 162 758 101 q 828 315 828 222 l 828 861 l 689 882 l 689 917 l 992 917 l 992 882 l 882 860 l 882 331 q 838 133 882 208 q 716 22 793 57 q 542 -14 639 -14 m 492 985 l 492 986 q 581 1022 549 1001 q 613 1076 613 1043 q 585 1134 613 1111 q 486 1167 557 1157 l 494 1215 q 624 1172 588 1207 q 660 1099 660 1136 q 619 1019 660 1046 q 501 975 579 993 l 492 985 z "},"Ṹ":{"ha":1082,"x_min":90,"x_max":992,"o":"m 542 -14 q 367 22 444 -14 q 246 133 290 57 q 201 331 201 208 l 201 858 l 90 882 l 90 917 l 396 917 l 396 882 l 285 858 l 285 350 q 319 167 285 233 q 417 72 353 100 q 567 44 481 44 q 699 73 639 44 q 793 162 758 101 q 828 315 828 222 l 828 861 l 689 882 l 689 917 l 992 917 l 992 882 l 882 860 l 882 331 q 838 133 882 208 q 716 22 793 57 q 542 -14 639 -14 z "},"Ṻ":{"ha":1082,"x_min":90,"x_max":992,"o":"m 542 -14 q 367 22 444 -14 q 246 133 290 57 q 201 331 201 208 l 201 858 l 90 882 l 90 917 l 396 917 l 396 882 l 285 858 l 285 350 q 319 167 285 233 q 417 72 353 100 q 567 44 481 44 q 699 73 639 44 q 793 162 758 101 q 828 315 828 222 l 828 861 l 689 882 l 689 917 l 992 917 l 992 882 l 882 860 l 882 331 q 838 133 882 208 q 716 22 793 57 q 542 -14 639 -14 z "},"Ư":{"ha":1085,"x_min":90,"x_max":1179,"o":"m 542 -14 q 367 22 444 -14 q 246 133 290 57 q 201 331 201 208 l 201 858 l 90 882 l 90 917 l 396 917 l 396 882 l 285 858 l 285 350 q 319 167 285 233 q 417 72 353 100 q 567 44 481 44 q 699 73 639 44 q 793 162 758 101 q 828 315 828 222 l 828 861 l 689 882 l 689 917 l 1029 917 q 1096 931 1078 917 q 1114 986 1114 946 l 1114 1040 l 1118 1044 l 1142 1044 q 1172 1035 1164 1044 q 1179 993 1179 1026 q 1142 911 1179 940 q 1040 882 1106 882 l 992 882 l 882 860 l 882 331 q 838 133 882 208 q 716 22 793 57 q 542 -14 639 -14 z "},"Ứ":{"ha":1085,"x_min":90,"x_max":1179,"o":"m 542 -14 q 367 22 444 -14 q 246 133 290 57 q 201 331 201 208 l 201 858 l 90 882 l 90 917 l 396 917 l 396 882 l 285 858 l 285 350 q 319 167 285 233 q 417 72 353 100 q 567 44 481 44 q 699 73 639 44 q 793 162 758 101 q 828 315 828 222 l 828 861 l 689 882 l 689 917 l 1029 917 q 1096 931 1078 917 q 1114 986 1114 946 l 1114 1040 l 1118 1044 l 1142 1044 q 1172 1035 1164 1044 q 1179 993 1179 1026 q 1142 911 1179 940 q 1040 882 1106 882 l 992 882 l 882 860 l 882 331 q 838 133 882 208 q 716 22 793 57 q 542 -14 639 -14 m 549 986 l 679 1197 l 744 1197 q 735 1156 744 1176 q 699 1110 726 1136 l 568 986 l 549 986 z "},"Ự":{"ha":1085,"x_min":90,"x_max":1179,"o":"m 542 -14 q 367 22 444 -14 q 246 133 290 57 q 201 331 201 208 l 201 858 l 90 882 l 90 917 l 396 917 l 396 882 l 285 858 l 285 350 q 319 167 285 233 q 417 72 353 100 q 567 44 481 44 q 699 73 639 44 q 793 162 758 101 q 828 315 828 222 l 828 861 l 689 882 l 689 917 l 1029 917 q 1096 931 1078 917 q 1114 986 1114 946 l 1114 1040 l 1118 1044 l 1142 1044 q 1172 1035 1164 1044 q 1179 993 1179 1026 q 1142 911 1179 940 q 1040 882 1106 882 l 992 882 l 882 860 l 882 331 q 838 133 882 208 q 716 22 793 57 q 542 -14 639 -14 z "},"Ừ":{"ha":1085,"x_min":90,"x_max":1179,"o":"m 542 -14 q 367 22 444 -14 q 246 133 290 57 q 201 331 201 208 l 201 858 l 90 882 l 90 917 l 396 917 l 396 882 l 285 858 l 285 350 q 319 167 285 233 q 417 72 353 100 q 567 44 481 44 q 699 73 639 44 q 793 162 758 101 q 828 315 828 222 l 828 861 l 689 882 l 689 917 l 1029 917 q 1096 931 1078 917 q 1114 986 1114 946 l 1114 1040 l 1118 1044 l 1142 1044 q 1172 1035 1164 1044 q 1179 993 1179 1026 q 1142 911 1179 940 q 1040 882 1106 882 l 992 882 l 882 860 l 882 331 q 838 133 882 208 q 716 22 793 57 q 542 -14 639 -14 m 549 986 l 419 1110 q 383 1156 392 1136 q 374 1197 374 1176 l 439 1197 l 568 986 l 549 986 z "},"Ử":{"ha":1085,"x_min":90,"x_max":1179,"o":"m 542 -14 q 367 22 444 -14 q 246 133 290 57 q 201 331 201 208 l 201 858 l 90 882 l 90 917 l 396 917 l 396 882 l 285 858 l 285 350 q 319 167 285 233 q 417 72 353 100 q 567 44 481 44 q 699 73 639 44 q 793 162 758 101 q 828 315 828 222 l 828 861 l 689 882 l 689 917 l 1029 917 q 1096 931 1078 917 q 1114 986 1114 946 l 1114 1040 l 1118 1044 l 1142 1044 q 1172 1035 1164 1044 q 1179 993 1179 1026 q 1142 911 1179 940 q 1040 882 1106 882 l 992 882 l 882 860 l 882 331 q 838 133 882 208 q 716 22 793 57 q 542 -14 639 -14 m 493 985 l 493 986 q 582 1022 550 1001 q 614 1076 614 1043 q 586 1134 614 1111 q 488 1167 558 1157 l 496 1215 q 625 1172 589 1207 q 661 1099 661 1136 q 621 1019 661 1046 q 503 975 581 993 l 493 985 z "},"Ữ":{"ha":1085,"x_min":90,"x_max":1179,"o":"m 542 -14 q 367 22 444 -14 q 246 133 290 57 q 201 331 201 208 l 201 858 l 90 882 l 90 917 l 396 917 l 396 882 l 285 858 l 285 350 q 319 167 285 233 q 417 72 353 100 q 567 44 481 44 q 699 73 639 44 q 793 162 758 101 q 828 315 828 222 l 828 861 l 689 882 l 689 917 l 1029 917 q 1096 931 1078 917 q 1114 986 1114 946 l 1114 1040 l 1118 1044 l 1142 1044 q 1172 1035 1164 1044 q 1179 993 1179 1026 q 1142 911 1179 940 q 1040 882 1106 882 l 992 882 l 882 860 l 882 331 q 838 133 882 208 q 716 22 793 57 q 542 -14 639 -14 m 364 1014 q 419 1141 392 1110 q 481 1172 446 1172 q 528 1156 506 1172 q 569 1119 550 1140 q 608 1083 589 1099 q 647 1067 628 1067 q 694 1092 674 1067 q 736 1172 714 1117 l 753 1172 q 698 1044 725 1075 q 636 1014 671 1014 q 589 1030 611 1014 q 547 1067 567 1046 q 508 1103 528 1088 q 469 1119 489 1119 q 423 1094 443 1119 q 381 1014 403 1069 l 364 1014 z "},"Ẁ":{"ha":1325,"x_min":21,"x_max":1304,"o":"m 372 -7 l 121 861 l 21 882 l 21 917 l 336 917 l 336 882 l 213 861 l 413 158 l 417 158 l 667 924 l 696 924 l 963 157 l 967 157 l 1158 858 l 1035 882 l 1035 917 l 1304 917 l 1304 882 l 1215 860 l 963 -7 l 933 -7 l 667 733 l 661 733 l 401 -7 l 372 -7 m 672 986 l 543 1110 q 506 1156 515 1136 q 497 1197 497 1176 l 563 1197 l 692 986 l 672 986 z "},"Ẃ":{"ha":1325,"x_min":21,"x_max":1304,"o":"m 372 -7 l 121 861 l 21 882 l 21 917 l 336 917 l 336 882 l 213 861 l 413 158 l 417 158 l 667 924 l 696 924 l 963 157 l 967 157 l 1158 858 l 1035 882 l 1035 917 l 1304 917 l 1304 882 l 1215 860 l 963 -7 l 933 -7 l 667 733 l 661 733 l 401 -7 l 372 -7 m 672 986 l 803 1197 l 868 1197 q 859 1156 868 1176 q 822 1110 850 1136 l 692 986 l 672 986 z "},"Ŵ":{"ha":1325,"x_min":21,"x_max":1304,"o":"m 372 -7 l 121 861 l 21 882 l 21 917 l 336 917 l 336 882 l 213 861 l 413 158 l 417 158 l 667 924 l 696 924 l 963 157 l 967 157 l 1158 858 l 1035 882 l 1035 917 l 1304 917 l 1304 882 l 1215 860 l 963 -7 l 933 -7 l 667 733 l 661 733 l 401 -7 l 372 -7 m 493 986 l 667 1197 l 697 1197 l 871 986 l 851 986 l 682 1128 l 513 986 l 493 986 z "},"Ẅ":{"ha":1325,"x_min":21,"x_max":1304,"o":"m 372 -7 l 121 861 l 21 882 l 21 917 l 336 917 l 336 882 l 213 861 l 413 158 l 417 158 l 667 924 l 696 924 l 963 157 l 967 157 l 1158 858 l 1035 882 l 1035 917 l 1304 917 l 1304 882 l 1215 860 l 963 -7 l 933 -7 l 667 733 l 661 733 l 401 -7 l 372 -7 m 551 1036 q 511 1053 528 1036 q 494 1093 494 1069 q 511 1133 494 1117 q 551 1150 528 1150 q 592 1133 575 1150 q 608 1093 608 1117 q 592 1053 608 1069 q 551 1036 575 1036 m 813 1036 q 772 1053 789 1036 q 756 1093 756 1069 q 772 1133 756 1117 q 813 1150 789 1150 q 853 1133 836 1150 q 869 1093 869 1117 q 853 1053 869 1069 q 813 1036 836 1036 z "},"Ỳ":{"ha":956,"x_min":49,"x_max":907,"o":"m 317 0 l 317 35 l 442 58 l 442 435 l 140 858 l 49 882 l 49 917 l 338 917 l 338 882 l 244 863 l 244 857 l 508 479 l 749 857 l 749 863 l 649 882 l 649 917 l 907 917 l 907 882 l 821 867 l 525 431 l 525 58 l 650 35 l 650 0 l 317 0 m 483 986 l 354 1110 q 317 1156 326 1136 q 308 1197 308 1176 l 374 1197 l 503 986 l 483 986 z "},"Ý":{"ha":956,"x_min":49,"x_max":907,"o":"m 317 0 l 317 35 l 442 58 l 442 435 l 140 858 l 49 882 l 49 917 l 338 917 l 338 882 l 244 863 l 244 857 l 508 479 l 749 857 l 749 863 l 649 882 l 649 917 l 907 917 l 907 882 l 821 867 l 525 431 l 525 58 l 650 35 l 650 0 l 317 0 m 483 986 l 614 1197 l 679 1197 q 670 1156 679 1176 q 633 1110 661 1136 l 503 986 l 483 986 z "},"Ŷ":{"ha":956,"x_min":49,"x_max":907,"o":"m 317 0 l 317 35 l 442 58 l 442 435 l 140 858 l 49 882 l 49 917 l 338 917 l 338 882 l 244 863 l 244 857 l 508 479 l 749 857 l 749 863 l 649 882 l 649 917 l 907 917 l 907 882 l 821 867 l 525 431 l 525 58 l 650 35 l 650 0 l 317 0 m 304 986 l 478 1197 l 508 1197 l 682 986 l 663 986 l 493 1128 l 324 986 l 304 986 z "},"Ÿ":{"ha":956,"x_min":49,"x_max":907,"o":"m 317 0 l 317 35 l 442 58 l 442 435 l 140 858 l 49 882 l 49 917 l 338 917 l 338 882 l 244 863 l 244 857 l 508 479 l 749 857 l 749 863 l 649 882 l 649 917 l 907 917 l 907 882 l 821 867 l 525 431 l 525 58 l 650 35 l 650 0 l 317 0 m 363 1036 q 322 1053 339 1036 q 306 1093 306 1069 q 322 1133 306 1117 q 363 1150 339 1150 q 403 1133 386 1150 q 419 1093 419 1117 q 403 1053 419 1069 q 363 1036 386 1036 m 624 1036 q 583 1053 600 1036 q 567 1093 567 1069 q 583 1133 567 1117 q 624 1150 600 1150 q 664 1133 647 1150 q 681 1093 681 1117 q 664 1053 681 1069 q 624 1036 647 1036 z "},"Ỹ":{"ha":956,"x_min":49,"x_max":907,"o":"m 317 0 l 317 35 l 442 58 l 442 435 l 140 858 l 49 882 l 49 917 l 338 917 l 338 882 l 244 863 l 244 857 l 508 479 l 749 857 l 749 863 l 649 882 l 649 917 l 907 917 l 907 882 l 821 867 l 525 431 l 525 58 l 650 35 l 650 0 l 317 0 m 299 1014 q 353 1141 326 1110 q 415 1172 381 1172 q 463 1156 440 1172 q 504 1119 485 1140 q 543 1083 524 1099 q 582 1067 563 1067 q 628 1092 608 1067 q 671 1172 649 1117 l 688 1172 q 633 1044 660 1075 q 571 1014 606 1014 q 524 1030 546 1014 q 482 1067 501 1046 q 443 1103 463 1088 q 404 1119 424 1119 q 358 1094 378 1119 q 315 1014 338 1069 l 299 1014 z "},"Ȳ":{"ha":956,"x_min":49,"x_max":907,"o":"m 317 0 l 317 35 l 442 58 l 442 435 l 140 858 l 49 882 l 49 917 l 338 917 l 338 882 l 244 863 l 244 857 l 508 479 l 749 857 l 749 863 l 649 882 l 649 917 l 907 917 l 907 882 l 821 867 l 525 431 l 525 58 l 650 35 l 650 0 l 317 0 m 317 1068 l 317 1118 l 669 1118 l 669 1068 l 317 1068 z "},"Ỵ":{"ha":956,"x_min":49,"x_max":907,"o":"m 317 0 l 317 35 l 442 58 l 442 435 l 140 858 l 49 882 l 49 917 l 338 917 l 338 882 l 244 863 l 244 857 l 508 479 l 749 857 l 749 863 l 649 882 l 649 917 l 907 917 l 907 882 l 821 867 l 525 431 l 525 58 l 650 35 l 650 0 l 317 0 z "},"Ỷ":{"ha":956,"x_min":49,"x_max":907,"o":"m 317 0 l 317 35 l 442 58 l 442 435 l 140 858 l 49 882 l 49 917 l 338 917 l 338 882 l 244 863 l 244 857 l 508 479 l 749 857 l 749 863 l 649 882 l 649 917 l 907 917 l 907 882 l 821 867 l 525 431 l 525 58 l 650 35 l 650 0 l 317 0 m 428 985 l 428 986 q 517 1022 485 1001 q 549 1076 549 1043 q 521 1134 549 1111 q 422 1167 493 1157 l 431 1215 q 560 1172 524 1207 q 596 1099 596 1136 q 556 1019 596 1046 q 438 975 515 993 l 428 985 z "},"Ẏ":{"ha":956,"x_min":49,"x_max":907,"o":"m 317 0 l 317 35 l 442 58 l 442 435 l 140 858 l 49 882 l 49 917 l 338 917 l 338 882 l 244 863 l 244 857 l 508 479 l 749 857 l 749 863 l 649 882 l 649 917 l 907 917 l 907 882 l 821 867 l 525 431 l 525 58 l 650 35 l 650 0 l 317 0 m 493 1044 q 456 1060 471 1044 q 440 1097 440 1075 q 456 1135 440 1119 q 493 1150 471 1150 q 531 1135 515 1150 q 546 1097 546 1119 q 531 1060 546 1075 q 493 1044 515 1044 z "},"Ź":{"ha":871,"x_min":125,"x_max":746,"o":"m 125 0 l 125 28 l 625 868 l 228 868 l 169 678 l 142 678 l 142 917 l 731 917 l 731 889 l 229 49 l 660 49 l 718 253 l 746 253 l 746 0 l 125 0 m 426 986 l 557 1197 l 622 1197 q 613 1156 622 1176 q 576 1110 604 1136 l 446 986 l 426 986 z "},"Ž":{"ha":871,"x_min":125,"x_max":746,"o":"m 125 0 l 125 28 l 625 868 l 228 868 l 169 678 l 142 678 l 142 917 l 731 917 l 731 889 l 229 49 l 660 49 l 718 253 l 746 253 l 746 0 l 125 0 m 421 986 l 247 1197 l 267 1197 l 436 1056 l 606 1197 l 625 1197 l 451 986 l 421 986 z "},"Ż":{"ha":871,"x_min":125,"x_max":746,"o":"m 125 0 l 125 28 l 625 868 l 228 868 l 169 678 l 142 678 l 142 917 l 731 917 l 731 889 l 229 49 l 660 49 l 718 253 l 746 253 l 746 0 l 125 0 m 436 1044 q 399 1060 414 1044 q 383 1097 383 1075 q 399 1135 383 1119 q 436 1150 414 1150 q 474 1135 458 1150 q 489 1097 489 1119 q 474 1060 489 1075 q 436 1044 458 1044 z "},"Ẓ":{"ha":871,"x_min":125,"x_max":746,"o":"m 125 0 l 125 28 l 625 868 l 228 868 l 169 678 l 142 678 l 142 917 l 731 917 l 731 889 l 229 49 l 660 49 l 718 253 l 746 253 l 746 0 l 125 0 z "},"Ə":{"ha":958,"x_min":97,"x_max":861,"o":"m 457 -12 q 201 99 294 -12 q 97 408 107 210 l 103 415 l 774 415 q 775 468 775 442 q 732 675 775 586 q 607 814 689 764 q 408 864 525 864 q 232 828 311 864 q 106 744 153 793 l 99 744 l 99 768 q 229 885 144 839 q 426 931 314 931 q 666 871 569 931 q 812 708 763 811 q 861 478 861 606 q 829 286 861 375 q 740 131 797 197 q 611 26 683 64 q 457 -12 539 -12 m 475 32 q 606 72 544 32 q 711 187 668 111 q 768 371 754 263 l 186 371 q 272 122 201 211 q 475 32 342 32 z "},"Ŋ":{"ha":1089,"x_min":90,"x_max":999,"o":"m 90 0 l 90 35 l 199 58 l 199 858 l 90 882 l 90 917 l 272 917 l 838 150 l 838 858 l 718 882 l 718 917 l 999 917 l 999 882 l 890 858 l 890 -61 q 866 -198 890 -149 q 806 -278 842 -247 q 635 -333 739 -333 q 592 -325 600 -333 q 583 -293 583 -317 l 583 -262 l 592 -254 l 653 -254 q 799 -209 760 -254 q 838 -54 838 -164 l 838 22 l 254 800 l 254 63 l 381 35 l 381 0 l 90 0 z "},"Ð":{"ha":993,"x_min":90,"x_max":896,"o":"m 90 0 l 90 35 l 201 58 l 201 450 l 90 450 l 90 499 l 201 499 l 201 858 l 90 882 l 90 917 l 414 917 q 675 863 567 917 q 840 714 783 808 q 896 500 896 619 q 835 234 896 346 q 665 61 775 122 q 404 0 556 0 l 90 0 m 517 450 l 285 450 l 285 49 l 431 49 q 628 101 544 49 q 759 244 713 153 q 806 457 806 336 q 761 674 806 581 q 631 817 717 767 q 424 868 546 868 l 285 868 l 285 499 l 517 499 l 517 450 z "},"Þ":{"ha":800,"x_min":90,"x_max":728,"o":"m 90 0 l 90 35 l 199 58 l 199 858 l 90 882 l 90 917 l 390 917 l 390 882 l 282 858 l 282 736 l 365 736 q 628 676 529 736 q 728 488 728 617 q 680 352 728 411 q 547 258 632 293 q 347 224 461 224 l 282 224 l 282 58 l 390 35 l 390 0 l 90 0 m 376 688 l 282 688 l 282 272 l 386 272 q 515 298 458 272 q 603 370 571 324 q 635 476 635 417 q 565 638 635 588 q 376 688 494 688 z "},"Ǆ":{"ha":1864,"x_min":90,"x_max":1739,"o":"m 90 0 l 90 35 l 201 58 l 201 858 l 90 882 l 90 917 l 414 917 q 675 863 567 917 q 840 714 783 808 q 896 500 896 619 q 835 234 896 346 q 665 61 775 122 q 404 0 556 0 l 90 0 m 424 868 l 285 868 l 285 49 l 431 49 q 628 101 544 49 q 759 244 713 153 q 806 457 806 336 q 761 674 806 581 q 631 817 717 767 q 424 868 546 868 m 1118 0 l 1118 28 l 1618 868 l 1221 868 l 1163 678 l 1135 678 l 1135 917 l 1724 917 l 1724 889 l 1222 49 l 1653 49 l 1711 253 l 1739 253 l 1739 0 l 1118 0 m 1414 986 l 1240 1197 l 1260 1197 l 1429 1056 l 1599 1197 l 1618 1197 l 1444 986 l 1414 986 z "},"Ǉ":{"ha":1349,"x_min":90,"x_max":1251,"o":"m 90 0 l 90 35 l 199 58 l 199 858 l 90 882 l 90 917 l 407 917 l 407 882 l 282 858 l 282 49 l 658 49 l 724 294 l 751 294 l 751 0 l 90 0 m 913 -240 q 881 -232 894 -240 q 867 -201 867 -224 q 870 -184 867 -199 q 879 -137 874 -169 l 888 -137 q 926 -147 911 -144 q 958 -150 940 -150 q 1010 -133 988 -150 q 1044 -69 1032 -117 q 1057 71 1057 -22 l 1057 858 l 946 882 l 946 917 l 1251 917 l 1251 882 l 1140 858 l 1140 292 q 1122 13 1140 119 q 1051 -150 1104 -94 q 992 -210 1014 -190 q 954 -235 971 -229 q 913 -240 938 -240 z "},"Ǌ":{"ha":1589,"x_min":90,"x_max":1492,"o":"m 90 0 l 90 35 l 199 58 l 199 858 l 90 882 l 90 917 l 272 917 l 838 150 l 838 858 l 718 882 l 718 917 l 999 917 l 999 882 l 890 858 l 890 -7 l 860 -7 l 254 800 l 254 63 l 381 35 l 381 0 l 90 0 m 1153 -240 q 1121 -232 1135 -240 q 1107 -201 1107 -224 q 1110 -184 1107 -199 q 1119 -137 1114 -169 l 1128 -137 q 1166 -147 1151 -144 q 1199 -150 1181 -150 q 1250 -133 1228 -150 q 1285 -69 1272 -117 q 1297 71 1297 -22 l 1297 858 l 1186 882 l 1186 917 l 1492 917 l 1492 882 l 1381 858 l 1381 292 q 1363 13 1381 119 q 1292 -150 1344 -94 q 1233 -210 1254 -190 q 1194 -235 1211 -229 q 1153 -240 1178 -240 z "},"Ђ":{"ha":1078,"x_min":63,"x_max":967,"o":"m 258 0 l 258 35 l 397 58 l 397 868 l 149 868 l 90 664 l 63 664 l 63 917 l 860 917 l 860 678 l 832 678 l 774 868 l 481 868 l 481 450 q 596 516 531 490 q 731 542 661 542 q 910 477 854 542 q 967 278 967 413 q 949 10 967 114 q 872 -156 931 -93 q 815 -211 838 -193 q 776 -235 793 -229 q 739 -240 758 -240 q 707 -232 721 -240 q 693 -201 693 -224 q 697 -184 693 -199 q 706 -137 700 -169 l 714 -137 q 752 -147 738 -144 q 785 -150 767 -150 q 840 -132 817 -150 q 876 -58 863 -114 q 889 111 889 -3 l 889 233 q 867 385 889 332 q 799 460 844 439 q 682 481 753 481 q 481 410 572 481 l 481 58 l 619 35 l 619 0 l 258 0 z "},"Є":{"ha":992,"x_min":97,"x_max":864,"o":"m 546 -14 q 315 45 417 -14 q 156 205 214 104 q 97 433 97 306 q 134 629 97 539 q 236 788 171 719 q 387 893 301 856 q 569 931 472 931 q 726 910 667 931 q 843 863 786 889 l 850 647 l 821 647 l 765 807 q 663 867 711 847 q 558 888 615 888 q 361 835 447 888 q 226 693 275 782 q 174 497 176 604 l 563 497 l 597 613 l 625 613 l 625 336 l 597 336 l 563 449 l 175 449 q 236 229 183 324 q 374 83 289 135 q 565 31 460 31 q 675 46 629 31 q 761 86 721 61 l 836 261 l 864 261 l 851 54 q 769 18 811 33 q 674 -6 728 3 q 546 -14 621 -14 z "},"Ѕ":{"ha":717,"x_min":83,"x_max":640,"o":"m 353 -14 q 215 3 272 -14 q 97 50 158 19 l 83 264 l 108 264 l 188 88 q 279 41 235 53 q 371 29 324 29 q 511 78 464 29 q 558 217 558 128 q 527 321 558 283 q 438 388 496 358 q 303 456 381 417 q 201 517 242 486 q 139 588 160 547 q 118 690 118 629 q 155 805 118 750 q 250 895 192 860 q 375 931 308 931 q 487 915 436 931 q 592 872 538 900 l 606 664 l 581 664 l 519 829 q 451 875 485 861 q 374 889 418 889 q 243 840 289 889 q 197 722 197 792 q 219 633 197 669 q 285 568 240 597 q 397 506 329 539 q 535 428 481 465 q 615 344 589 392 q 640 225 640 297 q 598 102 640 156 q 490 17 556 49 q 353 -14 425 -14 z "},"І":{"ha":494,"x_min":97,"x_max":397,"o":"m 97 0 l 97 35 l 206 58 l 206 858 l 97 882 l 97 917 l 397 917 l 397 882 l 289 858 l 289 58 l 397 35 l 397 0 l 97 0 z "},"Ї":{"ha":494,"x_min":60,"x_max":435,"o":"m 97 0 l 97 35 l 206 58 l 206 858 l 97 882 l 97 917 l 397 917 l 397 882 l 289 858 l 289 58 l 397 35 l 397 0 l 97 0 m 117 1036 q 76 1053 93 1036 q 60 1093 60 1069 q 76 1133 60 1117 q 117 1150 93 1150 q 157 1133 140 1150 q 174 1093 174 1117 q 157 1053 174 1069 q 117 1036 140 1036 m 378 1036 q 338 1053 354 1036 q 321 1093 321 1069 q 338 1133 321 1117 q 378 1150 354 1150 q 418 1133 401 1150 q 435 1093 435 1117 q 418 1053 435 1069 q 378 1036 401 1036 z "},"Ј":{"ha":500,"x_min":18,"x_max":403,"o":"m 64 -240 q 32 -232 46 -240 q 18 -201 18 -224 q 22 -184 18 -199 q 31 -137 25 -169 l 39 -137 q 77 -147 63 -144 q 110 -150 92 -150 q 161 -133 139 -150 q 196 -69 183 -117 q 208 71 208 -22 l 208 858 l 97 882 l 97 917 l 403 917 l 403 882 l 292 858 l 292 292 q 274 13 292 119 q 203 -150 256 -94 q 144 -210 165 -190 q 106 -235 122 -229 q 64 -240 89 -240 z "},"Љ":{"ha":1258,"x_min":42,"x_max":1210,"o":"m 849 0 l 535 0 l 535 35 l 643 58 l 643 868 l 314 868 l 314 799 q 306 509 314 644 q 279 270 297 374 q 233 107 261 167 q 167 17 206 49 q 86 -14 129 -14 q 49 -6 57 -14 q 42 26 42 3 l 42 71 l 50 79 l 57 79 q 181 165 138 79 q 242 411 225 250 q 258 797 258 572 l 258 858 l 150 882 l 150 917 l 863 917 l 863 882 l 726 858 l 726 525 l 847 525 q 1116 459 1022 525 q 1210 281 1210 393 q 1168 137 1210 200 q 1047 37 1126 74 q 849 0 967 0 m 846 476 l 726 476 l 726 49 l 851 49 q 1055 109 988 49 q 1122 261 1122 169 q 1055 424 1122 372 q 846 476 988 476 z "},"Њ":{"ha":1339,"x_min":90,"x_max":1290,"o":"m 90 0 l 90 35 l 199 58 l 199 858 l 90 882 l 90 917 l 401 917 l 401 882 l 282 858 l 282 511 l 724 511 l 724 858 l 615 882 l 615 917 l 943 917 l 943 882 l 807 858 l 807 511 l 928 511 q 1197 447 1103 511 q 1290 274 1290 383 q 1249 133 1290 194 q 1127 35 1207 71 q 929 0 1047 0 l 615 0 l 615 35 l 724 58 l 724 463 l 282 463 l 282 58 l 401 35 l 401 0 l 90 0 m 926 463 l 807 463 l 807 49 l 932 49 q 1135 107 1068 49 q 1203 254 1203 165 q 1135 413 1203 363 q 926 463 1068 463 z "},"Ћ":{"ha":1117,"x_min":63,"x_max":1075,"o":"m 258 0 l 258 35 l 397 58 l 397 868 l 149 868 l 90 664 l 63 664 l 63 917 l 860 917 l 860 664 l 832 664 l 774 868 l 481 868 l 481 450 q 596 516 531 490 q 731 542 661 542 q 910 489 854 542 q 967 335 967 436 l 967 60 l 1075 35 l 1075 0 l 889 0 l 889 294 q 839 439 889 397 q 682 481 789 481 q 481 410 572 481 l 481 58 l 619 35 l 619 0 l 258 0 z "},"Џ":{"ha":1047,"x_min":90,"x_max":957,"o":"m 472 0 l 90 0 l 90 35 l 199 58 l 199 858 l 90 882 l 90 917 l 401 917 l 401 882 l 282 858 l 282 49 l 765 49 l 765 858 l 646 882 l 646 917 l 957 917 l 957 882 l 849 858 l 849 58 l 957 35 l 957 0 l 575 0 l 538 -204 l 510 -204 l 472 0 z "},"А":{"ha":985,"x_min":46,"x_max":939,"o":"m 46 0 l 46 35 l 119 51 l 474 924 l 503 924 l 856 53 l 939 35 l 939 0 l 643 0 l 643 35 l 761 53 l 644 347 l 293 347 l 181 53 l 304 35 l 304 0 l 46 0 m 313 396 l 625 396 l 467 797 l 313 396 z "},"Б":{"ha":849,"x_min":90,"x_max":779,"o":"m 418 0 l 90 0 l 90 35 l 199 58 l 199 858 l 90 882 l 90 917 l 715 917 l 715 692 l 688 692 l 629 868 l 282 868 l 282 521 l 417 521 q 685 455 592 521 q 779 279 779 389 q 738 137 779 200 q 616 37 696 74 q 418 0 536 0 m 415 472 l 282 472 l 282 49 l 421 49 q 624 109 557 49 q 692 260 692 169 q 624 421 692 369 q 415 472 557 472 z "},"В":{"ha":824,"x_min":90,"x_max":751,"o":"m 90 0 l 90 35 l 199 58 l 199 858 l 90 882 l 90 917 l 342 917 q 507 894 432 917 q 626 826 582 871 q 671 711 671 781 q 622 574 671 636 q 482 486 574 511 q 681 412 610 469 q 751 267 751 354 q 704 130 751 190 q 576 35 657 69 q 390 0 494 0 l 90 0 m 353 867 l 282 867 l 282 497 l 361 497 q 522 545 460 497 q 585 679 585 593 q 524 819 585 772 q 353 867 463 867 m 406 449 l 282 449 l 282 47 l 415 47 q 544 73 489 47 q 632 144 600 99 q 664 247 664 189 q 594 400 664 351 q 406 449 524 449 z "},"Г":{"ha":813,"x_min":90,"x_max":715,"o":"m 90 0 l 90 35 l 201 58 l 201 858 l 93 882 l 93 917 l 715 917 l 715 692 l 688 692 l 629 868 l 285 868 l 285 58 l 439 35 l 439 0 l 90 0 z "},"Ѓ":{"ha":813,"x_min":90,"x_max":715,"o":"m 90 0 l 90 35 l 201 58 l 201 858 l 93 882 l 93 917 l 715 917 l 715 692 l 688 692 l 629 868 l 285 868 l 285 58 l 439 35 l 439 0 l 90 0 z "},"Ғ":{"ha":813,"x_min":90,"x_max":715,"o":"m 90 0 l 90 35 l 201 58 l 201 450 l 90 450 l 90 499 l 201 499 l 201 858 l 93 882 l 93 917 l 715 917 l 715 692 l 688 692 l 629 868 l 285 868 l 285 499 l 517 499 l 517 450 l 285 450 l 285 58 l 439 35 l 439 0 l 90 0 z "},"Д":{"ha":978,"x_min":28,"x_max":929,"o":"m 146 882 l 146 917 l 888 917 l 888 882 l 779 858 l 779 49 l 929 49 l 929 -204 l 901 -204 l 843 0 l 114 0 l 56 -204 l 28 -204 l 28 49 l 136 49 q 210 284 185 161 q 245 530 236 407 q 254 765 254 653 l 254 858 l 146 882 m 201 49 l 696 49 l 696 868 l 313 868 l 313 764 q 290 401 313 586 q 201 49 267 217 z "},"Е":{"ha":849,"x_min":90,"x_max":751,"o":"m 90 0 l 90 35 l 199 58 l 199 858 l 90 882 l 90 917 l 713 917 l 713 692 l 685 692 l 626 868 l 282 868 l 282 497 l 535 497 l 569 613 l 597 613 l 597 336 l 569 336 l 535 449 l 282 449 l 282 49 l 665 49 l 724 239 l 751 239 l 751 0 l 90 0 z "},"Ё":{"ha":849,"x_min":90,"x_max":751,"o":"m 90 0 l 90 35 l 199 58 l 199 858 l 90 882 l 90 917 l 713 917 l 713 692 l 685 692 l 626 868 l 282 868 l 282 497 l 535 497 l 569 613 l 597 613 l 597 336 l 569 336 l 535 449 l 282 449 l 282 49 l 665 49 l 724 239 l 751 239 l 751 0 l 90 0 m 325 1036 q 285 1053 301 1036 q 268 1093 268 1069 q 285 1133 268 1117 q 325 1150 301 1150 q 365 1133 349 1150 q 382 1093 382 1117 q 365 1053 382 1069 q 325 1036 349 1036 m 586 1036 q 546 1053 563 1036 q 529 1093 529 1069 q 546 1133 529 1117 q 586 1150 563 1150 q 626 1133 610 1150 q 643 1093 643 1117 q 626 1053 643 1069 q 586 1036 610 1036 z "},"Ж":{"ha":1381,"x_min":35,"x_max":1346,"o":"m 536 0 l 536 35 l 647 58 l 647 463 l 190 0 l 35 0 l 35 35 l 129 51 l 567 486 l 149 865 l 67 882 l 67 917 l 351 917 l 351 882 l 244 856 l 647 476 l 647 858 l 536 882 l 536 917 l 842 917 l 842 882 l 731 858 l 731 476 l 1133 856 l 1026 882 l 1026 917 l 1301 917 l 1301 882 l 1219 865 l 810 494 l 1254 51 l 1346 35 l 1346 0 l 1188 0 l 731 463 l 731 58 l 842 35 l 842 0 l 536 0 z "},"З":{"ha":842,"x_min":118,"x_max":751,"o":"m 413 931 q 554 907 489 931 q 659 835 619 883 q 699 711 699 786 q 649 572 699 636 q 507 481 600 507 q 688 405 625 464 q 751 254 751 346 q 712 117 751 178 q 597 21 672 56 q 415 -14 522 -14 q 295 -5 344 -14 q 208 20 246 4 q 131 54 169 36 l 118 261 l 146 261 l 221 86 q 306 46 260 61 q 415 31 353 31 q 601 90 539 31 q 664 246 664 149 q 603 398 664 347 q 433 449 542 449 l 276 449 l 276 497 l 389 497 q 550 549 488 497 q 613 704 613 601 q 557 839 613 790 q 408 888 501 888 q 321 871 364 888 q 233 817 278 854 l 175 647 l 146 647 l 153 863 q 225 896 189 881 q 306 921 261 911 q 413 931 350 931 z "},"И":{"ha":1103,"x_min":90,"x_max":1013,"o":"m 90 0 l 90 35 l 199 58 l 199 858 l 90 882 l 90 917 l 401 917 l 401 882 l 282 858 l 282 199 l 821 801 l 821 858 l 701 882 l 701 917 l 1013 917 l 1013 882 l 904 858 l 904 58 l 1013 35 l 1013 0 l 701 0 l 701 35 l 821 58 l 821 725 l 282 122 l 282 58 l 401 35 l 401 0 l 90 0 z "},"Й":{"ha":1103,"x_min":90,"x_max":1013,"o":"m 90 0 l 90 35 l 199 58 l 199 858 l 90 882 l 90 917 l 401 917 l 401 882 l 282 858 l 282 199 l 821 801 l 821 858 l 701 882 l 701 917 l 1013 917 l 1013 882 l 904 858 l 904 58 l 1013 35 l 1013 0 l 701 0 l 701 35 l 821 58 l 821 725 l 282 122 l 282 58 l 401 35 l 401 0 l 90 0 m 546 986 q 388 1044 439 986 q 338 1197 338 1103 l 421 1197 q 449 1066 421 1117 q 546 1015 476 1015 q 643 1066 615 1015 q 671 1197 671 1117 l 754 1197 q 703 1044 754 1103 q 546 986 653 986 z "},"Ӣ":{"ha":1103,"x_min":90,"x_max":1013,"o":"m 90 0 l 90 35 l 199 58 l 199 858 l 90 882 l 90 917 l 401 917 l 401 882 l 282 858 l 282 199 l 821 801 l 821 858 l 701 882 l 701 917 l 1013 917 l 1013 882 l 904 858 l 904 58 l 1013 35 l 1013 0 l 701 0 l 701 35 l 821 58 l 821 725 l 282 122 l 282 58 l 401 35 l 401 0 l 90 0 z "},"К":{"ha":976,"x_min":90,"x_max":928,"o":"m 90 0 l 90 35 l 201 58 l 201 858 l 90 882 l 90 917 l 396 917 l 396 882 l 285 858 l 285 476 l 688 856 l 581 882 l 581 917 l 856 917 l 856 882 l 774 865 l 364 494 l 835 51 l 928 35 l 928 0 l 769 0 l 285 463 l 285 58 l 396 35 l 396 0 l 90 0 z "},"Ќ":{"ha":976,"x_min":90,"x_max":928,"o":"m 90 0 l 90 35 l 201 58 l 201 858 l 90 882 l 90 917 l 396 917 l 396 882 l 285 858 l 285 476 l 688 856 l 581 882 l 581 917 l 856 917 l 856 882 l 774 865 l 364 494 l 835 51 l 928 35 l 928 0 l 769 0 l 285 463 l 285 58 l 396 35 l 396 0 l 90 0 z "},"Л":{"ha":968,"x_min":42,"x_max":878,"o":"m 567 0 l 567 35 l 686 58 l 686 868 l 314 868 l 314 799 q 306 509 314 644 q 279 270 297 374 q 233 107 261 167 q 167 17 206 49 q 86 -14 129 -14 q 49 -6 57 -14 q 42 26 42 3 l 42 71 l 50 79 l 57 79 q 181 165 138 79 q 242 411 225 250 q 258 797 258 572 l 258 858 l 150 882 l 150 917 l 878 917 l 878 882 l 769 858 l 769 58 l 878 35 l 878 0 l 567 0 z "},"М":{"ha":1299,"x_min":83,"x_max":1215,"o":"m 83 0 l 83 35 l 193 58 l 222 853 l 103 882 l 103 917 l 318 917 l 656 126 l 1000 917 l 1211 917 l 1211 882 l 1094 854 l 1118 58 l 1215 35 l 1215 0 l 929 0 l 929 35 l 1032 57 l 1017 824 l 653 -7 l 624 -7 l 271 829 l 254 57 l 367 35 l 367 0 l 83 0 z "},"Н":{"ha":1089,"x_min":90,"x_max":999,"o":"m 90 0 l 90 35 l 199 58 l 199 858 l 90 882 l 90 917 l 401 917 l 401 882 l 282 858 l 282 497 l 807 497 l 807 858 l 688 882 l 688 917 l 999 917 l 999 882 l 890 858 l 890 58 l 999 35 l 999 0 l 688 0 l 688 35 l 807 58 l 807 449 l 282 449 l 282 58 l 401 35 l 401 0 l 90 0 z "},"О":{"ha":1065,"x_min":97,"x_max":968,"o":"m 532 -14 q 309 47 407 -14 q 154 215 211 108 q 97 458 97 322 q 154 701 97 594 q 309 869 211 808 q 532 931 407 931 q 756 869 658 931 q 911 701 854 808 q 968 458 968 594 q 911 215 968 322 q 756 47 854 108 q 532 -14 658 -14 m 561 28 q 728 76 656 28 q 842 210 801 124 q 882 415 882 297 q 832 665 882 558 q 697 831 782 772 q 508 890 613 890 q 340 843 414 890 q 225 709 267 796 q 183 504 183 622 q 234 253 183 361 q 370 87 285 146 q 561 28 456 28 z "},"П":{"ha":1047,"x_min":90,"x_max":957,"o":"m 90 0 l 90 35 l 199 58 l 199 858 l 90 882 l 90 917 l 957 917 l 957 882 l 849 858 l 849 58 l 957 35 l 957 0 l 646 0 l 646 35 l 765 58 l 765 868 l 282 868 l 282 58 l 401 35 l 401 0 l 90 0 z "},"Р":{"ha":803,"x_min":90,"x_max":731,"o":"m 90 0 l 90 35 l 201 58 l 201 858 l 90 882 l 90 917 l 368 917 q 631 857 532 917 q 731 668 731 797 q 683 533 731 592 q 549 439 635 474 q 350 404 464 404 l 285 404 l 285 58 l 410 35 l 410 0 l 90 0 m 285 868 l 285 453 l 389 453 q 517 478 461 453 q 606 551 574 504 q 638 657 638 597 q 567 818 638 768 q 379 868 497 868 l 285 868 z "},"С":{"ha":992,"x_min":97,"x_max":864,"o":"m 546 -14 q 315 45 417 -14 q 156 205 214 104 q 97 433 97 306 q 134 629 97 539 q 236 788 171 719 q 387 893 301 856 q 569 931 472 931 q 726 910 667 931 q 843 863 786 889 l 850 647 l 821 647 l 765 807 q 663 867 711 847 q 558 888 615 888 q 358 833 444 888 q 223 688 272 779 q 174 489 174 597 q 225 249 174 351 q 365 88 276 146 q 565 31 454 31 q 675 46 629 31 q 761 86 721 61 l 836 261 l 864 261 l 851 54 q 769 18 811 33 q 674 -6 728 3 q 546 -14 621 -14 z "},"Т":{"ha":922,"x_min":63,"x_max":860,"o":"m 281 0 l 281 35 l 419 58 l 419 868 l 149 868 l 90 664 l 63 664 l 63 917 l 860 917 l 860 664 l 832 664 l 774 868 l 503 868 l 503 58 l 642 35 l 642 0 l 281 0 z "},"У":{"ha":928,"x_min":49,"x_max":900,"o":"m 475 153 q 382 20 426 54 q 288 -14 338 -14 q 251 -6 258 -14 q 243 26 243 3 l 243 71 l 251 79 l 258 79 q 379 116 336 79 q 456 217 422 153 l 136 860 l 49 882 l 49 917 l 344 917 l 344 882 l 228 863 l 228 858 l 492 322 l 507 322 l 764 858 l 764 863 l 642 882 l 642 917 l 900 917 l 900 882 l 826 867 l 521 244 l 475 153 z "},"Ў":{"ha":928,"x_min":49,"x_max":900,"o":"m 475 153 q 382 20 426 54 q 288 -14 338 -14 q 251 -6 258 -14 q 243 26 243 3 l 243 71 l 251 79 l 258 79 q 379 116 336 79 q 456 217 422 153 l 136 860 l 49 882 l 49 917 l 344 917 l 344 882 l 228 863 l 228 858 l 492 322 l 507 322 l 764 858 l 764 863 l 642 882 l 642 917 l 900 917 l 900 882 l 826 867 l 521 244 l 475 153 m 488 986 q 330 1044 381 986 q 279 1197 279 1103 l 363 1197 q 390 1066 363 1117 q 488 1015 418 1015 q 585 1066 557 1015 q 613 1197 613 1117 l 696 1197 q 645 1044 696 1103 q 488 986 594 986 z "},"Ӯ":{"ha":928,"x_min":49,"x_max":900,"o":"m 475 153 q 382 20 426 54 q 288 -14 338 -14 q 251 -6 258 -14 q 243 26 243 3 l 243 71 l 251 79 l 258 79 q 379 116 336 79 q 456 217 422 153 l 136 860 l 49 882 l 49 917 l 344 917 l 344 882 l 228 863 l 228 858 l 492 322 l 507 322 l 764 858 l 764 863 l 642 882 l 642 917 l 900 917 l 900 882 l 826 867 l 521 244 l 475 153 z "},"Ф":{"ha":1124,"x_min":56,"x_max":1068,"o":"m 414 -28 l 414 7 l 522 31 l 522 97 q 274 147 379 101 q 113 270 169 193 q 56 444 56 347 q 113 633 56 550 q 274 766 169 717 q 522 819 379 815 l 522 886 l 414 910 l 414 944 l 714 944 l 714 910 l 606 886 l 606 819 q 851 768 747 814 q 1011 646 954 722 q 1068 472 1068 569 q 1011 285 1068 368 q 851 152 954 201 q 606 97 747 103 l 606 31 l 714 7 l 714 -28 l 414 -28 m 522 779 q 242 701 343 779 q 142 490 142 622 q 189 316 142 392 q 322 195 236 240 q 522 140 408 150 l 522 779 m 982 429 q 935 603 982 528 q 803 723 888 678 q 606 778 718 768 l 606 139 q 883 218 785 139 q 982 429 982 297 z "},"Х":{"ha":986,"x_min":49,"x_max":938,"o":"m 49 0 l 49 35 l 147 57 l 446 463 l 165 858 l 69 882 l 69 917 l 375 917 l 375 882 l 267 860 l 267 853 l 506 515 l 747 853 l 747 858 l 646 882 l 646 917 l 903 917 l 903 882 l 819 863 l 533 476 l 829 58 l 938 35 l 938 0 l 625 0 l 625 35 l 729 54 l 729 60 l 474 422 l 218 63 l 218 57 l 328 35 l 328 0 l 49 0 z "},"Ц":{"ha":1047,"x_min":90,"x_max":999,"o":"m 913 0 l 90 0 l 90 35 l 199 58 l 199 858 l 90 882 l 90 917 l 401 917 l 401 882 l 282 858 l 282 49 l 765 49 l 765 858 l 646 882 l 646 917 l 957 917 l 957 882 l 849 858 l 849 49 l 999 49 l 999 -204 l 971 -204 l 913 0 z "},"Ч":{"ha":1010,"x_min":56,"x_max":919,"o":"m 608 0 l 608 35 l 728 58 l 728 439 q 621 411 681 425 q 496 397 561 397 q 322 423 394 397 q 209 513 249 449 q 169 694 169 578 l 169 858 l 56 882 l 56 917 l 364 917 l 364 882 l 253 858 l 253 693 q 313 503 253 560 q 514 446 372 446 q 624 455 564 446 q 728 482 685 464 l 728 858 l 608 882 l 608 917 l 919 917 l 919 882 l 811 858 l 811 58 l 919 35 l 919 0 l 608 0 z "},"Ш":{"ha":1464,"x_min":90,"x_max":1374,"o":"m 401 917 l 401 882 l 282 858 l 282 49 l 690 49 l 690 858 l 582 882 l 582 917 l 893 917 l 893 882 l 774 858 l 774 49 l 1182 49 l 1182 858 l 1063 882 l 1063 917 l 1374 917 l 1374 882 l 1265 858 l 1265 58 l 1374 35 l 1374 0 l 90 0 l 90 35 l 199 58 l 199 858 l 90 882 l 90 917 l 401 917 z "},"Щ":{"ha":1464,"x_min":90,"x_max":1415,"o":"m 401 917 l 401 882 l 282 858 l 282 49 l 690 49 l 690 858 l 582 882 l 582 917 l 893 917 l 893 882 l 774 858 l 774 49 l 1182 49 l 1182 858 l 1063 882 l 1063 917 l 1374 917 l 1374 882 l 1265 858 l 1265 49 l 1415 49 l 1415 -204 l 1388 -204 l 1329 0 l 90 0 l 90 35 l 199 58 l 199 858 l 90 882 l 90 917 l 401 917 z "},"Ъ":{"ha":969,"x_min":63,"x_max":921,"o":"m 560 0 l 246 0 l 246 35 l 354 58 l 354 868 l 149 868 l 90 664 l 63 664 l 63 917 l 574 917 l 574 882 l 438 858 l 438 525 l 558 525 q 827 459 733 525 q 921 281 921 393 q 879 137 921 200 q 758 37 838 74 q 560 0 678 0 m 557 476 l 438 476 l 438 49 l 563 49 q 766 109 699 49 q 833 261 833 169 q 766 424 833 372 q 557 476 699 476 z "},"Ы":{"ha":1308,"x_min":90,"x_max":1211,"o":"m 404 0 l 90 0 l 90 35 l 199 58 l 199 858 l 90 882 l 90 917 l 418 917 l 418 882 l 282 858 l 282 525 l 403 525 q 672 459 578 525 q 765 281 765 393 q 724 137 765 200 q 602 37 682 74 q 404 0 522 0 m 401 476 l 282 476 l 282 49 l 407 49 q 610 109 543 49 q 678 261 678 169 q 610 424 678 372 q 401 476 543 476 m 911 0 l 911 35 l 1019 58 l 1019 858 l 911 882 l 911 917 l 1211 917 l 1211 882 l 1103 858 l 1103 58 l 1211 35 l 1211 0 l 911 0 z "},"Ь":{"ha":814,"x_min":90,"x_max":765,"o":"m 404 0 l 90 0 l 90 35 l 199 58 l 199 858 l 90 882 l 90 917 l 418 917 l 418 882 l 282 858 l 282 525 l 403 525 q 672 459 578 525 q 765 281 765 393 q 724 137 765 200 q 602 37 682 74 q 404 0 522 0 m 401 476 l 282 476 l 282 49 l 407 49 q 610 109 543 49 q 678 261 678 169 q 610 424 678 372 q 401 476 543 476 z "},"Э":{"ha":975,"x_min":118,"x_max":878,"o":"m 451 31 q 701 130 610 31 q 792 415 792 229 q 790 449 792 432 l 419 449 l 385 336 l 357 336 l 357 613 l 385 613 l 419 497 l 788 497 q 725 705 774 617 q 601 841 676 793 q 432 889 526 889 q 326 872 374 889 q 225 813 278 856 l 168 647 l 139 647 l 146 863 q 267 910 204 890 q 432 931 331 931 q 667 869 567 931 q 823 701 768 808 q 878 458 878 594 q 822 209 878 315 q 667 44 767 103 q 436 -14 568 -14 q 308 -6 361 -14 q 213 18 254 3 q 131 54 171 33 l 118 261 l 146 261 l 221 86 q 322 46 267 61 q 451 31 376 31 z "},"Ю":{"ha":1426,"x_min":90,"x_max":1329,"o":"m 90 0 l 90 35 l 199 58 l 199 858 l 90 882 l 90 917 l 401 917 l 401 882 l 282 858 l 282 497 l 488 497 q 552 722 496 624 q 700 875 608 819 q 907 931 792 931 q 1124 869 1028 931 q 1274 701 1219 808 q 1329 458 1329 594 q 1274 215 1329 322 q 1124 47 1219 108 q 907 -14 1028 -14 q 693 46 788 -14 q 544 210 599 106 q 486 449 489 315 l 282 449 l 282 58 l 401 35 l 401 0 l 90 0 m 936 28 q 1097 76 1028 28 q 1204 210 1165 124 q 1243 415 1243 297 q 1195 665 1243 558 q 1065 831 1147 772 q 883 890 983 890 q 722 843 792 890 q 612 709 651 796 q 572 504 572 622 q 621 253 572 361 q 752 87 669 146 q 936 28 835 28 z "},"Я":{"ha":893,"x_min":35,"x_max":803,"o":"m 192 0 l 35 0 l 35 35 l 126 53 l 386 436 q 215 519 272 457 q 158 664 158 582 q 242 851 158 786 q 472 917 326 917 l 803 917 l 803 882 l 692 858 l 692 58 l 803 35 l 803 0 l 504 0 l 504 35 l 608 60 l 608 419 l 469 419 l 192 0 m 454 468 l 608 468 l 608 868 l 463 868 q 308 813 364 868 q 251 665 251 758 q 278 564 251 608 q 350 494 304 519 q 454 468 396 468 z "},"Ґ":{"ha":771,"x_min":90,"x_max":715,"o":"m 90 0 l 90 35 l 201 58 l 201 858 l 93 882 l 93 917 l 629 917 l 688 1121 l 715 1121 l 715 868 l 285 868 l 285 58 l 439 35 l 439 0 l 90 0 z "},"Қ":{"ha":957,"x_min":90,"x_max":943,"o":"m 90 0 l 90 35 l 201 58 l 201 858 l 90 882 l 90 917 l 396 917 l 396 882 l 285 858 l 285 476 l 688 856 l 581 882 l 581 917 l 856 917 l 856 882 l 774 865 l 364 494 l 838 49 l 943 49 l 943 -204 l 915 -204 l 857 0 l 769 0 l 285 463 l 285 58 l 396 35 l 396 0 l 90 0 z "},"Җ":{"ha":1374,"x_min":35,"x_max":1360,"o":"m 536 0 l 536 35 l 647 58 l 647 463 l 190 0 l 35 0 l 35 35 l 126 51 l 565 488 l 149 865 l 67 882 l 67 917 l 351 917 l 351 882 l 244 856 l 647 476 l 647 858 l 536 882 l 536 917 l 842 917 l 842 882 l 731 858 l 731 476 l 1133 856 l 1026 882 l 1026 917 l 1301 917 l 1301 882 l 1219 865 l 810 494 l 1257 49 l 1360 49 l 1360 -204 l 1332 -204 l 1274 0 l 1188 0 l 731 463 l 731 58 l 842 35 l 842 0 l 536 0 z "},"Ҳ":{"ha":957,"x_min":49,"x_max":943,"o":"m 49 0 l 49 35 l 147 57 l 446 463 l 165 858 l 69 882 l 69 917 l 375 917 l 375 882 l 267 860 l 267 853 l 506 515 l 747 853 l 747 858 l 646 882 l 646 917 l 903 917 l 903 882 l 819 863 l 533 476 l 835 49 l 943 49 l 943 -204 l 915 -204 l 857 0 l 625 0 l 625 35 l 729 54 l 729 60 l 474 422 l 218 63 l 218 57 l 328 35 l 328 0 l 49 0 z "},"Ң":{"ha":1089,"x_min":90,"x_max":1040,"o":"m 90 0 l 90 35 l 199 58 l 199 858 l 90 882 l 90 917 l 401 917 l 401 882 l 282 858 l 282 497 l 807 497 l 807 858 l 688 882 l 688 917 l 999 917 l 999 882 l 890 858 l 890 49 l 1040 49 l 1040 -204 l 1013 -204 l 954 0 l 688 0 l 688 35 l 807 58 l 807 449 l 282 449 l 282 58 l 401 35 l 401 0 l 90 0 z "},"Ҷ":{"ha":1010,"x_min":56,"x_max":961,"o":"m 169 694 l 169 858 l 56 882 l 56 917 l 364 917 l 364 882 l 253 858 l 253 693 q 313 503 253 560 q 514 446 372 446 q 624 455 564 446 q 728 482 685 464 l 728 858 l 608 882 l 608 917 l 919 917 l 919 882 l 811 858 l 811 49 l 961 49 l 961 -204 l 933 -204 l 875 0 l 608 0 l 608 35 l 728 58 l 728 439 q 619 411 681 425 q 486 397 558 397 q 320 420 392 397 q 209 508 249 443 q 169 694 169 572 z "},"Ү":{"ha":956,"x_min":49,"x_max":907,"o":"m 317 0 l 317 35 l 442 58 l 442 435 l 140 858 l 49 882 l 49 917 l 338 917 l 338 882 l 244 863 l 244 857 l 508 479 l 749 857 l 749 863 l 649 882 l 649 917 l 907 917 l 907 882 l 821 867 l 525 431 l 525 58 l 650 35 l 650 0 l 317 0 z "},"Ұ":{"ha":956,"x_min":49,"x_max":907,"o":"m 317 0 l 317 35 l 442 58 l 442 388 l 256 388 l 256 436 l 442 436 l 140 858 l 49 882 l 49 917 l 338 917 l 338 882 l 244 863 l 244 857 l 508 479 l 749 857 l 749 863 l 649 882 l 649 917 l 907 917 l 907 882 l 821 867 l 529 436 l 711 436 l 711 388 l 525 388 l 525 58 l 650 35 l 650 0 l 317 0 z "},"Һ":{"ha":1010,"x_min":90,"x_max":954,"o":"m 401 917 l 401 882 l 282 858 l 282 478 q 389 506 329 492 q 514 519 449 519 q 688 494 615 519 q 801 403 761 468 q 840 222 840 339 l 840 58 l 954 35 l 954 0 l 646 0 l 646 35 l 757 58 l 757 224 q 697 414 757 357 q 496 471 638 471 q 385 462 446 471 q 282 435 325 453 l 282 58 l 401 35 l 401 0 l 90 0 l 90 35 l 199 58 l 199 858 l 90 882 l 90 917 l 401 917 z "},"Ӏ":{"ha":494,"x_min":97,"x_max":397,"o":"m 97 0 l 97 35 l 206 58 l 206 858 l 97 882 l 97 917 l 397 917 l 397 882 l 289 858 l 289 58 l 397 35 l 397 0 l 97 0 z "},"Ә":{"ha":958,"x_min":97,"x_max":861,"o":"m 457 -12 q 201 99 294 -12 q 97 408 107 210 l 103 415 l 774 415 q 775 468 775 442 q 732 675 775 586 q 607 814 689 764 q 408 864 525 864 q 232 828 311 864 q 106 744 153 793 l 99 744 l 99 768 q 229 885 144 839 q 426 931 314 931 q 666 871 569 931 q 812 708 763 811 q 861 478 861 606 q 829 286 861 375 q 740 131 797 197 q 611 26 683 64 q 457 -12 539 -12 m 475 32 q 606 72 544 32 q 711 187 668 111 q 768 371 754 263 l 186 371 q 272 122 201 211 q 475 32 342 32 z "},"Ө":{"ha":1065,"x_min":97,"x_max":968,"o":"m 532 -14 q 309 47 407 -14 q 154 215 211 108 q 97 458 97 322 q 154 701 97 594 q 309 869 211 808 q 532 931 407 931 q 756 869 658 931 q 911 701 854 808 q 968 458 968 594 q 911 215 968 322 q 756 47 854 108 q 532 -14 658 -14 m 183 504 q 183 503 183 504 q 183 497 183 503 l 878 497 q 811 706 863 618 q 681 842 760 794 q 508 890 603 890 q 340 843 414 890 q 225 709 267 796 q 183 504 183 622 m 561 28 q 728 76 656 28 q 842 210 801 124 q 882 415 882 297 q 881 449 882 432 l 186 449 q 248 226 196 321 q 381 80 300 132 q 561 28 463 28 z "},"Ѣ":{"ha":951,"x_min":49,"x_max":903,"o":"m 542 0 l 228 0 l 228 35 l 336 58 l 336 718 l 135 718 l 76 556 l 49 556 l 49 767 l 336 767 l 336 858 l 228 882 l 228 917 l 528 917 l 528 882 l 419 858 l 419 767 l 735 767 l 735 556 l 707 556 l 649 718 l 419 718 l 419 483 l 540 483 q 809 423 715 483 q 903 260 903 363 q 861 127 903 186 q 739 34 819 68 q 542 0 658 0 m 539 435 l 419 435 l 419 49 l 544 49 q 748 103 681 49 q 815 240 815 158 q 748 388 815 342 q 539 435 681 435 z "},"Ѳ":{"ha":1065,"x_min":97,"x_max":968,"o":"m 532 -14 q 309 47 407 -14 q 154 215 211 108 q 97 458 97 322 q 154 701 97 594 q 309 869 211 808 q 532 931 407 931 q 756 869 658 931 q 911 701 854 808 q 968 458 968 594 q 911 215 968 322 q 756 47 854 108 q 532 -14 658 -14 m 183 504 q 185 472 183 488 q 329 518 250 511 q 490 514 408 525 q 647 488 571 503 q 783 469 722 474 q 878 486 843 465 q 814 701 865 610 q 683 841 763 792 q 508 890 604 890 q 340 843 414 890 q 225 709 267 796 q 183 504 183 622 m 561 28 q 728 76 656 28 q 842 210 801 124 q 882 415 882 297 q 881 451 882 433 q 758 409 828 414 q 610 416 689 404 q 454 442 532 428 q 308 460 376 457 q 186 438 239 463 q 251 221 199 313 q 383 78 303 129 q 561 28 464 28 z "},"Ѵ":{"ha":963,"x_min":49,"x_max":951,"o":"m 721 703 q 758 798 742 758 q 793 863 775 838 q 851 917 822 903 q 907 931 881 931 q 944 922 936 931 q 951 890 951 914 l 951 846 l 943 838 l 936 838 q 862 826 889 838 q 817 786 835 814 q 782 713 800 758 l 500 -7 l 471 -7 l 133 860 l 49 882 l 49 917 l 344 917 l 344 882 l 228 863 l 228 858 l 503 133 l 513 133 l 721 703 z "},"ȷ":{"ha":385,"x_min":75,"x_max":246,"o":"m 246 0 q 236 -128 246 -69 q 194 -233 226 -186 q 89 -319 161 -281 l 89 -297 q 149 -220 131 -258 q 172 -130 167 -182 q 176 0 176 -78 l 176 572 l 75 599 l 75 619 l 232 639 l 246 639 l 246 0 z "},"ĸ":{"ha":733,"x_min":67,"x_max":694,"o":"m 81 0 l 81 21 l 168 44 l 168 572 l 67 599 l 67 619 l 224 639 l 238 639 l 238 349 l 489 568 l 489 576 l 421 604 l 421 625 l 643 625 l 643 604 l 554 578 l 296 374 l 607 44 l 694 21 l 694 0 l 547 0 l 510 47 l 238 339 l 238 44 l 336 21 l 336 0 l 81 0 z "},"ẗ":{"ha":458,"x_min":8,"x_max":417,"o":"m 275 -14 q 183 22 218 -14 q 147 124 147 58 l 147 578 l 25 578 l 25 590 l 156 625 l 201 778 l 217 778 l 217 625 l 400 625 l 400 578 l 217 578 l 217 126 q 243 62 217 83 q 313 40 269 40 q 368 47 343 40 q 415 67 393 54 l 417 65 l 417 60 q 369 11 406 36 q 275 -14 333 -14 m 65 939 q 25 956 42 939 q 8 996 8 972 q 25 1036 8 1019 q 65 1053 42 1053 q 106 1036 89 1053 q 122 996 122 1019 q 106 956 122 972 q 65 939 89 939 m 326 939 q 286 956 303 939 q 269 996 269 972 q 286 1036 269 1019 q 326 1053 303 1053 q 367 1036 350 1053 q 383 996 383 1019 q 367 956 383 972 q 326 939 350 939 z "},"a":{"ha":869,"x_min":46,"x_max":824,"o":"m 46 0 l 46 35 l 113 49 l 417 785 l 446 785 l 747 54 l 824 35 l 824 0 l 565 0 l 565 35 l 665 51 l 567 293 l 265 293 l 169 50 l 274 35 l 274 0 l 46 0 m 283 336 l 550 336 l 415 668 l 283 336 z "},"b":{"ha":738,"x_min":90,"x_max":665,"o":"m 90 0 l 90 35 l 183 56 l 183 722 l 90 743 l 90 778 l 310 778 q 453 758 389 778 q 557 700 518 739 q 596 604 596 661 q 554 488 596 542 q 433 413 513 435 q 603 350 542 399 q 665 226 665 301 q 624 110 665 161 q 513 30 583 60 q 353 0 442 0 l 90 0 m 319 731 l 257 731 l 257 425 l 326 425 q 467 465 413 425 q 521 578 521 504 q 468 693 521 656 q 319 731 415 731 m 367 381 l 257 381 l 257 44 l 375 44 q 530 90 469 44 q 590 210 590 136 q 530 340 590 299 q 367 381 469 381 z "},"c":{"ha":889,"x_min":97,"x_max":761,"o":"m 499 -14 q 291 34 382 -14 q 149 167 200 82 q 97 368 97 253 q 129 535 97 458 q 217 670 161 613 q 348 760 274 728 q 507 793 422 793 q 642 776 590 793 q 743 735 694 758 l 749 553 l 721 553 l 668 686 q 584 731 625 717 q 497 744 543 744 q 323 699 397 744 q 208 578 249 654 q 167 414 167 503 q 210 210 167 297 q 330 76 254 124 q 503 28 406 28 q 599 41 558 28 q 674 76 640 54 l 733 219 l 761 219 l 750 44 q 644 3 700 19 q 499 -14 589 -14 z "},"d":{"ha":889,"x_min":90,"x_max":792,"o":"m 90 0 l 90 35 l 186 56 l 186 722 l 90 743 l 90 778 l 374 778 q 601 731 507 778 q 743 605 694 685 q 792 425 792 525 q 740 199 792 294 q 592 51 688 103 q 365 0 496 0 l 90 0 m 381 732 l 260 732 l 260 46 l 386 46 q 558 90 485 46 q 672 211 632 133 q 713 389 713 289 q 626 638 713 544 q 381 732 539 732 z "},"e":{"ha":765,"x_min":90,"x_max":668,"o":"m 90 0 l 90 35 l 185 56 l 185 722 l 90 743 l 90 778 l 635 778 l 635 586 l 606 586 l 560 732 l 258 732 l 258 425 l 481 425 l 507 522 l 535 522 l 535 286 l 507 286 l 481 381 l 258 381 l 258 46 l 593 46 l 640 203 l 668 203 l 668 0 l 90 0 z "},"f":{"ha":733,"x_min":90,"x_max":636,"o":"m 90 0 l 90 35 l 186 56 l 186 722 l 93 743 l 93 778 l 636 778 l 636 586 l 607 586 l 561 732 l 260 732 l 260 425 l 482 425 l 507 522 l 535 522 l 535 286 l 507 286 l 482 381 l 260 381 l 260 56 l 372 35 l 372 0 l 90 0 z "},"g":{"ha":921,"x_min":97,"x_max":851,"o":"m 499 -14 q 291 35 382 -14 q 149 169 200 83 q 97 368 97 256 q 129 537 97 460 q 219 672 161 614 q 351 761 276 729 q 511 793 425 793 q 661 776 606 793 q 767 735 717 760 l 774 553 l 744 553 l 696 679 q 602 729 647 714 q 504 744 557 744 q 324 699 400 744 q 208 578 249 654 q 167 408 167 501 q 213 206 167 290 q 338 76 260 121 q 510 31 417 31 q 596 38 554 31 q 683 64 638 44 l 683 282 l 567 306 l 567 340 l 851 340 l 851 306 l 757 285 l 757 68 q 638 8 708 29 q 499 -14 567 -14 z "},"h":{"ha":971,"x_min":90,"x_max":881,"o":"m 90 0 l 90 35 l 185 56 l 185 722 l 90 743 l 90 778 l 363 778 l 363 743 l 258 722 l 258 425 l 714 425 l 714 722 l 610 743 l 610 778 l 881 778 l 881 743 l 788 722 l 788 56 l 881 35 l 881 0 l 610 0 l 610 35 l 714 56 l 714 379 l 258 379 l 258 56 l 363 35 l 363 0 l 90 0 z "},"i":{"ha":451,"x_min":97,"x_max":354,"o":"m 97 0 l 97 35 l 189 56 l 189 722 l 97 743 l 97 778 l 354 778 l 354 743 l 263 722 l 263 56 l 354 35 l 354 0 l 97 0 z "},"ı":{"ha":451,"x_min":97,"x_max":354,"o":"m 97 0 l 97 35 l 189 56 l 189 722 l 97 743 l 97 778 l 354 778 l 354 743 l 263 722 l 263 56 l 354 35 l 354 0 l 97 0 z "},"j":{"ha":444,"x_min":18,"x_max":347,"o":"m 57 -204 q 30 -197 42 -204 q 18 -171 18 -189 q 21 -156 18 -169 q 29 -115 24 -143 l 36 -115 q 68 -124 56 -121 q 96 -126 81 -126 q 140 -112 122 -126 q 169 -59 158 -99 q 179 60 179 -19 l 179 722 l 86 743 l 86 778 l 347 778 l 347 743 l 253 722 l 253 249 q 236 11 253 103 q 175 -128 219 -81 q 125 -178 143 -161 q 92 -199 107 -194 q 57 -204 78 -204 z "},"k":{"ha":850,"x_min":90,"x_max":801,"o":"m 90 0 l 90 35 l 186 56 l 186 722 l 90 743 l 90 778 l 357 778 l 357 743 l 260 722 l 260 406 l 603 722 l 515 743 l 515 778 l 763 778 l 763 743 l 683 728 l 331 415 l 714 51 l 801 35 l 801 0 l 661 0 l 260 392 l 260 56 l 357 35 l 357 0 l 90 0 z "},"l":{"ha":763,"x_min":90,"x_max":665,"o":"m 90 0 l 90 35 l 183 56 l 183 722 l 90 743 l 90 778 l 367 778 l 367 743 l 257 722 l 257 46 l 585 46 l 638 250 l 665 250 l 665 0 l 90 0 z "},"m":{"ha":1151,"x_min":83,"x_max":1068,"o":"m 83 0 l 83 35 l 178 54 l 204 719 l 100 743 l 100 778 l 294 778 l 582 121 l 871 778 l 1064 778 l 1064 743 l 963 719 l 983 54 l 1068 35 l 1068 0 l 818 0 l 818 35 l 908 53 l 893 701 l 578 -6 l 553 -6 l 249 697 l 235 53 l 332 35 l 332 0 l 83 0 z "},"n":{"ha":968,"x_min":90,"x_max":878,"o":"m 90 0 l 90 36 l 185 56 l 185 724 l 90 743 l 90 778 l 253 778 l 733 139 l 733 724 l 629 743 l 629 778 l 878 778 l 878 743 l 785 724 l 785 -6 l 753 -6 l 236 669 l 236 60 l 346 36 l 346 0 l 90 0 z "},"o":{"ha":949,"x_min":97,"x_max":851,"o":"m 474 -14 q 280 38 365 -14 q 146 181 194 90 q 97 389 97 272 q 146 597 97 506 q 280 741 194 689 q 474 793 365 793 q 667 741 582 793 q 802 597 753 689 q 851 389 851 506 q 802 181 851 272 q 667 38 753 90 q 474 -14 582 -14 m 499 35 q 644 74 581 35 q 742 184 707 113 q 776 353 776 256 q 733 560 776 472 q 617 697 690 649 q 453 746 544 746 q 306 707 369 746 q 206 597 242 668 q 169 428 169 525 q 214 220 169 308 q 333 83 258 132 q 499 35 407 35 z "},"p":{"ha":721,"x_min":90,"x_max":649,"o":"m 90 0 l 90 35 l 186 56 l 186 722 l 90 743 l 90 778 l 349 778 q 566 727 483 778 q 649 568 649 676 q 609 452 649 503 q 500 372 569 401 q 339 343 431 343 l 260 343 l 260 56 l 368 35 l 368 0 l 90 0 m 260 732 l 260 389 l 353 389 q 508 436 447 389 q 568 558 568 483 q 507 691 568 650 q 344 732 446 732 l 260 732 z "},"q":{"ha":982,"x_min":97,"x_max":982,"o":"m 821 -207 q 738 -200 779 -207 q 649 -172 696 -193 q 541 -112 601 -151 q 401 -7 481 -72 q 243 65 311 10 q 136 203 175 119 q 97 389 97 286 q 146 597 97 506 q 280 741 194 689 q 474 793 365 793 q 667 741 582 793 q 802 597 753 689 q 851 389 851 506 q 808 194 851 281 q 690 53 765 107 q 517 -11 614 -1 q 664 -107 606 -75 q 767 -149 722 -139 q 863 -160 813 -160 q 982 -139 925 -160 l 982 -169 q 912 -195 954 -183 q 821 -207 869 -207 m 499 35 q 644 74 581 35 q 742 184 707 113 q 776 353 776 256 q 733 560 776 472 q 617 697 690 649 q 453 746 544 746 q 306 707 369 746 q 206 597 242 668 q 169 428 169 525 q 214 220 169 308 q 333 83 258 132 q 499 35 407 35 z "},"r":{"ha":740,"x_min":90,"x_max":747,"o":"m 90 0 l 90 35 l 186 56 l 186 722 l 90 743 l 90 778 l 332 778 q 531 726 458 778 q 604 586 604 675 q 558 465 604 514 q 438 390 513 415 l 668 50 l 747 35 l 747 0 l 606 0 l 367 369 l 260 369 l 260 57 l 351 35 l 351 0 l 90 0 m 342 732 l 260 732 l 260 415 l 349 415 q 478 459 432 415 q 524 571 524 503 q 477 688 524 644 q 342 732 431 732 z "},"s":{"ha":643,"x_min":83,"x_max":567,"o":"m 325 -14 q 202 0 253 -14 q 96 40 151 14 l 83 222 l 111 222 l 179 74 q 257 37 219 46 q 333 28 294 28 q 456 68 414 28 q 497 182 497 108 q 469 269 497 238 q 392 326 442 301 q 274 383 342 350 q 153 464 194 422 q 113 585 113 506 q 144 681 113 635 q 226 758 175 728 q 338 789 278 789 q 433 775 390 789 q 524 739 476 761 l 536 563 l 507 563 l 456 703 q 399 738 426 726 q 336 749 371 749 q 220 709 260 749 q 181 613 181 669 q 224 508 181 544 q 356 428 267 471 q 475 363 428 394 q 544 292 522 332 q 567 193 567 253 q 533 87 567 133 q 444 13 499 40 q 325 -14 389 -14 z "},"t":{"ha":818,"x_min":63,"x_max":756,"o":"m 251 0 l 251 35 l 371 56 l 371 732 l 142 732 l 90 563 l 63 563 l 63 778 l 756 778 l 756 563 l 726 563 l 675 732 l 444 732 l 444 56 l 565 35 l 565 0 l 251 0 z "},"u":{"ha":963,"x_min":90,"x_max":872,"o":"m 483 -12 q 331 17 397 -12 q 225 113 264 47 q 186 281 186 178 l 186 722 l 90 742 l 90 778 l 357 778 l 357 742 l 260 722 l 260 297 q 290 142 260 199 q 374 61 319 85 q 503 38 428 38 q 616 62 565 38 q 697 137 667 86 q 728 267 728 188 l 728 725 l 611 742 l 611 778 l 872 778 l 872 742 l 778 724 l 778 281 q 740 113 778 178 q 635 17 701 47 q 483 -12 568 -12 z "},"v":{"ha":847,"x_min":49,"x_max":799,"o":"m 414 -6 l 124 724 l 49 743 l 49 778 l 307 778 l 307 743 l 207 726 l 207 721 l 439 125 l 446 125 l 676 724 l 676 729 l 572 743 l 572 778 l 799 778 l 799 743 l 735 729 l 440 -6 l 414 -6 z "},"w":{"ha":1154,"x_min":21,"x_max":1133,"o":"m 325 -6 l 108 725 l 21 743 l 21 778 l 296 778 l 296 743 l 190 724 l 356 157 l 363 157 l 581 785 l 608 785 l 832 154 l 838 154 l 999 722 l 893 743 l 893 778 l 1133 778 l 1133 743 l 1056 724 l 838 -6 l 811 -6 l 585 619 l 578 619 l 351 -6 l 325 -6 z "},"x":{"ha":879,"x_min":49,"x_max":831,"o":"m 49 0 l 49 35 l 138 53 l 394 394 l 156 722 l 67 743 l 67 778 l 342 778 l 342 743 l 247 724 l 247 718 l 449 442 l 658 721 l 658 725 l 568 743 l 568 778 l 797 778 l 797 743 l 719 726 l 476 406 l 731 57 l 831 35 l 831 0 l 550 0 l 550 35 l 639 51 l 639 57 l 421 357 l 200 58 l 200 54 l 297 35 l 297 0 l 49 0 z "},"y":{"ha":843,"x_min":49,"x_max":794,"o":"m 281 0 l 281 35 l 389 56 l 389 369 l 133 722 l 49 743 l 49 778 l 301 778 l 301 743 l 219 726 l 219 721 l 446 411 l 647 721 l 647 725 l 563 743 l 563 778 l 794 778 l 794 743 l 713 726 l 463 365 l 463 56 l 571 35 l 571 0 l 281 0 z "},"z":{"ha":792,"x_min":125,"x_max":667,"o":"m 125 0 l 125 24 l 557 732 l 213 732 l 168 575 l 139 575 l 139 778 l 653 778 l 653 754 l 219 46 l 593 46 l 638 215 l 667 215 l 667 0 l 125 0 z "},"à":{"ha":869,"x_min":46,"x_max":824,"o":"m 46 0 l 46 35 l 113 49 l 417 785 l 446 785 l 747 54 l 824 35 l 824 0 l 565 0 l 565 35 l 665 51 l 567 293 l 265 293 l 169 50 l 274 35 l 274 0 l 46 0 m 283 336 l 550 336 l 415 668 l 283 336 m 421 882 l 292 1040 q 257 1088 268 1069 q 246 1128 246 1107 l 311 1128 l 440 882 l 421 882 z "},"á":{"ha":869,"x_min":46,"x_max":824,"o":"m 46 0 l 46 35 l 113 49 l 417 785 l 446 785 l 747 54 l 824 35 l 824 0 l 565 0 l 565 35 l 665 51 l 567 293 l 265 293 l 169 50 l 274 35 l 274 0 l 46 0 m 283 336 l 550 336 l 415 668 l 283 336 m 421 882 l 551 1128 l 617 1128 q 606 1088 617 1107 q 571 1040 594 1069 l 440 882 l 421 882 z "},"â":{"ha":869,"x_min":46,"x_max":824,"o":"m 46 0 l 46 35 l 113 49 l 417 785 l 446 785 l 747 54 l 824 35 l 824 0 l 565 0 l 565 35 l 665 51 l 567 293 l 265 293 l 169 50 l 274 35 l 274 0 l 46 0 m 283 336 l 550 336 l 415 668 l 283 336 m 242 882 l 415 1128 l 446 1128 l 619 882 l 600 882 l 431 1053 l 261 882 l 242 882 z "},"ã":{"ha":869,"x_min":46,"x_max":824,"o":"m 46 0 l 46 35 l 113 49 l 417 785 l 446 785 l 747 54 l 824 35 l 824 0 l 565 0 l 565 35 l 665 51 l 567 293 l 265 293 l 169 50 l 274 35 l 274 0 l 46 0 m 283 336 l 550 336 l 415 668 l 283 336 m 236 918 q 274 1025 256 988 q 311 1076 292 1063 q 353 1090 331 1090 q 400 1072 378 1090 q 442 1031 422 1054 q 481 990 461 1008 q 519 972 500 972 q 565 1001 546 972 q 608 1090 583 1029 l 625 1090 q 588 983 606 1021 q 550 932 569 946 q 508 918 531 918 q 461 936 483 918 q 419 977 439 954 q 381 1018 400 1000 q 342 1036 361 1036 q 297 1008 315 1036 q 253 918 278 979 l 236 918 z "},"ä":{"ha":869,"x_min":46,"x_max":824,"o":"m 46 0 l 46 35 l 113 49 l 417 785 l 446 785 l 747 54 l 824 35 l 824 0 l 565 0 l 565 35 l 665 51 l 567 293 l 265 293 l 169 50 l 274 35 l 274 0 l 46 0 m 283 336 l 550 336 l 415 668 l 283 336 m 300 946 q 260 963 276 946 q 243 1003 243 979 q 260 1043 243 1026 q 300 1060 276 1060 q 340 1043 324 1060 q 357 1003 357 1026 q 340 963 357 979 q 300 946 324 946 m 561 946 q 521 963 538 946 q 504 1003 504 979 q 521 1043 504 1026 q 561 1060 538 1060 q 601 1043 585 1060 q 618 1003 618 1026 q 601 963 618 979 q 561 946 585 946 z "},"ā":{"ha":869,"x_min":46,"x_max":824,"o":"m 46 0 l 46 35 l 113 49 l 417 785 l 446 785 l 747 54 l 824 35 l 824 0 l 565 0 l 565 35 l 665 51 l 567 293 l 265 293 l 169 50 l 274 35 l 274 0 l 46 0 m 283 336 l 550 336 l 415 668 l 283 336 m 254 978 l 254 1028 l 607 1028 l 607 978 l 254 978 z "},"ă":{"ha":869,"x_min":46,"x_max":824,"o":"m 46 0 l 46 35 l 113 49 l 417 785 l 446 785 l 747 54 l 824 35 l 824 0 l 565 0 l 565 35 l 665 51 l 567 293 l 265 293 l 169 50 l 274 35 l 274 0 l 46 0 m 283 336 l 550 336 l 415 668 l 283 336 m 431 896 q 310 954 349 896 q 242 1128 271 1013 l 260 1128 q 309 1019 283 1057 q 365 969 335 982 q 431 956 394 956 q 497 969 467 956 q 552 1019 526 982 q 601 1128 578 1057 l 619 1128 q 551 954 590 1013 q 431 896 513 896 z "},"å":{"ha":869,"x_min":46,"x_max":824,"o":"m 46 0 l 46 35 l 113 49 l 417 785 l 446 785 l 747 54 l 824 35 l 824 0 l 565 0 l 565 35 l 665 51 l 567 293 l 265 293 l 169 50 l 274 35 l 274 0 l 46 0 m 283 336 l 550 336 l 415 668 l 283 336 m 431 1115 q 515 1083 483 1115 q 546 1004 546 1051 q 515 925 546 957 q 431 893 483 893 q 347 925 379 893 q 315 1004 315 957 q 347 1083 315 1051 q 431 1115 379 1115 m 424 1090 q 386 1073 400 1090 q 372 1015 372 1056 q 438 918 372 918 q 475 937 461 918 q 489 994 489 956 q 472 1067 489 1043 q 424 1090 454 1090 z "},"ǻ":{"ha":869,"x_min":46,"x_max":824,"o":"m 46 0 l 46 35 l 113 49 l 417 785 l 446 785 l 747 54 l 824 35 l 824 0 l 565 0 l 565 35 l 665 51 l 567 293 l 265 293 l 169 50 l 274 35 l 274 0 l 46 0 m 283 336 l 550 336 l 415 668 l 283 336 m 431 1115 q 515 1083 483 1115 q 546 1004 546 1051 q 515 925 546 957 q 431 893 483 893 q 347 925 379 893 q 315 1004 315 957 q 347 1083 315 1051 q 431 1115 379 1115 m 424 1090 q 386 1073 400 1090 q 372 1015 372 1056 q 438 918 372 918 q 475 937 461 918 q 489 994 489 956 q 472 1067 489 1043 q 424 1090 454 1090 m 421 1192 l 551 1438 l 617 1438 q 606 1398 617 1417 q 571 1350 594 1379 l 440 1192 l 421 1192 z "},"ạ":{"ha":869,"x_min":46,"x_max":824,"o":"m 46 0 l 46 35 l 113 49 l 417 785 l 446 785 l 747 54 l 824 35 l 824 0 l 565 0 l 565 35 l 665 51 l 567 293 l 265 293 l 169 50 l 274 35 l 274 0 l 46 0 m 283 336 l 550 336 l 415 668 l 283 336 m 417 -264 q 379 -249 394 -264 q 364 -211 364 -233 q 379 -174 364 -189 q 417 -158 394 -158 q 454 -174 439 -158 q 469 -211 469 -189 q 454 -249 469 -233 q 417 -264 439 -264 z "},"ą":{"ha":869,"x_min":46,"x_max":824,"o":"m 46 0 l 46 35 l 113 49 l 417 785 l 446 785 l 747 54 l 824 35 l 824 0 l 729 0 q 653 -106 679 -56 q 628 -207 628 -157 q 651 -278 628 -256 q 717 -300 675 -300 q 760 -293 739 -300 q 800 -271 781 -286 l 804 -271 l 804 -289 q 762 -321 790 -308 q 699 -333 733 -333 q 612 -305 647 -333 q 576 -221 576 -276 q 610 -107 576 -161 q 701 0 643 -53 l 565 0 l 565 35 l 665 51 l 567 293 l 265 293 l 169 50 l 274 35 l 274 0 l 46 0 m 283 336 l 550 336 l 415 668 l 283 336 z "},"ȁ":{"ha":869,"x_min":46,"x_max":824,"o":"m 46 0 l 46 35 l 113 49 l 417 785 l 446 785 l 747 54 l 824 35 l 824 0 l 565 0 l 565 35 l 665 51 l 567 293 l 265 293 l 169 50 l 274 35 l 274 0 l 46 0 m 283 336 l 550 336 l 415 668 l 283 336 m 343 882 l 243 1040 q 223 1088 226 1068 q 226 1128 219 1107 l 279 1128 l 363 882 l 343 882 m 499 882 l 399 1040 q 378 1088 382 1068 q 382 1128 375 1107 l 435 1128 l 518 882 l 499 882 z "},"ȃ":{"ha":869,"x_min":46,"x_max":824,"o":"m 46 0 l 46 35 l 113 49 l 417 785 l 446 785 l 747 54 l 824 35 l 824 0 l 565 0 l 565 35 l 665 51 l 567 293 l 265 293 l 169 50 l 274 35 l 274 0 l 46 0 m 283 336 l 550 336 l 415 668 l 283 336 m 242 896 q 310 1069 271 1011 q 431 1128 349 1128 q 551 1069 513 1128 q 619 896 590 1011 l 601 896 q 552 1003 578 967 q 497 1054 526 1040 q 431 1068 467 1068 q 365 1054 394 1068 q 309 1003 335 1040 q 260 896 283 967 l 242 896 z "},"ắ":{"ha":869,"x_min":46,"x_max":824,"o":"m 46 0 l 46 35 l 113 49 l 417 785 l 446 785 l 747 54 l 824 35 l 824 0 l 565 0 l 565 35 l 665 51 l 567 293 l 265 293 l 169 50 l 274 35 l 274 0 l 46 0 m 283 336 l 550 336 l 415 668 l 283 336 z "},"ặ":{"ha":869,"x_min":46,"x_max":824,"o":"m 46 0 l 46 35 l 113 49 l 417 785 l 446 785 l 747 54 l 824 35 l 824 0 l 565 0 l 565 35 l 665 51 l 567 293 l 265 293 l 169 50 l 274 35 l 274 0 l 46 0 m 283 336 l 550 336 l 415 668 l 283 336 m 431 896 q 310 954 349 896 q 242 1128 271 1013 l 260 1128 q 309 1019 283 1057 q 365 969 335 982 q 431 956 394 956 q 497 969 467 956 q 552 1019 526 982 q 601 1128 578 1057 l 619 1128 q 551 954 590 1013 q 431 896 513 896 m 417 -264 q 379 -249 394 -264 q 364 -211 364 -233 q 379 -174 364 -189 q 417 -158 394 -158 q 454 -174 439 -158 q 469 -211 469 -189 q 454 -249 469 -233 q 417 -264 439 -264 z "},"ằ":{"ha":869,"x_min":46,"x_max":824,"o":"m 46 0 l 46 35 l 113 49 l 417 785 l 446 785 l 747 54 l 824 35 l 824 0 l 565 0 l 565 35 l 665 51 l 567 293 l 265 293 l 169 50 l 274 35 l 274 0 l 46 0 m 283 336 l 550 336 l 415 668 l 283 336 z "},"ẳ":{"ha":869,"x_min":46,"x_max":824,"o":"m 46 0 l 46 35 l 113 49 l 417 785 l 446 785 l 747 54 l 824 35 l 824 0 l 565 0 l 565 35 l 665 51 l 567 293 l 265 293 l 169 50 l 274 35 l 274 0 l 46 0 m 283 336 l 550 336 l 415 668 l 283 336 z "},"ẵ":{"ha":869,"x_min":46,"x_max":824,"o":"m 46 0 l 46 35 l 113 49 l 417 785 l 446 785 l 747 54 l 824 35 l 824 0 l 565 0 l 565 35 l 665 51 l 567 293 l 265 293 l 169 50 l 274 35 l 274 0 l 46 0 m 283 336 l 550 336 l 415 668 l 283 336 z "},"ấ":{"ha":869,"x_min":46,"x_max":824,"o":"m 46 0 l 46 35 l 113 49 l 417 785 l 446 785 l 747 54 l 824 35 l 824 0 l 565 0 l 565 35 l 665 51 l 567 293 l 265 293 l 169 50 l 274 35 l 274 0 l 46 0 m 283 336 l 550 336 l 415 668 l 283 336 m 588 1031 l 664 1229 l 729 1229 q 719 1193 729 1210 q 689 1150 710 1176 l 599 1031 l 588 1031 m 242 882 l 415 1128 l 446 1128 l 619 882 l 600 882 l 431 1053 l 261 882 l 242 882 z "},"ậ":{"ha":869,"x_min":46,"x_max":824,"o":"m 46 0 l 46 35 l 113 49 l 417 785 l 446 785 l 747 54 l 824 35 l 824 0 l 565 0 l 565 35 l 665 51 l 567 293 l 265 293 l 169 50 l 274 35 l 274 0 l 46 0 m 283 336 l 550 336 l 415 668 l 283 336 m 242 882 l 415 1128 l 446 1128 l 619 882 l 600 882 l 431 1053 l 261 882 l 242 882 m 417 -264 q 379 -249 394 -264 q 364 -211 364 -233 q 379 -174 364 -189 q 417 -158 394 -158 q 454 -174 439 -158 q 469 -211 469 -189 q 454 -249 469 -233 q 417 -264 439 -264 z "},"ầ":{"ha":869,"x_min":46,"x_max":824,"o":"m 46 0 l 46 35 l 113 49 l 417 785 l 446 785 l 747 54 l 824 35 l 824 0 l 565 0 l 565 35 l 665 51 l 567 293 l 265 293 l 169 50 l 274 35 l 274 0 l 46 0 m 283 336 l 550 336 l 415 668 l 283 336 m 263 1031 l 172 1150 q 142 1193 151 1176 q 132 1229 132 1210 l 197 1229 l 274 1031 l 263 1031 m 242 882 l 415 1128 l 446 1128 l 619 882 l 600 882 l 431 1053 l 261 882 l 242 882 z "},"ẩ":{"ha":869,"x_min":46,"x_max":824,"o":"m 46 0 l 46 35 l 113 49 l 417 785 l 446 785 l 747 54 l 824 35 l 824 0 l 565 0 l 565 35 l 665 51 l 567 293 l 265 293 l 169 50 l 274 35 l 274 0 l 46 0 m 283 336 l 550 336 l 415 668 l 283 336 z "},"ẫ":{"ha":869,"x_min":46,"x_max":824,"o":"m 46 0 l 46 35 l 113 49 l 417 785 l 446 785 l 747 54 l 824 35 l 824 0 l 565 0 l 565 35 l 665 51 l 567 293 l 265 293 l 169 50 l 274 35 l 274 0 l 46 0 m 283 336 l 550 336 l 415 668 l 283 336 z "},"ả":{"ha":869,"x_min":46,"x_max":824,"o":"m 46 0 l 46 35 l 113 49 l 417 785 l 446 785 l 747 54 l 824 35 l 824 0 l 565 0 l 565 35 l 665 51 l 567 293 l 265 293 l 169 50 l 274 35 l 274 0 l 46 0 m 283 336 l 550 336 l 415 668 l 283 336 m 364 897 l 364 899 q 453 935 421 914 q 485 989 485 956 q 457 1047 485 1024 q 358 1079 429 1069 l 367 1128 q 496 1084 460 1119 q 532 1011 532 1049 q 492 932 532 958 q 374 888 451 906 l 364 897 z "},"æ":{"ha":1136,"x_min":46,"x_max":1039,"o":"m 46 0 l 46 35 l 115 49 l 546 778 l 1006 778 l 1006 586 l 976 586 l 931 732 l 629 732 l 629 425 l 851 425 l 878 522 l 906 522 l 906 286 l 878 286 l 851 381 l 629 381 l 629 46 l 964 46 l 1011 203 l 1039 203 l 1039 0 l 461 0 l 461 35 l 556 56 l 556 293 l 315 293 l 172 49 l 274 35 l 274 0 l 46 0 m 340 336 l 556 336 l 556 707 l 340 336 z "},"ǽ":{"ha":1136,"x_min":46,"x_max":1039,"o":"m 46 0 l 46 35 l 115 49 l 546 778 l 1006 778 l 1006 586 l 976 586 l 931 732 l 629 732 l 629 425 l 851 425 l 878 522 l 906 522 l 906 286 l 878 286 l 851 381 l 629 381 l 629 46 l 964 46 l 1011 203 l 1039 203 l 1039 0 l 461 0 l 461 35 l 556 56 l 556 293 l 315 293 l 172 49 l 274 35 l 274 0 l 46 0 m 340 336 l 556 336 l 556 707 l 340 336 m 589 882 l 719 1128 l 785 1128 q 774 1088 785 1107 q 739 1040 763 1069 l 608 882 l 589 882 z "},"ć":{"ha":889,"x_min":97,"x_max":761,"o":"m 499 -14 q 291 34 382 -14 q 149 167 200 82 q 97 368 97 253 q 129 535 97 458 q 217 670 161 613 q 348 760 274 728 q 507 793 422 793 q 642 776 590 793 q 743 735 694 758 l 749 553 l 721 553 l 668 686 q 584 731 625 717 q 497 744 543 744 q 323 699 397 744 q 208 578 249 654 q 167 414 167 503 q 210 210 167 297 q 330 76 254 124 q 503 28 406 28 q 599 41 558 28 q 674 76 640 54 l 733 219 l 761 219 l 750 44 q 644 3 700 19 q 499 -14 589 -14 m 489 882 l 619 1128 l 685 1128 q 674 1088 685 1107 q 639 1040 663 1069 l 508 882 l 489 882 z "},"ĉ":{"ha":889,"x_min":97,"x_max":761,"o":"m 499 -14 q 291 34 382 -14 q 149 167 200 82 q 97 368 97 253 q 129 535 97 458 q 217 670 161 613 q 348 760 274 728 q 507 793 422 793 q 642 776 590 793 q 743 735 694 758 l 749 553 l 721 553 l 668 686 q 584 731 625 717 q 497 744 543 744 q 323 699 397 744 q 208 578 249 654 q 167 414 167 503 q 210 210 167 297 q 330 76 254 124 q 503 28 406 28 q 599 41 558 28 q 674 76 640 54 l 733 219 l 761 219 l 750 44 q 644 3 700 19 q 499 -14 589 -14 m 310 882 l 483 1128 l 514 1128 l 688 882 l 668 882 l 499 1053 l 329 882 l 310 882 z "},"č":{"ha":889,"x_min":97,"x_max":761,"o":"m 499 -14 q 291 34 382 -14 q 149 167 200 82 q 97 368 97 253 q 129 535 97 458 q 217 670 161 613 q 348 760 274 728 q 507 793 422 793 q 642 776 590 793 q 743 735 694 758 l 749 553 l 721 553 l 668 686 q 584 731 625 717 q 497 744 543 744 q 323 699 397 744 q 208 578 249 654 q 167 414 167 503 q 210 210 167 297 q 330 76 254 124 q 503 28 406 28 q 599 41 558 28 q 674 76 640 54 l 733 219 l 761 219 l 750 44 q 644 3 700 19 q 499 -14 589 -14 m 483 882 l 310 1128 l 329 1128 l 499 957 l 668 1128 l 688 1128 l 514 882 l 483 882 z "},"ċ":{"ha":889,"x_min":97,"x_max":761,"o":"m 499 -14 q 291 34 382 -14 q 149 167 200 82 q 97 368 97 253 q 129 535 97 458 q 217 670 161 613 q 348 760 274 728 q 507 793 422 793 q 642 776 590 793 q 743 735 694 758 l 749 553 l 721 553 l 668 686 q 584 731 625 717 q 497 744 543 744 q 323 699 397 744 q 208 578 249 654 q 167 414 167 503 q 210 210 167 297 q 330 76 254 124 q 503 28 406 28 q 599 41 558 28 q 674 76 640 54 l 733 219 l 761 219 l 750 44 q 644 3 700 19 q 499 -14 589 -14 m 499 951 q 461 967 476 951 q 446 1004 446 982 q 461 1042 446 1026 q 499 1057 476 1057 q 536 1042 521 1057 q 551 1004 551 1026 q 536 967 551 982 q 499 951 521 951 z "},"ç":{"ha":889,"x_min":97,"x_max":761,"o":"m 499 -14 l 496 -14 l 449 -89 q 560 -138 513 -107 q 607 -224 607 -169 q 574 -303 607 -272 q 482 -333 540 -333 q 428 -324 454 -333 q 388 -303 403 -315 l 388 -285 l 392 -285 q 478 -307 432 -307 q 564 -237 564 -307 q 519 -168 564 -193 q 399 -122 475 -143 l 467 -12 q 275 43 358 -6 q 144 175 192 92 q 97 368 97 258 q 129 535 97 458 q 217 670 161 613 q 348 760 274 728 q 507 793 422 793 q 642 776 590 793 q 743 735 694 758 l 749 553 l 721 553 l 668 686 q 584 731 625 717 q 497 744 543 744 q 323 699 397 744 q 208 578 249 654 q 167 414 167 503 q 210 210 167 297 q 330 76 254 124 q 503 28 406 28 q 599 41 558 28 q 674 76 640 54 l 733 219 l 761 219 l 750 44 q 644 3 700 19 q 499 -14 589 -14 z "},"ḉ":{"ha":889,"x_min":97,"x_max":761,"o":"m 489 882 l 619 1128 l 685 1128 q 674 1088 685 1107 q 639 1040 663 1069 l 508 882 l 489 882 m 499 -14 l 496 -14 l 449 -89 q 560 -138 513 -107 q 607 -224 607 -169 q 574 -303 607 -272 q 482 -333 540 -333 q 428 -324 454 -333 q 388 -303 403 -315 l 388 -285 l 392 -285 q 478 -307 432 -307 q 564 -237 564 -307 q 519 -168 564 -193 q 399 -122 475 -143 l 467 -12 q 275 43 358 -6 q 144 175 192 92 q 97 368 97 258 q 129 535 97 458 q 217 670 161 613 q 348 760 274 728 q 507 793 422 793 q 642 776 590 793 q 743 735 694 758 l 749 553 l 721 553 l 668 686 q 584 731 625 717 q 497 744 543 744 q 323 699 397 744 q 208 578 249 654 q 167 414 167 503 q 210 210 167 297 q 330 76 254 124 q 503 28 406 28 q 599 41 558 28 q 674 76 640 54 l 733 219 l 761 219 l 750 44 q 644 3 700 19 q 499 -14 589 -14 z "},"ď":{"ha":889,"x_min":90,"x_max":792,"o":"m 90 0 l 90 35 l 186 56 l 186 722 l 90 743 l 90 778 l 374 778 q 601 731 507 778 q 743 605 694 685 q 792 425 792 525 q 740 199 792 294 q 592 51 688 103 q 365 0 496 0 l 90 0 m 381 732 l 260 732 l 260 46 l 386 46 q 558 90 485 46 q 672 211 632 133 q 713 389 713 289 q 626 638 713 544 q 381 732 539 732 m 422 882 l 249 1128 l 268 1128 l 438 957 l 607 1128 l 626 1128 l 453 882 l 422 882 z "},"đ":{"ha":889,"x_min":92,"x_max":793,"o":"m 92 0 l 92 35 l 188 56 l 188 379 l 92 379 l 92 425 l 188 425 l 188 722 l 92 743 l 92 778 l 375 778 q 601 731 508 778 q 744 605 694 685 q 793 425 793 525 q 741 199 793 294 q 593 51 689 103 q 367 0 497 0 l 92 0 m 461 379 l 261 379 l 261 46 l 388 46 q 560 90 486 46 q 674 211 633 133 q 714 389 714 289 q 627 638 714 544 q 382 732 540 732 l 261 732 l 261 425 l 461 425 l 461 379 z "},"ḍ":{"ha":889,"x_min":90,"x_max":792,"o":"m 90 0 l 90 35 l 186 56 l 186 722 l 90 743 l 90 778 l 374 778 q 601 731 507 778 q 743 605 694 685 q 792 425 792 525 q 740 199 792 294 q 592 51 688 103 q 365 0 496 0 l 90 0 m 381 732 l 260 732 l 260 46 l 386 46 q 558 90 485 46 q 672 211 632 133 q 713 389 713 289 q 626 638 713 544 q 381 732 539 732 m 438 -264 q 400 -249 415 -264 q 385 -211 385 -233 q 400 -174 385 -189 q 438 -158 415 -158 q 475 -174 460 -158 q 490 -211 490 -189 q 475 -249 490 -233 q 438 -264 460 -264 z "},"ḏ":{"ha":889,"x_min":90,"x_max":792,"o":"m 90 0 l 90 35 l 186 56 l 186 722 l 90 743 l 90 778 l 374 778 q 601 731 507 778 q 743 605 694 685 q 792 425 792 525 q 740 199 792 294 q 592 51 688 103 q 365 0 496 0 l 90 0 m 381 732 l 260 732 l 260 46 l 386 46 q 558 90 485 46 q 672 211 632 133 q 713 389 713 289 q 626 638 713 544 q 381 732 539 732 m 261 -232 l 261 -182 l 614 -182 l 614 -232 l 261 -232 z "},"è":{"ha":765,"x_min":90,"x_max":668,"o":"m 90 0 l 90 35 l 185 56 l 185 722 l 90 743 l 90 778 l 635 778 l 635 586 l 606 586 l 560 732 l 258 732 l 258 425 l 481 425 l 507 522 l 535 522 l 535 286 l 507 286 l 481 381 l 258 381 l 258 46 l 593 46 l 640 203 l 668 203 l 668 0 l 90 0 m 400 882 l 271 1040 q 236 1088 247 1069 q 225 1128 225 1107 l 290 1128 l 419 882 l 400 882 z "},"é":{"ha":765,"x_min":90,"x_max":668,"o":"m 90 0 l 90 35 l 185 56 l 185 722 l 90 743 l 90 778 l 635 778 l 635 586 l 606 586 l 560 732 l 258 732 l 258 425 l 481 425 l 507 522 l 535 522 l 535 286 l 507 286 l 481 381 l 258 381 l 258 46 l 593 46 l 640 203 l 668 203 l 668 0 l 90 0 m 400 882 l 531 1128 l 596 1128 q 585 1088 596 1107 q 550 1040 574 1069 l 419 882 l 400 882 z "},"ê":{"ha":765,"x_min":90,"x_max":668,"o":"m 90 0 l 90 35 l 185 56 l 185 722 l 90 743 l 90 778 l 635 778 l 635 586 l 606 586 l 560 732 l 258 732 l 258 425 l 481 425 l 507 522 l 535 522 l 535 286 l 507 286 l 481 381 l 258 381 l 258 46 l 593 46 l 640 203 l 668 203 l 668 0 l 90 0 m 221 882 l 394 1128 l 425 1128 l 599 882 l 579 882 l 410 1053 l 240 882 l 221 882 z "},"ě":{"ha":765,"x_min":90,"x_max":668,"o":"m 90 0 l 90 35 l 185 56 l 185 722 l 90 743 l 90 778 l 635 778 l 635 586 l 606 586 l 560 732 l 258 732 l 258 425 l 481 425 l 507 522 l 535 522 l 535 286 l 507 286 l 481 381 l 258 381 l 258 46 l 593 46 l 640 203 l 668 203 l 668 0 l 90 0 m 394 882 l 221 1128 l 240 1128 l 410 957 l 579 1128 l 599 1128 l 425 882 l 394 882 z "},"ẽ":{"ha":765,"x_min":90,"x_max":668,"o":"m 90 0 l 90 35 l 185 56 l 185 722 l 90 743 l 90 778 l 635 778 l 635 586 l 606 586 l 560 732 l 258 732 l 258 425 l 481 425 l 507 522 l 535 522 l 535 286 l 507 286 l 481 381 l 258 381 l 258 46 l 593 46 l 640 203 l 668 203 l 668 0 l 90 0 m 215 918 q 253 1025 235 988 q 290 1076 271 1063 q 332 1090 310 1090 q 379 1072 357 1090 q 421 1031 401 1054 q 460 990 440 1008 q 499 972 479 972 q 544 1001 525 972 q 588 1090 563 1029 l 604 1090 q 567 983 585 1021 q 529 932 549 946 q 488 918 510 918 q 440 936 463 918 q 399 977 418 954 q 360 1018 379 1000 q 321 1036 340 1036 q 276 1008 294 1036 q 232 918 257 979 l 215 918 z "},"ë":{"ha":765,"x_min":90,"x_max":668,"o":"m 90 0 l 90 35 l 185 56 l 185 722 l 90 743 l 90 778 l 635 778 l 635 586 l 606 586 l 560 732 l 258 732 l 258 425 l 481 425 l 507 522 l 535 522 l 535 286 l 507 286 l 481 381 l 258 381 l 258 46 l 593 46 l 640 203 l 668 203 l 668 0 l 90 0 m 279 946 q 239 963 256 946 q 222 1003 222 979 q 239 1043 222 1026 q 279 1060 256 1060 q 319 1043 303 1060 q 336 1003 336 1026 q 319 963 336 979 q 279 946 303 946 m 540 946 q 500 963 517 946 q 483 1003 483 979 q 500 1043 483 1026 q 540 1060 517 1060 q 581 1043 564 1060 q 597 1003 597 1026 q 581 963 597 979 q 540 946 564 946 z "},"ē":{"ha":765,"x_min":90,"x_max":668,"o":"m 90 0 l 90 35 l 185 56 l 185 722 l 90 743 l 90 778 l 635 778 l 635 586 l 606 586 l 560 732 l 258 732 l 258 425 l 481 425 l 507 522 l 535 522 l 535 286 l 507 286 l 481 381 l 258 381 l 258 46 l 593 46 l 640 203 l 668 203 l 668 0 l 90 0 m 233 978 l 233 1028 l 586 1028 l 586 978 l 233 978 z "},"ĕ":{"ha":765,"x_min":90,"x_max":668,"o":"m 90 0 l 90 35 l 185 56 l 185 722 l 90 743 l 90 778 l 635 778 l 635 586 l 606 586 l 560 732 l 258 732 l 258 425 l 481 425 l 507 522 l 535 522 l 535 286 l 507 286 l 481 381 l 258 381 l 258 46 l 593 46 l 640 203 l 668 203 l 668 0 l 90 0 m 410 896 q 289 954 328 896 q 221 1128 250 1013 l 239 1128 q 288 1019 263 1057 q 344 969 314 982 q 410 956 374 956 q 476 969 446 956 q 531 1019 506 982 q 581 1128 557 1057 l 599 1128 q 531 954 569 1013 q 410 896 492 896 z "},"ė":{"ha":765,"x_min":90,"x_max":668,"o":"m 90 0 l 90 35 l 185 56 l 185 722 l 90 743 l 90 778 l 635 778 l 635 586 l 606 586 l 560 732 l 258 732 l 258 425 l 481 425 l 507 522 l 535 522 l 535 286 l 507 286 l 481 381 l 258 381 l 258 46 l 593 46 l 640 203 l 668 203 l 668 0 l 90 0 m 410 951 q 372 967 388 951 q 357 1004 357 982 q 372 1042 357 1026 q 410 1057 388 1057 q 447 1042 432 1057 q 463 1004 463 1026 q 447 967 463 982 q 410 951 432 951 z "},"ę":{"ha":765,"x_min":90,"x_max":668,"o":"m 90 0 l 90 35 l 185 56 l 185 722 l 90 743 l 90 778 l 635 778 l 635 586 l 606 586 l 560 732 l 258 732 l 258 425 l 481 425 l 507 522 l 535 522 l 535 286 l 507 286 l 481 381 l 258 381 l 258 46 l 593 46 l 640 203 l 668 203 l 668 0 l 593 0 q 517 -106 543 -56 q 492 -207 492 -157 q 515 -278 492 -256 q 581 -300 539 -300 q 624 -293 603 -300 q 664 -271 644 -286 l 668 -271 l 668 -289 q 626 -321 654 -308 q 563 -333 597 -333 q 476 -305 511 -333 q 440 -221 440 -276 q 474 -107 440 -161 q 565 0 507 -53 l 90 0 z "},"ẹ":{"ha":765,"x_min":90,"x_max":668,"o":"m 90 0 l 90 35 l 185 56 l 185 722 l 90 743 l 90 778 l 635 778 l 635 586 l 606 586 l 560 732 l 258 732 l 258 425 l 481 425 l 507 522 l 535 522 l 535 286 l 507 286 l 481 381 l 258 381 l 258 46 l 593 46 l 640 203 l 668 203 l 668 0 l 90 0 m 410 -264 q 372 -249 388 -264 q 357 -211 357 -233 q 372 -174 357 -189 q 410 -158 388 -158 q 447 -174 432 -158 q 463 -211 463 -189 q 447 -249 463 -233 q 410 -264 432 -264 z "},"ȅ":{"ha":765,"x_min":90,"x_max":668,"o":"m 90 0 l 90 35 l 185 56 l 185 722 l 90 743 l 90 778 l 635 778 l 635 586 l 606 586 l 560 732 l 258 732 l 258 425 l 481 425 l 507 522 l 535 522 l 535 286 l 507 286 l 481 381 l 258 381 l 258 46 l 593 46 l 640 203 l 668 203 l 668 0 l 90 0 m 322 882 l 222 1040 q 202 1088 206 1068 q 206 1128 199 1107 l 258 1128 l 342 882 l 322 882 m 478 882 l 378 1040 q 358 1088 361 1068 q 361 1128 354 1107 l 414 1128 l 497 882 l 478 882 z "},"ȇ":{"ha":765,"x_min":90,"x_max":668,"o":"m 90 0 l 90 35 l 185 56 l 185 722 l 90 743 l 90 778 l 635 778 l 635 586 l 606 586 l 560 732 l 258 732 l 258 425 l 481 425 l 507 522 l 535 522 l 535 286 l 507 286 l 481 381 l 258 381 l 258 46 l 593 46 l 640 203 l 668 203 l 668 0 l 90 0 m 221 896 q 289 1069 250 1011 q 410 1128 328 1128 q 531 1069 492 1128 q 599 896 569 1011 l 581 896 q 531 1003 557 967 q 476 1054 506 1040 q 410 1068 446 1068 q 344 1054 374 1068 q 288 1003 314 1040 q 239 896 263 967 l 221 896 z "},"ế":{"ha":765,"x_min":90,"x_max":708,"o":"m 90 0 l 90 35 l 185 56 l 185 722 l 90 743 l 90 778 l 635 778 l 635 586 l 606 586 l 560 732 l 258 732 l 258 425 l 481 425 l 507 522 l 535 522 l 535 286 l 507 286 l 481 381 l 258 381 l 258 46 l 593 46 l 640 203 l 668 203 l 668 0 l 90 0 m 567 1031 l 643 1229 l 708 1229 q 699 1193 708 1210 q 668 1150 689 1176 l 578 1031 l 567 1031 m 221 882 l 394 1128 l 425 1128 l 599 882 l 579 882 l 410 1053 l 240 882 l 221 882 z "},"ệ":{"ha":765,"x_min":90,"x_max":668,"o":"m 90 0 l 90 35 l 185 56 l 185 722 l 90 743 l 90 778 l 635 778 l 635 586 l 606 586 l 560 732 l 258 732 l 258 425 l 481 425 l 507 522 l 535 522 l 535 286 l 507 286 l 481 381 l 258 381 l 258 46 l 593 46 l 640 203 l 668 203 l 668 0 l 90 0 m 221 882 l 394 1128 l 425 1128 l 599 882 l 579 882 l 410 1053 l 240 882 l 221 882 m 410 -264 q 372 -249 388 -264 q 357 -211 357 -233 q 372 -174 357 -189 q 410 -158 388 -158 q 447 -174 432 -158 q 463 -211 463 -189 q 447 -249 463 -233 q 410 -264 432 -264 z "},"ề":{"ha":765,"x_min":90,"x_max":668,"o":"m 90 0 l 90 35 l 185 56 l 185 722 l 90 743 l 90 778 l 635 778 l 635 586 l 606 586 l 560 732 l 258 732 l 258 425 l 481 425 l 507 522 l 535 522 l 535 286 l 507 286 l 481 381 l 258 381 l 258 46 l 593 46 l 640 203 l 668 203 l 668 0 l 90 0 m 242 1031 l 151 1150 q 121 1193 131 1176 q 111 1229 111 1210 l 176 1229 l 253 1031 l 242 1031 m 221 882 l 394 1128 l 425 1128 l 599 882 l 579 882 l 410 1053 l 240 882 l 221 882 z "},"ể":{"ha":765,"x_min":90,"x_max":668,"o":"m 90 0 l 90 35 l 185 56 l 185 722 l 90 743 l 90 778 l 635 778 l 635 586 l 606 586 l 560 732 l 258 732 l 258 425 l 481 425 l 507 522 l 535 522 l 535 286 l 507 286 l 481 381 l 258 381 l 258 46 l 593 46 l 640 203 l 668 203 l 668 0 l 90 0 z "},"ễ":{"ha":765,"x_min":90,"x_max":668,"o":"m 90 0 l 90 35 l 185 56 l 185 722 l 90 743 l 90 778 l 635 778 l 635 586 l 606 586 l 560 732 l 258 732 l 258 425 l 481 425 l 507 522 l 535 522 l 535 286 l 507 286 l 481 381 l 258 381 l 258 46 l 593 46 l 640 203 l 668 203 l 668 0 l 90 0 z "},"ẻ":{"ha":765,"x_min":90,"x_max":668,"o":"m 90 0 l 90 35 l 185 56 l 185 722 l 90 743 l 90 778 l 635 778 l 635 586 l 606 586 l 560 732 l 258 732 l 258 425 l 481 425 l 507 522 l 535 522 l 535 286 l 507 286 l 481 381 l 258 381 l 258 46 l 593 46 l 640 203 l 668 203 l 668 0 l 90 0 m 343 897 l 343 899 q 432 935 400 914 q 464 989 464 956 q 436 1047 464 1024 q 338 1079 408 1069 l 346 1128 q 475 1084 439 1119 q 511 1011 511 1049 q 471 932 511 958 q 353 888 431 906 l 343 897 z "},"ḕ":{"ha":765,"x_min":90,"x_max":668,"o":"m 90 0 l 90 35 l 185 56 l 185 722 l 90 743 l 90 778 l 635 778 l 635 586 l 606 586 l 560 732 l 258 732 l 258 425 l 481 425 l 507 522 l 535 522 l 535 286 l 507 286 l 481 381 l 258 381 l 258 46 l 593 46 l 640 203 l 668 203 l 668 0 l 90 0 z "},"ḗ":{"ha":765,"x_min":90,"x_max":668,"o":"m 90 0 l 90 35 l 185 56 l 185 722 l 90 743 l 90 778 l 635 778 l 635 586 l 606 586 l 560 732 l 258 732 l 258 425 l 481 425 l 507 522 l 535 522 l 535 286 l 507 286 l 481 381 l 258 381 l 258 46 l 593 46 l 640 203 l 668 203 l 668 0 l 90 0 z "},"ḝ":{"ha":765,"x_min":90,"x_max":668,"o":"m 410 896 q 289 954 328 896 q 221 1128 250 1013 l 239 1128 q 289 1020 264 1057 q 344 969 314 983 q 410 956 374 956 q 476 969 446 956 q 531 1020 506 983 q 581 1128 556 1057 l 599 1128 q 531 954 569 1013 q 410 896 492 896 m 90 0 l 90 35 l 185 56 l 185 722 l 90 743 l 90 778 l 635 778 l 635 586 l 606 586 l 560 732 l 258 732 l 258 425 l 481 425 l 507 522 l 535 522 l 535 286 l 507 286 l 481 381 l 258 381 l 258 46 l 593 46 l 640 203 l 668 203 l 668 0 l 428 0 l 372 -89 q 483 -138 436 -107 q 531 -224 531 -169 q 497 -303 531 -272 q 406 -333 464 -333 q 351 -324 378 -333 q 311 -303 325 -315 l 311 -285 l 315 -285 q 401 -307 356 -307 q 488 -237 488 -307 q 444 -168 488 -193 q 322 -122 400 -143 l 399 0 l 90 0 z "},"ĝ":{"ha":921,"x_min":97,"x_max":851,"o":"m 499 -14 q 291 35 382 -14 q 149 169 200 83 q 97 368 97 256 q 129 537 97 460 q 219 672 161 614 q 351 761 276 729 q 511 793 425 793 q 661 776 606 793 q 767 735 717 760 l 774 553 l 744 553 l 696 679 q 602 729 647 714 q 504 744 557 744 q 324 699 400 744 q 208 578 249 654 q 167 408 167 501 q 213 206 167 290 q 338 76 260 121 q 510 31 417 31 q 596 38 554 31 q 683 64 638 44 l 683 282 l 567 306 l 567 340 l 851 340 l 851 306 l 757 285 l 757 68 q 638 8 708 29 q 499 -14 567 -14 m 324 882 l 497 1128 l 528 1128 l 701 882 l 682 882 l 513 1053 l 343 882 l 324 882 z "},"ğ":{"ha":921,"x_min":97,"x_max":851,"o":"m 499 -14 q 291 35 382 -14 q 149 169 200 83 q 97 368 97 256 q 129 537 97 460 q 219 672 161 614 q 351 761 276 729 q 511 793 425 793 q 661 776 606 793 q 767 735 717 760 l 774 553 l 744 553 l 696 679 q 602 729 647 714 q 504 744 557 744 q 324 699 400 744 q 208 578 249 654 q 167 408 167 501 q 213 206 167 290 q 338 76 260 121 q 510 31 417 31 q 596 38 554 31 q 683 64 638 44 l 683 282 l 567 306 l 567 340 l 851 340 l 851 306 l 757 285 l 757 68 q 638 8 708 29 q 499 -14 567 -14 m 513 896 q 392 954 431 896 q 324 1128 353 1013 l 342 1128 q 391 1019 365 1057 q 447 969 417 982 q 513 956 476 956 q 578 969 549 956 q 634 1019 608 982 q 683 1128 660 1057 l 701 1128 q 633 954 672 1013 q 513 896 594 896 z "},"ġ":{"ha":921,"x_min":97,"x_max":851,"o":"m 499 -14 q 291 35 382 -14 q 149 169 200 83 q 97 368 97 256 q 129 537 97 460 q 219 672 161 614 q 351 761 276 729 q 511 793 425 793 q 661 776 606 793 q 767 735 717 760 l 774 553 l 744 553 l 696 679 q 602 729 647 714 q 504 744 557 744 q 324 699 400 744 q 208 578 249 654 q 167 408 167 501 q 213 206 167 290 q 338 76 260 121 q 510 31 417 31 q 596 38 554 31 q 683 64 638 44 l 683 282 l 567 306 l 567 340 l 851 340 l 851 306 l 757 285 l 757 68 q 638 8 708 29 q 499 -14 567 -14 m 513 951 q 475 967 490 951 q 460 1004 460 982 q 475 1042 460 1026 q 513 1057 490 1057 q 550 1042 535 1057 q 565 1004 565 1026 q 550 967 565 982 q 513 951 535 951 z "},"ģ":{"ha":921,"x_min":97,"x_max":851,"o":"m 499 -14 q 291 35 382 -14 q 149 169 200 83 q 97 368 97 256 q 129 537 97 460 q 219 672 161 614 q 351 761 276 729 q 511 793 425 793 q 661 776 606 793 q 767 735 717 760 l 774 553 l 744 553 l 696 679 q 602 729 647 714 q 504 744 557 744 q 324 699 400 744 q 208 578 249 654 q 167 408 167 501 q 213 206 167 290 q 338 76 260 121 q 510 31 417 31 q 596 38 554 31 q 683 64 638 44 l 683 282 l 567 306 l 567 340 l 851 340 l 851 306 l 757 285 l 757 68 q 638 8 708 29 q 499 -14 567 -14 m 560 903 q 449 931 488 903 q 410 1007 410 960 q 451 1081 410 1054 q 556 1107 492 1107 q 579 1106 565 1107 q 603 1103 593 1104 l 603 1086 q 580 1089 593 1088 q 558 1090 567 1090 q 483 1071 507 1090 q 458 1019 458 1051 q 490 963 458 979 q 604 946 522 946 l 604 924 q 597 908 604 914 q 560 903 589 903 z "},"ǧ":{"ha":921,"x_min":97,"x_max":851,"o":"m 499 -14 q 291 35 382 -14 q 149 169 200 83 q 97 368 97 256 q 129 537 97 460 q 219 672 161 614 q 351 761 276 729 q 511 793 425 793 q 661 776 606 793 q 767 735 717 760 l 774 553 l 744 553 l 696 679 q 602 729 647 714 q 504 744 557 744 q 324 699 400 744 q 208 578 249 654 q 167 408 167 501 q 213 206 167 290 q 338 76 260 121 q 510 31 417 31 q 596 38 554 31 q 683 64 638 44 l 683 282 l 567 306 l 567 340 l 851 340 l 851 306 l 757 285 l 757 68 q 638 8 708 29 q 499 -14 567 -14 m 497 882 l 324 1128 l 343 1128 l 513 957 l 682 1128 l 701 1128 l 528 882 l 497 882 z "},"ḡ":{"ha":921,"x_min":97,"x_max":851,"o":"m 499 -14 q 291 35 382 -14 q 149 169 200 83 q 97 368 97 256 q 129 537 97 460 q 219 672 161 614 q 351 761 276 729 q 511 793 425 793 q 661 776 606 793 q 767 735 717 760 l 774 553 l 744 553 l 696 679 q 602 729 647 714 q 504 744 557 744 q 324 699 400 744 q 208 578 249 654 q 167 408 167 501 q 213 206 167 290 q 338 76 260 121 q 510 31 417 31 q 596 38 554 31 q 683 64 638 44 l 683 282 l 567 306 l 567 340 l 851 340 l 851 306 l 757 285 l 757 68 q 638 8 708 29 q 499 -14 567 -14 m 336 978 l 336 1028 l 689 1028 l 689 978 l 336 978 z "},"ĥ":{"ha":971,"x_min":90,"x_max":881,"o":"m 90 0 l 90 35 l 185 56 l 185 722 l 90 743 l 90 778 l 363 778 l 363 743 l 258 722 l 258 425 l 714 425 l 714 722 l 610 743 l 610 778 l 881 778 l 881 743 l 788 722 l 788 56 l 881 35 l 881 0 l 610 0 l 610 35 l 714 56 l 714 379 l 258 379 l 258 56 l 363 35 l 363 0 l 90 0 m 297 882 l 471 1128 l 501 1128 l 675 882 l 656 882 l 486 1053 l 317 882 l 297 882 z "},"ħ":{"ha":971,"x_min":90,"x_max":881,"o":"m 90 0 l 90 35 l 185 56 l 185 561 l 90 561 l 90 607 l 185 607 l 185 722 l 90 743 l 90 778 l 363 778 l 363 743 l 258 722 l 258 607 l 714 607 l 714 722 l 610 743 l 610 778 l 881 778 l 881 743 l 788 722 l 788 607 l 881 607 l 881 561 l 788 561 l 788 56 l 881 35 l 881 0 l 610 0 l 610 35 l 714 56 l 714 379 l 258 379 l 258 56 l 363 35 l 363 0 l 90 0 m 258 425 l 714 425 l 714 561 l 258 561 l 258 425 z "},"ḥ":{"ha":971,"x_min":90,"x_max":881,"o":"m 90 0 l 90 35 l 185 56 l 185 722 l 90 743 l 90 778 l 363 778 l 363 743 l 258 722 l 258 425 l 714 425 l 714 722 l 610 743 l 610 778 l 881 778 l 881 743 l 788 722 l 788 56 l 881 35 l 881 0 l 610 0 l 610 35 l 714 56 l 714 379 l 258 379 l 258 56 l 363 35 l 363 0 l 90 0 m 486 -264 q 449 -249 464 -264 q 433 -211 433 -233 q 449 -174 433 -189 q 486 -158 464 -158 q 524 -174 508 -158 q 539 -211 539 -189 q 524 -249 539 -233 q 486 -264 508 -264 z "},"ḫ":{"ha":971,"x_min":90,"x_max":881,"o":"m 90 0 l 90 35 l 185 56 l 185 722 l 90 743 l 90 778 l 363 778 l 363 743 l 258 722 l 258 425 l 714 425 l 714 722 l 610 743 l 610 778 l 881 778 l 881 743 l 788 722 l 788 56 l 881 35 l 881 0 l 610 0 l 610 35 l 714 56 l 714 379 l 258 379 l 258 56 l 363 35 l 363 0 l 90 0 m 486 -333 q 365 -275 404 -333 q 297 -101 326 -217 l 315 -101 q 365 -210 339 -172 q 420 -260 390 -247 q 486 -274 450 -274 q 552 -260 522 -274 q 608 -210 582 -247 q 657 -101 633 -172 l 675 -101 q 607 -275 646 -217 q 486 -333 568 -333 z "},"ì":{"ha":451,"x_min":43,"x_max":354,"o":"m 97 0 l 97 35 l 189 56 l 189 722 l 97 743 l 97 778 l 354 778 l 354 743 l 263 722 l 263 56 l 354 35 l 354 0 l 97 0 m 218 882 l 89 1040 q 54 1088 65 1069 q 43 1128 43 1107 l 108 1128 l 238 882 l 218 882 z "},"í":{"ha":451,"x_min":97,"x_max":414,"o":"m 97 0 l 97 35 l 189 56 l 189 722 l 97 743 l 97 778 l 354 778 l 354 743 l 263 722 l 263 56 l 354 35 l 354 0 l 97 0 m 218 882 l 349 1128 l 414 1128 q 403 1088 414 1107 q 368 1040 392 1069 l 238 882 l 218 882 z "},"î":{"ha":451,"x_min":39,"x_max":417,"o":"m 97 0 l 97 35 l 189 56 l 189 722 l 97 743 l 97 778 l 354 778 l 354 743 l 263 722 l 263 56 l 354 35 l 354 0 l 97 0 m 39 882 l 213 1128 l 243 1128 l 417 882 l 397 882 l 228 1053 l 58 882 l 39 882 z "},"ĩ":{"ha":451,"x_min":33,"x_max":422,"o":"m 97 0 l 97 35 l 189 56 l 189 722 l 97 743 l 97 778 l 354 778 l 354 743 l 263 722 l 263 56 l 354 35 l 354 0 l 97 0 m 33 918 q 71 1025 53 988 q 108 1076 89 1063 q 150 1090 128 1090 q 197 1072 175 1090 q 239 1031 219 1054 q 278 990 258 1008 q 317 972 297 972 q 362 1001 343 972 q 406 1090 381 1029 l 422 1090 q 385 983 403 1021 q 347 932 367 946 q 306 918 328 918 q 258 936 281 918 q 217 977 236 954 q 178 1018 197 1000 q 139 1036 158 1036 q 94 1008 113 1036 q 50 918 75 979 l 33 918 z "},"ï":{"ha":451,"x_min":40,"x_max":415,"o":"m 97 0 l 97 35 l 189 56 l 189 722 l 97 743 l 97 778 l 354 778 l 354 743 l 263 722 l 263 56 l 354 35 l 354 0 l 97 0 m 97 946 q 57 963 74 946 q 40 1003 40 979 q 57 1043 40 1026 q 97 1060 74 1060 q 138 1043 121 1060 q 154 1003 154 1026 q 138 963 154 979 q 97 946 121 946 m 358 946 q 318 963 335 946 q 301 1003 301 979 q 318 1043 301 1026 q 358 1060 335 1060 q 399 1043 382 1060 q 415 1003 415 1026 q 399 963 415 979 q 358 946 382 946 z "},"ī":{"ha":451,"x_min":51,"x_max":404,"o":"m 97 0 l 97 35 l 189 56 l 189 722 l 97 743 l 97 778 l 354 778 l 354 743 l 263 722 l 263 56 l 354 35 l 354 0 l 97 0 m 51 978 l 51 1028 l 404 1028 l 404 978 l 51 978 z "},"ĭ":{"ha":451,"x_min":39,"x_max":417,"o":"m 97 0 l 97 35 l 189 56 l 189 722 l 97 743 l 97 778 l 354 778 l 354 743 l 263 722 l 263 56 l 354 35 l 354 0 l 97 0 m 228 896 q 107 954 146 896 q 39 1128 68 1013 l 57 1128 q 106 1019 81 1057 q 162 969 132 982 q 228 956 192 956 q 294 969 264 956 q 349 1019 324 982 q 399 1128 375 1057 l 417 1128 q 349 954 388 1013 q 228 896 310 896 z "},"į":{"ha":451,"x_min":97,"x_max":354,"o":"m 97 0 l 97 35 l 189 56 l 189 722 l 97 743 l 97 778 l 354 778 l 354 743 l 263 722 l 263 56 l 354 35 l 354 0 l 264 0 q 188 -106 214 -56 q 163 -207 163 -157 q 186 -278 163 -256 q 251 -300 210 -300 q 294 -293 274 -300 q 335 -271 315 -286 l 339 -271 l 339 -289 q 297 -321 325 -308 q 233 -333 269 -333 q 146 -305 181 -333 q 111 -221 111 -276 q 144 -107 111 -161 q 236 0 178 -53 l 97 0 z "},"ị":{"ha":451,"x_min":97,"x_max":354,"o":"m 97 0 l 97 35 l 189 56 l 189 722 l 97 743 l 97 778 l 354 778 l 354 743 l 263 722 l 263 56 l 354 35 l 354 0 l 97 0 m 228 -264 q 190 -249 206 -264 q 175 -211 175 -233 q 190 -174 175 -189 q 228 -158 206 -158 q 265 -174 250 -158 q 281 -211 281 -189 q 265 -249 281 -233 q 228 -264 250 -264 z "},"ȉ":{"ha":451,"x_min":17,"x_max":354,"o":"m 97 0 l 97 35 l 189 56 l 189 722 l 97 743 l 97 778 l 354 778 l 354 743 l 263 722 l 263 56 l 354 35 l 354 0 l 97 0 m 140 882 l 40 1040 q 20 1088 24 1068 q 24 1128 17 1107 l 76 1128 l 160 882 l 140 882 m 296 882 l 196 1040 q 176 1088 179 1068 q 179 1128 172 1107 l 232 1128 l 315 882 l 296 882 z "},"ȋ":{"ha":451,"x_min":39,"x_max":417,"o":"m 97 0 l 97 35 l 189 56 l 189 722 l 97 743 l 97 778 l 354 778 l 354 743 l 263 722 l 263 56 l 354 35 l 354 0 l 97 0 m 39 896 q 107 1069 68 1011 q 228 1128 146 1128 q 349 1069 310 1128 q 417 896 388 1011 l 399 896 q 349 1003 375 967 q 294 1054 324 1040 q 228 1068 264 1068 q 162 1054 192 1068 q 106 1003 132 1040 q 57 896 81 967 l 39 896 z "},"ỉ":{"ha":451,"x_min":97,"x_max":354,"o":"m 97 0 l 97 35 l 189 56 l 189 722 l 97 743 l 97 778 l 354 778 l 354 743 l 263 722 l 263 56 l 354 35 l 354 0 l 97 0 m 161 897 l 161 899 q 250 935 218 914 q 282 989 282 956 q 254 1047 282 1024 q 156 1079 226 1069 l 164 1128 q 293 1084 257 1119 q 329 1011 329 1049 q 289 932 329 958 q 171 888 249 906 l 161 897 z "},"ḯ":{"ha":451,"x_min":40,"x_max":415,"o":"m 97 0 l 97 35 l 189 56 l 189 722 l 97 743 l 97 778 l 354 778 l 354 743 l 263 722 l 263 56 l 354 35 l 354 0 l 97 0 z "},"ĳ":{"ha":896,"x_min":97,"x_max":799,"o":"m 97 0 l 97 35 l 189 56 l 189 722 l 97 743 l 97 778 l 354 778 l 354 743 l 263 722 l 263 56 l 354 35 l 354 0 l 97 0 m 508 -204 q 481 -197 493 -204 q 469 -171 469 -189 q 472 -156 469 -169 q 481 -115 475 -143 l 488 -115 q 519 -124 507 -121 q 547 -126 532 -126 q 592 -112 574 -126 q 620 -59 610 -99 q 631 60 631 -19 l 631 722 l 538 743 l 538 778 l 799 778 l 799 743 l 704 722 l 704 249 q 688 11 704 103 q 626 -128 671 -81 q 576 -178 594 -161 q 544 -199 558 -194 q 508 -204 529 -204 z "},"ĵ":{"ha":444,"x_min":18,"x_max":406,"o":"m 57 -204 q 30 -197 42 -204 q 18 -171 18 -189 q 21 -156 18 -169 q 29 -115 24 -143 l 36 -115 q 68 -124 56 -121 q 96 -126 81 -126 q 140 -112 122 -126 q 169 -59 158 -99 q 179 60 179 -19 l 179 722 l 86 743 l 86 778 l 347 778 l 347 743 l 253 722 l 253 249 q 236 11 253 103 q 175 -128 219 -81 q 125 -178 143 -161 q 92 -199 107 -194 q 57 -204 78 -204 m 28 882 l 201 1128 l 232 1128 l 406 882 l 386 882 l 217 1053 l 47 882 l 28 882 z "},"ķ":{"ha":850,"x_min":90,"x_max":801,"o":"m 90 0 l 90 35 l 186 56 l 186 722 l 90 743 l 90 778 l 357 778 l 357 743 l 260 722 l 260 406 l 603 722 l 515 743 l 515 778 l 763 778 l 763 743 l 683 728 l 331 415 l 714 51 l 801 35 l 801 0 l 661 0 l 260 392 l 260 56 l 357 35 l 357 0 l 90 0 m 390 -332 q 367 -331 381 -332 q 343 -328 353 -331 l 343 -311 q 366 -315 353 -314 q 388 -315 379 -315 q 463 -296 439 -315 q 488 -244 488 -276 q 456 -188 488 -206 q 342 -171 424 -171 l 342 -149 q 349 -133 342 -139 q 386 -128 357 -128 q 497 -156 458 -128 q 536 -232 536 -183 q 495 -306 536 -279 q 390 -332 454 -332 z "},"ĺ":{"ha":763,"x_min":90,"x_max":665,"o":"m 90 0 l 90 35 l 183 56 l 183 722 l 90 743 l 90 778 l 367 778 l 367 743 l 257 722 l 257 46 l 585 46 l 638 250 l 665 250 l 665 0 l 90 0 m 213 882 l 343 1128 l 408 1128 q 397 1088 408 1107 q 363 1040 386 1069 l 232 882 l 213 882 z "},"ľ":{"ha":763,"x_min":90,"x_max":665,"o":"m 90 0 l 90 35 l 183 56 l 183 722 l 90 743 l 90 778 l 367 778 l 367 743 l 257 722 l 257 46 l 585 46 l 638 250 l 665 250 l 665 0 l 90 0 m 497 518 l 540 778 l 604 778 q 589 688 613 743 l 517 518 l 497 518 z "},"ļ":{"ha":763,"x_min":90,"x_max":665,"o":"m 90 0 l 90 35 l 183 56 l 183 722 l 90 743 l 90 778 l 367 778 l 367 743 l 257 722 l 257 46 l 585 46 l 638 250 l 665 250 l 665 0 l 90 0 m 350 -332 q 326 -331 340 -332 q 303 -328 313 -331 l 303 -311 q 326 -315 313 -314 q 347 -315 339 -315 q 423 -296 399 -315 q 447 -244 447 -276 q 415 -188 447 -206 q 301 -171 383 -171 l 301 -149 q 309 -133 301 -139 q 346 -128 317 -128 q 457 -156 418 -128 q 496 -232 496 -183 q 455 -306 496 -279 q 350 -332 414 -332 z "},"ł":{"ha":763,"x_min":90,"x_max":665,"o":"m 90 0 l 90 35 l 183 56 l 183 324 l 90 261 l 90 318 l 183 381 l 183 722 l 90 743 l 90 778 l 367 778 l 367 743 l 257 722 l 257 421 l 439 542 l 439 486 l 257 364 l 257 46 l 585 46 l 638 250 l 665 250 l 665 0 l 90 0 z "},"ŀ":{"ha":763,"x_min":90,"x_max":665,"o":"m 90 0 l 90 35 l 183 56 l 183 722 l 90 743 l 90 778 l 367 778 l 367 743 l 257 722 l 257 46 l 585 46 l 638 250 l 665 250 l 665 0 l 90 0 m 597 349 q 560 364 575 349 q 544 401 544 379 q 560 439 544 424 q 597 454 575 454 q 635 439 619 454 q 650 401 650 424 q 635 364 650 379 q 597 349 619 349 z "},"ḷ":{"ha":763,"x_min":90,"x_max":665,"o":"m 90 0 l 90 35 l 183 56 l 183 722 l 90 743 l 90 778 l 367 778 l 367 743 l 257 722 l 257 46 l 585 46 l 638 250 l 665 250 l 665 0 l 90 0 m 393 -264 q 356 -249 371 -264 q 340 -211 340 -233 q 356 -174 340 -189 q 393 -158 371 -158 q 431 -174 415 -158 q 446 -211 446 -189 q 431 -249 446 -233 q 393 -264 415 -264 z "},"ḻ":{"ha":763,"x_min":90,"x_max":665,"o":"m 90 0 l 90 35 l 183 56 l 183 722 l 90 743 l 90 778 l 367 778 l 367 743 l 257 722 l 257 46 l 585 46 l 638 250 l 665 250 l 665 0 l 90 0 m 217 -232 l 217 -182 l 569 -182 l 569 -232 l 217 -232 z "},"ṃ":{"ha":1151,"x_min":83,"x_max":1068,"o":"m 83 0 l 83 35 l 178 54 l 204 719 l 100 743 l 100 778 l 294 778 l 582 121 l 871 778 l 1064 778 l 1064 743 l 963 719 l 983 54 l 1068 35 l 1068 0 l 818 0 l 818 35 l 908 53 l 893 701 l 578 -6 l 553 -6 l 249 697 l 235 53 l 332 35 l 332 0 l 83 0 m 565 -264 q 528 -249 543 -264 q 513 -211 513 -233 q 528 -174 513 -189 q 565 -158 543 -158 q 603 -174 588 -158 q 618 -211 618 -189 q 603 -249 618 -233 q 565 -264 588 -264 z "},"ń":{"ha":968,"x_min":90,"x_max":878,"o":"m 90 0 l 90 36 l 185 56 l 185 724 l 90 743 l 90 778 l 253 778 l 733 139 l 733 724 l 629 743 l 629 778 l 878 778 l 878 743 l 785 724 l 785 -6 l 753 -6 l 236 669 l 236 60 l 346 36 l 346 0 l 90 0 m 475 882 l 606 1128 l 671 1128 q 660 1088 671 1107 q 625 1040 649 1069 l 494 882 l 475 882 z "},"ň":{"ha":968,"x_min":90,"x_max":878,"o":"m 90 0 l 90 36 l 185 56 l 185 724 l 90 743 l 90 778 l 253 778 l 733 139 l 733 724 l 629 743 l 629 778 l 878 778 l 878 743 l 785 724 l 785 -6 l 753 -6 l 236 669 l 236 60 l 346 36 l 346 0 l 90 0 m 469 882 l 296 1128 l 315 1128 l 485 957 l 654 1128 l 674 1128 l 500 882 l 469 882 z "},"ñ":{"ha":968,"x_min":90,"x_max":878,"o":"m 90 0 l 90 36 l 185 56 l 185 724 l 90 743 l 90 778 l 253 778 l 733 139 l 733 724 l 629 743 l 629 778 l 878 778 l 878 743 l 785 724 l 785 -6 l 753 -6 l 236 669 l 236 60 l 346 36 l 346 0 l 90 0 m 290 918 q 328 1025 310 988 q 365 1076 346 1063 q 407 1090 385 1090 q 454 1072 432 1090 q 496 1031 476 1054 q 535 990 515 1008 q 574 972 554 972 q 619 1001 600 972 q 663 1090 638 1029 l 679 1090 q 642 983 660 1021 q 604 932 624 946 q 563 918 585 918 q 515 936 538 918 q 474 977 493 954 q 435 1018 454 1000 q 396 1036 415 1036 q 351 1008 369 1036 q 307 918 332 979 l 290 918 z "},"ņ":{"ha":968,"x_min":90,"x_max":878,"o":"m 90 0 l 90 36 l 185 56 l 185 724 l 90 743 l 90 778 l 253 778 l 733 139 l 733 724 l 629 743 l 629 778 l 878 778 l 878 743 l 785 724 l 785 -6 l 753 -6 l 236 669 l 236 60 l 346 36 l 346 0 l 90 0 m 442 -332 q 418 -331 432 -332 q 394 -328 404 -331 l 394 -311 q 417 -315 404 -314 q 439 -315 431 -315 q 515 -296 490 -315 q 539 -244 539 -276 q 507 -188 539 -206 q 393 -171 475 -171 l 393 -149 q 401 -133 393 -139 q 438 -128 408 -128 q 549 -156 510 -128 q 588 -232 588 -183 q 547 -306 588 -279 q 442 -332 506 -332 z "},"ṅ":{"ha":968,"x_min":90,"x_max":878,"o":"m 90 0 l 90 36 l 185 56 l 185 724 l 90 743 l 90 778 l 253 778 l 733 139 l 733 724 l 629 743 l 629 778 l 878 778 l 878 743 l 785 724 l 785 -6 l 753 -6 l 236 669 l 236 60 l 346 36 l 346 0 l 90 0 m 485 951 q 447 967 463 951 q 432 1004 432 982 q 447 1042 432 1026 q 485 1057 463 1057 q 522 1042 507 1057 q 538 1004 538 1026 q 522 967 538 982 q 485 951 507 951 z "},"ṇ":{"ha":968,"x_min":90,"x_max":878,"o":"m 90 0 l 90 36 l 185 56 l 185 724 l 90 743 l 90 778 l 253 778 l 733 139 l 733 724 l 629 743 l 629 778 l 878 778 l 878 743 l 785 724 l 785 -6 l 753 -6 l 236 669 l 236 60 l 346 36 l 346 0 l 90 0 m 485 -264 q 447 -249 463 -264 q 432 -211 432 -233 q 447 -174 432 -189 q 485 -158 463 -158 q 522 -174 507 -158 q 538 -211 538 -189 q 522 -249 538 -233 q 485 -264 507 -264 z "},"ṉ":{"ha":968,"x_min":90,"x_max":878,"o":"m 90 0 l 90 36 l 185 56 l 185 724 l 90 743 l 90 778 l 253 778 l 733 139 l 733 724 l 629 743 l 629 778 l 878 778 l 878 743 l 785 724 l 785 -6 l 753 -6 l 236 669 l 236 60 l 346 36 l 346 0 l 90 0 m 308 -232 l 308 -182 l 661 -182 l 661 -232 l 308 -232 z "},"ò":{"ha":949,"x_min":97,"x_max":851,"o":"m 474 -14 q 280 38 365 -14 q 146 181 194 90 q 97 389 97 272 q 146 597 97 506 q 280 741 194 689 q 474 793 365 793 q 667 741 582 793 q 802 597 753 689 q 851 389 851 506 q 802 181 851 272 q 667 38 753 90 q 474 -14 582 -14 m 499 35 q 644 74 581 35 q 742 184 707 113 q 776 353 776 256 q 733 560 776 472 q 617 697 690 649 q 453 746 544 746 q 306 707 369 746 q 206 597 242 668 q 169 428 169 525 q 214 220 169 308 q 333 83 258 132 q 499 35 407 35 m 465 882 l 336 1040 q 301 1088 313 1069 q 290 1128 290 1107 l 356 1128 l 485 882 l 465 882 z "},"ó":{"ha":949,"x_min":97,"x_max":851,"o":"m 474 -14 q 280 38 365 -14 q 146 181 194 90 q 97 389 97 272 q 146 597 97 506 q 280 741 194 689 q 474 793 365 793 q 667 741 582 793 q 802 597 753 689 q 851 389 851 506 q 802 181 851 272 q 667 38 753 90 q 474 -14 582 -14 m 499 35 q 644 74 581 35 q 742 184 707 113 q 776 353 776 256 q 733 560 776 472 q 617 697 690 649 q 453 746 544 746 q 306 707 369 746 q 206 597 242 668 q 169 428 169 525 q 214 220 169 308 q 333 83 258 132 q 499 35 407 35 m 465 882 l 596 1128 l 661 1128 q 650 1088 661 1107 q 615 1040 639 1069 l 485 882 l 465 882 z "},"ô":{"ha":949,"x_min":97,"x_max":851,"o":"m 474 -14 q 280 38 365 -14 q 146 181 194 90 q 97 389 97 272 q 146 597 97 506 q 280 741 194 689 q 474 793 365 793 q 667 741 582 793 q 802 597 753 689 q 851 389 851 506 q 802 181 851 272 q 667 38 753 90 q 474 -14 582 -14 m 499 35 q 644 74 581 35 q 742 184 707 113 q 776 353 776 256 q 733 560 776 472 q 617 697 690 649 q 453 746 544 746 q 306 707 369 746 q 206 597 242 668 q 169 428 169 525 q 214 220 169 308 q 333 83 258 132 q 499 35 407 35 m 286 882 l 460 1128 l 490 1128 l 664 882 l 644 882 l 475 1053 l 306 882 l 286 882 z "},"õ":{"ha":949,"x_min":97,"x_max":851,"o":"m 474 -14 q 280 38 365 -14 q 146 181 194 90 q 97 389 97 272 q 146 597 97 506 q 280 741 194 689 q 474 793 365 793 q 667 741 582 793 q 802 597 753 689 q 851 389 851 506 q 802 181 851 272 q 667 38 753 90 q 474 -14 582 -14 m 499 35 q 644 74 581 35 q 742 184 707 113 q 776 353 776 256 q 733 560 776 472 q 617 697 690 649 q 453 746 544 746 q 306 707 369 746 q 206 597 242 668 q 169 428 169 525 q 214 220 169 308 q 333 83 258 132 q 499 35 407 35 m 281 918 q 318 1025 300 988 q 356 1076 336 1063 q 397 1090 375 1090 q 444 1072 422 1090 q 486 1031 467 1054 q 525 990 506 1008 q 564 972 544 972 q 609 1001 590 972 q 653 1090 628 1029 l 669 1090 q 632 983 650 1021 q 594 932 614 946 q 553 918 575 918 q 506 936 528 918 q 464 977 483 954 q 425 1018 444 1000 q 386 1036 406 1036 q 341 1008 360 1036 q 297 918 322 979 l 281 918 z "},"ö":{"ha":949,"x_min":97,"x_max":851,"o":"m 474 -14 q 280 38 365 -14 q 146 181 194 90 q 97 389 97 272 q 146 597 97 506 q 280 741 194 689 q 474 793 365 793 q 667 741 582 793 q 802 597 753 689 q 851 389 851 506 q 802 181 851 272 q 667 38 753 90 q 474 -14 582 -14 m 499 35 q 644 74 581 35 q 742 184 707 113 q 776 353 776 256 q 733 560 776 472 q 617 697 690 649 q 453 746 544 746 q 306 707 369 746 q 206 597 242 668 q 169 428 169 525 q 214 220 169 308 q 333 83 258 132 q 499 35 407 35 m 344 946 q 304 963 321 946 q 288 1003 288 979 q 304 1043 288 1026 q 344 1060 321 1060 q 385 1043 368 1060 q 401 1003 401 1026 q 385 963 401 979 q 344 946 368 946 m 606 946 q 565 963 582 946 q 549 1003 549 979 q 565 1043 549 1026 q 606 1060 582 1060 q 646 1043 629 1060 q 663 1003 663 1026 q 646 963 663 979 q 606 946 629 946 z "},"ō":{"ha":949,"x_min":97,"x_max":851,"o":"m 474 -14 q 280 38 365 -14 q 146 181 194 90 q 97 389 97 272 q 146 597 97 506 q 280 741 194 689 q 474 793 365 793 q 667 741 582 793 q 802 597 753 689 q 851 389 851 506 q 802 181 851 272 q 667 38 753 90 q 474 -14 582 -14 m 499 35 q 644 74 581 35 q 742 184 707 113 q 776 353 776 256 q 733 560 776 472 q 617 697 690 649 q 453 746 544 746 q 306 707 369 746 q 206 597 242 668 q 169 428 169 525 q 214 220 169 308 q 333 83 258 132 q 499 35 407 35 m 299 978 l 299 1028 l 651 1028 l 651 978 l 299 978 z "},"ŏ":{"ha":949,"x_min":97,"x_max":851,"o":"m 474 -14 q 280 38 365 -14 q 146 181 194 90 q 97 389 97 272 q 146 597 97 506 q 280 741 194 689 q 474 793 365 793 q 667 741 582 793 q 802 597 753 689 q 851 389 851 506 q 802 181 851 272 q 667 38 753 90 q 474 -14 582 -14 m 499 35 q 644 74 581 35 q 742 184 707 113 q 776 353 776 256 q 733 560 776 472 q 617 697 690 649 q 453 746 544 746 q 306 707 369 746 q 206 597 242 668 q 169 428 169 525 q 214 220 169 308 q 333 83 258 132 q 499 35 407 35 m 475 896 q 354 954 393 896 q 286 1128 315 1013 l 304 1128 q 353 1019 328 1057 q 409 969 379 982 q 475 956 439 956 q 541 969 511 956 q 597 1019 571 982 q 646 1128 622 1057 l 664 1128 q 596 954 635 1013 q 475 896 557 896 z "},"ő":{"ha":949,"x_min":97,"x_max":851,"o":"m 474 -14 q 280 38 365 -14 q 146 181 194 90 q 97 389 97 272 q 146 597 97 506 q 280 741 194 689 q 474 793 365 793 q 667 741 582 793 q 802 597 753 689 q 851 389 851 506 q 802 181 851 272 q 667 38 753 90 q 474 -14 582 -14 m 499 35 q 644 74 581 35 q 742 184 707 113 q 776 353 776 256 q 733 560 776 472 q 617 697 690 649 q 453 746 544 746 q 306 707 369 746 q 206 597 242 668 q 169 428 169 525 q 214 220 169 308 q 333 83 258 132 q 499 35 407 35 m 388 882 l 463 1128 l 515 1128 q 499 1040 528 1092 l 407 882 l 388 882 m 543 882 l 618 1128 l 671 1128 q 654 1040 683 1092 l 563 882 l 543 882 z "},"ọ":{"ha":949,"x_min":97,"x_max":851,"o":"m 474 -14 q 280 38 365 -14 q 146 181 194 90 q 97 389 97 272 q 146 597 97 506 q 280 741 194 689 q 474 793 365 793 q 667 741 582 793 q 802 597 753 689 q 851 389 851 506 q 802 181 851 272 q 667 38 753 90 q 474 -14 582 -14 m 499 35 q 644 74 581 35 q 742 184 707 113 q 776 353 776 256 q 733 560 776 472 q 617 697 690 649 q 453 746 544 746 q 306 707 369 746 q 206 597 242 668 q 169 428 169 525 q 214 220 169 308 q 333 83 258 132 q 499 35 407 35 m 475 -264 q 438 -249 453 -264 q 422 -211 422 -233 q 438 -174 422 -189 q 475 -158 453 -158 q 513 -174 497 -158 q 528 -211 528 -189 q 513 -249 528 -233 q 475 -264 497 -264 z "}}}
